<?xml version="1.0" encoding="UTF-8" standalone="no"?>
<!DOCTYPE svg PUBLIC "-//W3C//DTD SVG 1.1//EN"
 "http://www.w3.org/Graphics/SVG/1.1/DTD/svg11.dtd">
<!-- Generated by graphviz version 2.43.0 (0)
 -->
<!-- Title: dependency&#45;cruiser output Pages: 1 -->
<svg width="2559pt" height="290pt"
 viewBox="0.00 0.00 2558.60 290.00" xmlns="http://www.w3.org/2000/svg" xmlns:xlink="http://www.w3.org/1999/xlink">
<g id="graph0" class="graph" transform="scale(1 1) rotate(0) translate(4 286)">
<title>dependency&#45;cruiser output</title>
<polygon fill="dodgerblue" stroke="transparent" points="-4,4 -4,-286 2554.6,-286 2554.6,4 -4,4"/>
<g id="clust1" class="cluster">
<title>cluster_app</title>
<path fill="transparent" stroke="white" stroke-width="2" d="M20,-8C20,-8 1935,-8 1935,-8 1941,-8 1947,-14 1947,-20 1947,-20 1947,-244 1947,-244 1947,-250 1941,-256 1935,-256 1935,-256 20,-256 20,-256 14,-256 8,-250 8,-244 8,-244 8,-20 8,-20 8,-14 14,-8 20,-8"/>
<text text-anchor="middle" x="977.5" y="-244.8" font-family="Helvetica,sans-Serif" font-weight="bold" font-size="9.00" fill="white">app</text>
</g>
<g id="clust2" class="cluster">
<title>cluster_app/controllers</title>
<path fill="transparent" stroke="white" stroke-width="2" d="M28,-118C28,-118 1927,-118 1927,-118 1933,-118 1939,-124 1939,-130 1939,-130 1939,-158 1939,-158 1939,-164 1933,-170 1927,-170 1927,-170 28,-170 28,-170 22,-170 16,-164 16,-158 16,-158 16,-130 16,-130 16,-124 22,-118 28,-118"/>
<text text-anchor="middle" x="977.5" y="-158.8" font-family="Helvetica,sans-Serif" font-weight="bold" font-size="9.00" fill="white">controllers</text>
</g>
<g id="clust3" class="cluster">
<title>cluster_app/models</title>
<path fill="transparent" stroke="white" stroke-width="2" d="M227,-16C227,-16 1443,-16 1443,-16 1449,-16 1455,-22 1455,-28 1455,-28 1455,-98 1455,-98 1455,-104 1449,-110 1443,-110 1443,-110 227,-110 227,-110 221,-110 215,-104 215,-98 215,-98 215,-28 215,-28 215,-22 221,-16 227,-16"/>
<text text-anchor="middle" x="835" y="-98.8" font-family="Helvetica,sans-Serif" font-weight="bold" font-size="9.00" fill="white">models</text>
</g>
<g id="clust4" class="cluster">
<title>cluster_app/routes</title>
<path fill="transparent" stroke="white" stroke-width="2" d="M168,-178C168,-178 1849,-178 1849,-178 1855,-178 1861,-184 1861,-190 1861,-190 1861,-218 1861,-218 1861,-224 1855,-230 1849,-230 1849,-230 168,-230 168,-230 162,-230 156,-224 156,-218 156,-218 156,-190 156,-190 156,-184 162,-178 168,-178"/>
<text text-anchor="middle" x="1008.5" y="-218.8" font-family="Helvetica,sans-Serif" font-weight="bold" font-size="9.00" fill="white">routes</text>
</g>
<g id="clust5" class="cluster">
<title>cluster_lib</title>
<path fill="transparent" stroke="white" stroke-width="2" d="M2373,-16C2373,-16 2499,-16 2499,-16 2505,-16 2511,-22 2511,-28 2511,-28 2511,-98 2511,-98 2511,-104 2505,-110 2499,-110 2499,-110 2373,-110 2373,-110 2367,-110 2361,-104 2361,-98 2361,-98 2361,-28 2361,-28 2361,-22 2367,-16 2373,-16"/>
<text text-anchor="middle" x="2436" y="-98.8" font-family="Helvetica,sans-Serif" font-weight="bold" font-size="9.00" fill="white">lib</text>
</g>
<g id="clust6" class="cluster">
<title>cluster_middleware</title>
<path fill="transparent" stroke="white" stroke-width="2" d="M2221,-118C2221,-118 2469,-118 2469,-118 2475,-118 2481,-124 2481,-130 2481,-130 2481,-218 2481,-218 2481,-224 2475,-230 2469,-230 2469,-230 2221,-230 2221,-230 2215,-230 2209,-224 2209,-218 2209,-218 2209,-130 2209,-130 2209,-124 2215,-118 2221,-118"/>
<text text-anchor="middle" x="2345" y="-218.8" font-family="Helvetica,sans-Serif" font-weight="bold" font-size="9.00" fill="white">middleware</text>
</g>
<g id="clust7" class="cluster">
<title>cluster_websockets</title>
<path fill="transparent" stroke="white" stroke-width="2" d="M1967,-50C1967,-50 2189,-50 2189,-50 2195,-50 2201,-56 2201,-62 2201,-62 2201,-218 2201,-218 2201,-224 2195,-230 2189,-230 2189,-230 1967,-230 1967,-230 1961,-230 1955,-224 1955,-218 1955,-218 1955,-62 1955,-62 1955,-56 1961,-50 1967,-50"/>
<text text-anchor="middle" x="2078" y="-218.8" font-family="Helvetica,sans-Serif" font-weight="bold" font-size="9.00" fill="white">websockets</text>
</g>
<g id="clust8" class="cluster">
<title>cluster_websockets/controllers</title>
<path fill="transparent" stroke="white" stroke-width="2" d="M1975,-118C1975,-118 2181,-118 2181,-118 2187,-118 2193,-124 2193,-130 2193,-130 2193,-158 2193,-158 2193,-164 2187,-170 2181,-170 2181,-170 1975,-170 1975,-170 1969,-170 1963,-164 1963,-158 1963,-158 1963,-130 1963,-130 1963,-124 1969,-118 1975,-118"/>
<text text-anchor="middle" x="2078" y="-158.8" font-family="Helvetica,sans-Serif" font-weight="bold" font-size="9.00" fill="white">controllers</text>
</g>
<g id="clust9" class="cluster">
<title>cluster_websockets/models</title>
<path fill="transparent" stroke="white" stroke-width="2" d="M2026,-58C2026,-58 2138,-58 2138,-58 2144,-58 2150,-64 2150,-70 2150,-70 2150,-98 2150,-98 2150,-104 2144,-110 2138,-110 2138,-110 2026,-110 2026,-110 2020,-110 2014,-104 2014,-98 2014,-98 2014,-70 2014,-70 2014,-64 2020,-58 2026,-58"/>
<text text-anchor="middle" x="2082" y="-98.8" font-family="Helvetica,sans-Serif" font-weight="bold" font-size="9.00" fill="white">models</text>
</g>
<!-- .dependency&#45;cruiser.js -->
<g id="node1" class="node">
<title>.dependency&#45;cruiser.js</title>
<g id="a_node1"><a xlink:href=".dependency-cruiser.js" xlink:title=".dependency&#45;cruiser.js">
<path fill="#ccffcc" stroke="white" d="M1237.5,-282C1237.5,-282 1130.5,-282 1130.5,-282 1127.5,-282 1124.5,-279 1124.5,-276 1124.5,-276 1124.5,-270 1124.5,-270 1124.5,-267 1127.5,-264 1130.5,-264 1130.5,-264 1237.5,-264 1237.5,-264 1240.5,-264 1243.5,-267 1243.5,-270 1243.5,-270 1243.5,-276 1243.5,-276 1243.5,-279 1240.5,-282 1237.5,-282"/>
<text text-anchor="middle" x="1184" y="-270.8" font-family="Helvetica,sans-Serif" font-size="9.00" fill="white">.dependency&#45;cruiser.js</text>
</a>
</g>
</g>
<!-- app/controllers/Emply.controller.js -->
<g id="node2" class="node">
<title>app/controllers/Emply.controller.js</title>
<g id="a_node2"><a xlink:href="app/controllers/Emply.controller.js" xlink:title="Emply.controller.js">
<path fill="#ffffff" fill-opacity="0.200000" stroke="white" d="M1925,-144C1925,-144 1839,-144 1839,-144 1836,-144 1833,-141 1833,-138 1833,-138 1833,-132 1833,-132 1833,-129 1836,-126 1839,-126 1839,-126 1925,-126 1925,-126 1928,-126 1931,-129 1931,-132 1931,-132 1931,-138 1931,-138 1931,-141 1928,-144 1925,-144"/>
<text text-anchor="start" x="1841" y="-132.8" font-family="Helvetica,sans-Serif" font-size="9.00" fill="white">Emply.controller.js</text>
</a>
</g>
</g>
<!-- app/controllers/forecast.controller.js -->
<g id="node3" class="node">
<title>app/controllers/forecast.controller.js</title>
<g id="a_node3"><a xlink:href="app/controllers/forecast.controller.js" xlink:title="forecast.controller.js">
<path fill="#ffffff" fill-opacity="0.200000" stroke="white" d="M1814.5,-144C1814.5,-144 1719.5,-144 1719.5,-144 1716.5,-144 1713.5,-141 1713.5,-138 1713.5,-138 1713.5,-132 1713.5,-132 1713.5,-129 1716.5,-126 1719.5,-126 1719.5,-126 1814.5,-126 1814.5,-126 1817.5,-126 1820.5,-129 1820.5,-132 1820.5,-132 1820.5,-138 1820.5,-138 1820.5,-141 1817.5,-144 1814.5,-144"/>
<text text-anchor="start" x="1721.5" y="-132.8" font-family="Helvetica,sans-Serif" font-size="9.00" fill="white">forecast.controller.js</text>
</a>
</g>
</g>
<!-- app/models/index.js -->
<g id="node4" class="node">
<title>app/models/index.js</title>
<g id="a_node4"><a xlink:href="app/models/index.js" xlink:title="index.js">
<path fill="#ffffff" fill-opacity="0.200000" stroke="white" d="M808,-84C808,-84 766,-84 766,-84 763,-84 760,-81 760,-78 760,-78 760,-72 760,-72 760,-69 763,-66 766,-66 766,-66 808,-66 808,-66 811,-66 814,-69 814,-72 814,-72 814,-78 814,-78 814,-81 811,-84 808,-84"/>
<text text-anchor="start" x="769.5" y="-72.8" font-family="Helvetica,sans-Serif" font-size="9.00" fill="white">index.js</text>
</a>
</g>
</g>
<!-- app/controllers/forecast.controller.js&#45;&gt;app/models/index.js -->
<g id="edge1" class="edge">
<title>app/controllers/forecast.controller.js&#45;&gt;app/models/index.js</title>
<path fill="none" stroke="white" d="M1741.56,-125.92C1730.98,-122.9 1718.51,-119.78 1707,-118 1530.51,-90.76 961.55,-79.08 819.41,-76.55"/>
<polygon fill="white" stroke="white" points="814.14,-76.45 819.18,-74.29 816.64,-76.5 819.14,-76.54 819.14,-76.54 819.14,-76.54 816.64,-76.5 819.1,-78.79 814.14,-76.45 814.14,-76.45"/>
</g>
<!-- app/models/Hours.model.js -->
<g id="node20" class="node">
<title>app/models/Hours.model.js</title>
<g id="a_node20"><a xlink:href="app/models/Hours.model.js" xlink:title="Hours.model.js">
<path fill="#ffffff" fill-opacity="0.200000" stroke="white" d="M300.5,-42C300.5,-42 229.5,-42 229.5,-42 226.5,-42 223.5,-39 223.5,-36 223.5,-36 223.5,-30 223.5,-30 223.5,-27 226.5,-24 229.5,-24 229.5,-24 300.5,-24 300.5,-24 303.5,-24 306.5,-27 306.5,-30 306.5,-30 306.5,-36 306.5,-36 306.5,-39 303.5,-42 300.5,-42"/>
<text text-anchor="start" x="231.5" y="-30.8" font-family="Helvetica,sans-Serif" font-size="9.00" fill="white">Hours.model.js</text>
</a>
</g>
</g>
<!-- app/models/index.js&#45;&gt;app/models/Hours.model.js -->
<g id="edge14" class="edge">
<title>app/models/index.js&#45;&gt;app/models/Hours.model.js</title>
<path fill="none" stroke="white" d="M759.87,-66.62C737.55,-60.91 704.98,-53.42 676,-50 515.3,-31.04 473.08,-57.4 312,-42 311.89,-41.99 311.78,-41.98 311.68,-41.97"/>
<polygon fill="white" stroke="white" points="306.73,-41.43 311.94,-39.73 309.21,-41.7 311.7,-41.97 311.7,-41.97 311.7,-41.97 309.21,-41.7 311.46,-44.21 306.73,-41.43 306.73,-41.43"/>
</g>
<!-- app/models/Ledger.model.js -->
<g id="node21" class="node">
<title>app/models/Ledger.model.js</title>
<g id="a_node21"><a xlink:href="app/models/Ledger.model.js" xlink:title="Ledger.model.js">
<path fill="#ffffff" fill-opacity="0.200000" stroke="white" d="M399.5,-42C399.5,-42 324.5,-42 324.5,-42 321.5,-42 318.5,-39 318.5,-36 318.5,-36 318.5,-30 318.5,-30 318.5,-27 321.5,-24 324.5,-24 324.5,-24 399.5,-24 399.5,-24 402.5,-24 405.5,-27 405.5,-30 405.5,-30 405.5,-36 405.5,-36 405.5,-39 402.5,-42 399.5,-42"/>
<text text-anchor="start" x="326.5" y="-30.8" font-family="Helvetica,sans-Serif" font-size="9.00" fill="white">Ledger.model.js</text>
</a>
</g>
</g>
<!-- app/models/index.js&#45;&gt;app/models/Ledger.model.js -->
<g id="edge15" class="edge">
<title>app/models/index.js&#45;&gt;app/models/Ledger.model.js</title>
<path fill="none" stroke="white" d="M759.87,-66.68C737.54,-61.01 704.96,-53.54 676,-50 559.04,-35.71 528.29,-53.3 411,-42 410.89,-41.99 410.77,-41.98 410.66,-41.97"/>
<polygon fill="white" stroke="white" points="405.51,-41.41 410.72,-39.71 408,-41.68 410.48,-41.95 410.48,-41.95 410.48,-41.95 408,-41.68 410.24,-44.18 405.51,-41.41 405.51,-41.41"/>
</g>
<!-- app/models/Locations.model.js -->
<g id="node22" class="node">
<title>app/models/Locations.model.js</title>
<g id="a_node22"><a xlink:href="app/models/Locations.model.js" xlink:title="Locations.model.js">
<path fill="#ffffff" fill-opacity="0.200000" stroke="white" d="M510.5,-42C510.5,-42 423.5,-42 423.5,-42 420.5,-42 417.5,-39 417.5,-36 417.5,-36 417.5,-30 417.5,-30 417.5,-27 420.5,-24 423.5,-24 423.5,-24 510.5,-24 510.5,-24 513.5,-24 516.5,-27 516.5,-30 516.5,-30 516.5,-36 516.5,-36 516.5,-39 513.5,-42 510.5,-42"/>
<text text-anchor="start" x="425.5" y="-30.8" font-family="Helvetica,sans-Serif" font-size="9.00" fill="white">Locations.model.js</text>
</a>
</g>
</g>
<!-- app/models/index.js&#45;&gt;app/models/Locations.model.js -->
<g id="edge16" class="edge">
<title>app/models/index.js&#45;&gt;app/models/Locations.model.js</title>
<path fill="none" stroke="white" d="M759.85,-66.85C737.5,-61.27 704.92,-53.85 676,-50 608.06,-40.95 590.21,-48.72 522,-42 521.89,-41.99 521.78,-41.98 521.68,-41.97"/>
<polygon fill="white" stroke="white" points="516.74,-41.45 521.95,-39.73 519.23,-41.71 521.71,-41.97 521.71,-41.97 521.71,-41.97 519.23,-41.71 521.48,-44.21 516.74,-41.45 516.74,-41.45"/>
</g>
<!-- app/models/Photo.model.js -->
<g id="node23" class="node">
<title>app/models/Photo.model.js</title>
<g id="a_node23"><a xlink:href="app/models/Photo.model.js" xlink:title="Photo.model.js">
<path fill="#ffffff" fill-opacity="0.200000" stroke="white" d="M605.5,-42C605.5,-42 534.5,-42 534.5,-42 531.5,-42 528.5,-39 528.5,-36 528.5,-36 528.5,-30 528.5,-30 528.5,-27 531.5,-24 534.5,-24 534.5,-24 605.5,-24 605.5,-24 608.5,-24 611.5,-27 611.5,-30 611.5,-30 611.5,-36 611.5,-36 611.5,-39 608.5,-42 605.5,-42"/>
<text text-anchor="start" x="536.5" y="-30.8" font-family="Helvetica,sans-Serif" font-size="9.00" fill="white">Photo.model.js</text>
</a>
</g>
</g>
<!-- app/models/index.js&#45;&gt;app/models/Photo.model.js -->
<g id="edge17" class="edge">
<title>app/models/index.js&#45;&gt;app/models/Photo.model.js</title>
<path fill="none" stroke="white" d="M759.74,-67.5C737.34,-62.31 704.73,-55.08 676,-50 650.38,-45.47 643.73,-45.92 618,-42 617.61,-41.94 617.22,-41.88 616.82,-41.82"/>
<polygon fill="white" stroke="white" points="611.62,-41.01 616.9,-39.56 614.09,-41.39 616.56,-41.78 616.56,-41.78 616.56,-41.78 614.09,-41.39 616.21,-44 611.62,-41.01 611.62,-41.01"/>
</g>
<!-- app/models/Projects.model.js -->
<g id="node25" class="node">
<title>app/models/Projects.model.js</title>
<g id="a_node25"><a xlink:href="app/models/Projects.model.js" xlink:title="Projects.model.js">
<path fill="#ffffff" fill-opacity="0.200000" stroke="white" d="M710,-42C710,-42 630,-42 630,-42 627,-42 624,-39 624,-36 624,-36 624,-30 624,-30 624,-27 627,-24 630,-24 630,-24 710,-24 710,-24 713,-24 716,-27 716,-30 716,-30 716,-36 716,-36 716,-39 713,-42 710,-42"/>
<text text-anchor="start" x="632" y="-30.8" font-family="Helvetica,sans-Serif" font-size="9.00" fill="white">Projects.model.js</text>
</a>
</g>
</g>
<!-- app/models/index.js&#45;&gt;app/models/Projects.model.js -->
<g id="edge18" class="edge">
<title>app/models/index.js&#45;&gt;app/models/Projects.model.js</title>
<path fill="none" stroke="white" d="M763.32,-65.91C744.61,-59.51 718.42,-50.55 698.55,-43.76"/>
<polygon fill="white" stroke="white" points="693.64,-42.08 699.1,-41.57 696.01,-42.89 698.37,-43.7 698.37,-43.7 698.37,-43.7 696.01,-42.89 697.64,-45.83 693.64,-42.08 693.64,-42.08"/>
</g>
<!-- app/models/Salary_period.model.js -->
<g id="node26" class="node">
<title>app/models/Salary_period.model.js</title>
<g id="a_node26"><a xlink:href="app/models/Salary_period.model.js" xlink:title="Salary_period.model.js">
<path fill="#ffffff" fill-opacity="0.200000" stroke="white" d="M840,-42C840,-42 734,-42 734,-42 731,-42 728,-39 728,-36 728,-36 728,-30 728,-30 728,-27 731,-24 734,-24 734,-24 840,-24 840,-24 843,-24 846,-27 846,-30 846,-30 846,-36 846,-36 846,-39 843,-42 840,-42"/>
<text text-anchor="start" x="736" y="-30.8" font-family="Helvetica,sans-Serif" font-size="9.00" fill="white">Salary_period.model.js</text>
</a>
</g>
</g>
<!-- app/models/index.js&#45;&gt;app/models/Salary_period.model.js -->
<g id="edge19" class="edge">
<title>app/models/index.js&#45;&gt;app/models/Salary_period.model.js</title>
<path fill="none" stroke="white" d="M787,-65.91C787,-60.59 787,-53.52 787,-47.38"/>
<polygon fill="white" stroke="white" points="787,-42.08 789.25,-47.08 787,-44.58 787,-47.08 787,-47.08 787,-47.08 787,-44.58 784.75,-47.08 787,-42.08 787,-42.08"/>
</g>
<!-- app/models/Schedule.model.js -->
<g id="node27" class="node">
<title>app/models/Schedule.model.js</title>
<g id="a_node27"><a xlink:href="app/models/Schedule.model.js" xlink:title="Schedule.model.js">
<path fill="#ffffff" fill-opacity="0.200000" stroke="white" d="M951.5,-42C951.5,-42 864.5,-42 864.5,-42 861.5,-42 858.5,-39 858.5,-36 858.5,-36 858.5,-30 858.5,-30 858.5,-27 861.5,-24 864.5,-24 864.5,-24 951.5,-24 951.5,-24 954.5,-24 957.5,-27 957.5,-30 957.5,-30 957.5,-36 957.5,-36 957.5,-39 954.5,-42 951.5,-42"/>
<text text-anchor="start" x="866.5" y="-30.8" font-family="Helvetica,sans-Serif" font-size="9.00" fill="white">Schedule.model.js</text>
</a>
</g>
</g>
<!-- app/models/index.js&#45;&gt;app/models/Schedule.model.js -->
<g id="edge20" class="edge">
<title>app/models/index.js&#45;&gt;app/models/Schedule.model.js</title>
<path fill="none" stroke="white" d="M811.49,-65.91C830.92,-59.48 858.15,-50.48 878.74,-43.67"/>
<polygon fill="white" stroke="white" points="883.55,-42.08 879.51,-45.79 881.18,-42.87 878.8,-43.65 878.8,-43.65 878.8,-43.65 881.18,-42.87 878.1,-41.52 883.55,-42.08 883.55,-42.08"/>
</g>
<!-- app/models/Tasks.model.js -->
<g id="node28" class="node">
<title>app/models/Tasks.model.js</title>
<g id="a_node28"><a xlink:href="app/models/Tasks.model.js" xlink:title="Tasks.model.js">
<path fill="#ffffff" fill-opacity="0.200000" stroke="white" d="M1044,-42C1044,-42 976,-42 976,-42 973,-42 970,-39 970,-36 970,-36 970,-30 970,-30 970,-27 973,-24 976,-24 976,-24 1044,-24 1044,-24 1047,-24 1050,-27 1050,-30 1050,-30 1050,-36 1050,-36 1050,-39 1047,-42 1044,-42"/>
<text text-anchor="start" x="978" y="-30.8" font-family="Helvetica,sans-Serif" font-size="9.00" fill="white">Tasks.model.js</text>
</a>
</g>
</g>
<!-- app/models/index.js&#45;&gt;app/models/Tasks.model.js -->
<g id="edge21" class="edge">
<title>app/models/index.js&#45;&gt;app/models/Tasks.model.js</title>
<path fill="none" stroke="white" d="M814.34,-69.1C851.86,-62.37 919.76,-50.19 964.88,-42.09"/>
<polygon fill="white" stroke="white" points="969.99,-41.18 965.46,-44.27 967.53,-41.62 965.07,-42.06 965.07,-42.06 965.07,-42.06 967.53,-41.62 964.67,-39.85 969.99,-41.18 969.99,-41.18"/>
</g>
<!-- app/models/Transaction_status.model.js -->
<g id="node29" class="node">
<title>app/models/Transaction_status.model.js</title>
<g id="a_node29"><a xlink:href="app/models/Transaction_status.model.js" xlink:title="Transaction_status.model.js">
<path fill="#ffffff" fill-opacity="0.200000" stroke="white" d="M1294.5,-42C1294.5,-42 1165.5,-42 1165.5,-42 1162.5,-42 1159.5,-39 1159.5,-36 1159.5,-36 1159.5,-30 1159.5,-30 1159.5,-27 1162.5,-24 1165.5,-24 1165.5,-24 1294.5,-24 1294.5,-24 1297.5,-24 1300.5,-27 1300.5,-30 1300.5,-30 1300.5,-36 1300.5,-36 1300.5,-39 1297.5,-42 1294.5,-42"/>
<text text-anchor="start" x="1167.5" y="-30.8" font-family="Helvetica,sans-Serif" font-size="9.00" fill="white">Transaction_status.model.js</text>
</a>
</g>
</g>
<!-- app/models/index.js&#45;&gt;app/models/Transaction_status.model.js -->
<g id="edge23" class="edge">
<title>app/models/index.js&#45;&gt;app/models/Transaction_status.model.js</title>
<path fill="none" stroke="white" d="M814.1,-71.78C874.81,-66.78 1026.33,-54.12 1153,-42 1153.25,-41.98 1153.5,-41.95 1153.75,-41.93"/>
<polygon fill="white" stroke="white" points="1159.1,-41.41 1154.34,-44.13 1156.61,-41.65 1154.12,-41.89 1154.12,-41.89 1154.12,-41.89 1156.61,-41.65 1153.9,-39.65 1159.1,-41.41 1159.1,-41.41"/>
</g>
<!-- app/models/Transaction_type.model.js -->
<g id="node30" class="node">
<title>app/models/Transaction_type.model.js</title>
<g id="a_node30"><a xlink:href="app/models/Transaction_type.model.js" xlink:title="Transaction_type.model.js">
<path fill="#ffffff" fill-opacity="0.200000" stroke="white" d="M1441,-42C1441,-42 1319,-42 1319,-42 1316,-42 1313,-39 1313,-36 1313,-36 1313,-30 1313,-30 1313,-27 1316,-24 1319,-24 1319,-24 1441,-24 1441,-24 1444,-24 1447,-27 1447,-30 1447,-30 1447,-36 1447,-36 1447,-39 1444,-42 1441,-42"/>
<text text-anchor="start" x="1321" y="-30.8" font-family="Helvetica,sans-Serif" font-size="9.00" fill="white">Transaction_type.model.js</text>
</a>
</g>
</g>
<!-- app/models/index.js&#45;&gt;app/models/Transaction_type.model.js -->
<g id="edge24" class="edge">
<title>app/models/index.js&#45;&gt;app/models/Transaction_type.model.js</title>
<path fill="none" stroke="white" d="M814.05,-72.77C891.05,-69.19 1118,-57.95 1306,-42 1306.55,-41.95 1307.1,-41.91 1307.65,-41.86"/>
<polygon fill="white" stroke="white" points="1312.66,-41.41 1307.88,-44.1 1310.17,-41.63 1307.68,-41.86 1307.68,-41.86 1307.68,-41.86 1310.17,-41.63 1307.48,-39.61 1312.66,-41.41 1312.66,-41.41"/>
</g>
<!-- app/models/teams.model.js -->
<g id="node31" class="node">
<title>app/models/teams.model.js</title>
<g id="a_node31"><a xlink:href="app/models/teams.model.js" xlink:title="teams.model.js">
<path fill="#ffffff" fill-opacity="0.200000" stroke="white" d="M1141.5,-42C1141.5,-42 1068.5,-42 1068.5,-42 1065.5,-42 1062.5,-39 1062.5,-36 1062.5,-36 1062.5,-30 1062.5,-30 1062.5,-27 1065.5,-24 1068.5,-24 1068.5,-24 1141.5,-24 1141.5,-24 1144.5,-24 1147.5,-27 1147.5,-30 1147.5,-30 1147.5,-36 1147.5,-36 1147.5,-39 1144.5,-42 1141.5,-42"/>
<text text-anchor="start" x="1070.5" y="-30.8" font-family="Helvetica,sans-Serif" font-size="9.00" fill="white">teams.model.js</text>
</a>
</g>
</g>
<!-- app/models/index.js&#45;&gt;app/models/teams.model.js -->
<g id="edge22" class="edge">
<title>app/models/index.js&#45;&gt;app/models/teams.model.js</title>
<path fill="none" stroke="white" d="M814.16,-71.16C862.75,-66 967.75,-54.45 1056,-42 1056.38,-41.95 1056.77,-41.89 1057.16,-41.84"/>
<polygon fill="white" stroke="white" points="1062.26,-41.09 1057.64,-44.04 1059.78,-41.45 1057.31,-41.81 1057.31,-41.81 1057.31,-41.81 1059.78,-41.45 1056.99,-39.59 1062.26,-41.09 1062.26,-41.09"/>
</g>
<!-- app/controllers/graphToken.controller.js -->
<g id="node5" class="node">
<title>app/controllers/graphToken.controller.js</title>
<g id="a_node5"><a xlink:href="app/controllers/graphToken.controller.js" xlink:title="graphToken.controller.js">
<path fill="#ffffff" fill-opacity="0.200000" stroke="white" d="M1695,-144C1695,-144 1583,-144 1583,-144 1580,-144 1577,-141 1577,-138 1577,-138 1577,-132 1577,-132 1577,-129 1580,-126 1583,-126 1583,-126 1695,-126 1695,-126 1698,-126 1701,-129 1701,-132 1701,-132 1701,-138 1701,-138 1701,-141 1698,-144 1695,-144"/>
<text text-anchor="start" x="1585" y="-132.8" font-family="Helvetica,sans-Serif" font-size="9.00" fill="white">graphToken.controller.js</text>
</a>
</g>
</g>
<!-- app/controllers/hours.controller.js -->
<g id="node6" class="node">
<title>app/controllers/hours.controller.js</title>
<g id="a_node6"><a xlink:href="app/controllers/hours.controller.js" xlink:title="hours.controller.js">
<path fill="#ffffff" fill-opacity="0.200000" stroke="white" d="M1559.5,-144C1559.5,-144 1474.5,-144 1474.5,-144 1471.5,-144 1468.5,-141 1468.5,-138 1468.5,-138 1468.5,-132 1468.5,-132 1468.5,-129 1471.5,-126 1474.5,-126 1474.5,-126 1559.5,-126 1559.5,-126 1562.5,-126 1565.5,-129 1565.5,-132 1565.5,-132 1565.5,-138 1565.5,-138 1565.5,-141 1562.5,-144 1559.5,-144"/>
<text text-anchor="start" x="1476.5" y="-132.8" font-family="Helvetica,sans-Serif" font-size="9.00" fill="white">hours.controller.js</text>
</a>
</g>
</g>
<!-- app/controllers/hours.controller.js&#45;&gt;app/models/index.js -->
<g id="edge2" class="edge">
<title>app/controllers/hours.controller.js&#45;&gt;app/models/index.js</title>
<path fill="none" stroke="white" d="M1493.72,-125.99C1484.02,-122.98 1472.58,-119.84 1462,-118 1217.68,-75.4 917.02,-74.51 819.31,-75.5"/>
<polygon fill="white" stroke="white" points="814.26,-75.55 819.23,-73.25 816.76,-75.52 819.26,-75.5 819.26,-75.5 819.26,-75.5 816.76,-75.52 819.28,-77.75 814.26,-75.55 814.26,-75.55"/>
</g>
<!-- app/controllers/ledger.controller.js -->
<g id="node7" class="node">
<title>app/controllers/ledger.controller.js</title>
<g id="a_node7"><a xlink:href="app/controllers/ledger.controller.js" xlink:title="ledger.controller.js">
<path fill="#ffffff" fill-opacity="0.200000" stroke="white" d="M1450.5,-144C1450.5,-144 1363.5,-144 1363.5,-144 1360.5,-144 1357.5,-141 1357.5,-138 1357.5,-138 1357.5,-132 1357.5,-132 1357.5,-129 1360.5,-126 1363.5,-126 1363.5,-126 1450.5,-126 1450.5,-126 1453.5,-126 1456.5,-129 1456.5,-132 1456.5,-132 1456.5,-138 1456.5,-138 1456.5,-141 1453.5,-144 1450.5,-144"/>
<text text-anchor="start" x="1365.5" y="-132.8" font-family="Helvetica,sans-Serif" font-size="9.00" fill="white">ledger.controller.js</text>
</a>
</g>
</g>
<!-- app/controllers/ledger.controller.js&#45;&gt;app/models/index.js -->
<g id="edge3" class="edge">
<title>app/controllers/ledger.controller.js&#45;&gt;app/models/index.js</title>
<path fill="none" stroke="white" d="M1383,-125.98C1373.18,-123 1361.65,-119.9 1351,-118 1151.22,-82.41 906.42,-76.91 819.5,-76.11"/>
<polygon fill="white" stroke="white" points="814.25,-76.07 819.27,-73.86 816.75,-76.09 819.25,-76.11 819.25,-76.11 819.25,-76.11 816.75,-76.09 819.23,-78.36 814.25,-76.07 814.25,-76.07"/>
</g>
<!-- app/controllers/locations.controller.js -->
<g id="node8" class="node">
<title>app/controllers/locations.controller.js</title>
<g id="a_node8"><a xlink:href="app/controllers/locations.controller.js" xlink:title="locations.controller.js">
<path fill="#ffffff" fill-opacity="0.200000" stroke="white" d="M1339.5,-144C1339.5,-144 1240.5,-144 1240.5,-144 1237.5,-144 1234.5,-141 1234.5,-138 1234.5,-138 1234.5,-132 1234.5,-132 1234.5,-129 1237.5,-126 1240.5,-126 1240.5,-126 1339.5,-126 1339.5,-126 1342.5,-126 1345.5,-129 1345.5,-132 1345.5,-132 1345.5,-138 1345.5,-138 1345.5,-141 1342.5,-144 1339.5,-144"/>
<text text-anchor="start" x="1242.5" y="-132.8" font-family="Helvetica,sans-Serif" font-size="9.00" fill="white">locations.controller.js</text>
</a>
</g>
</g>
<!-- app/controllers/locations.controller.js&#45;&gt;app/models/index.js -->
<g id="edge4" class="edge">
<title>app/controllers/locations.controller.js&#45;&gt;app/models/index.js</title>
<path fill="none" stroke="white" d="M1263.18,-125.96C1252.61,-123.06 1240.32,-120.01 1229,-118 1077.06,-91.04 892.46,-80.56 819.19,-77.27"/>
<polygon fill="white" stroke="white" points="814.11,-77.05 819.21,-75.02 816.61,-77.16 819.11,-77.27 819.11,-77.27 819.11,-77.27 816.61,-77.16 819.01,-79.52 814.11,-77.05 814.11,-77.05"/>
</g>
<!-- app/controllers/photo.controller.js -->
<g id="node9" class="node">
<title>app/controllers/photo.controller.js</title>
<g id="a_node9"><a xlink:href="app/controllers/photo.controller.js" xlink:title="photo.controller.js">
<path fill="#ffffff" fill-opacity="0.200000" stroke="white" d="M1217,-144C1217,-144 1131,-144 1131,-144 1128,-144 1125,-141 1125,-138 1125,-138 1125,-132 1125,-132 1125,-129 1128,-126 1131,-126 1131,-126 1217,-126 1217,-126 1220,-126 1223,-129 1223,-132 1223,-132 1223,-138 1223,-138 1223,-141 1220,-144 1217,-144"/>
<text text-anchor="start" x="1133" y="-132.8" font-family="Helvetica,sans-Serif" font-size="9.00" fill="white">photo.controller.js</text>
</a>
</g>
</g>
<!-- app/controllers/photo.controller.js&#45;&gt;app/models/index.js -->
<g id="edge5" class="edge">
<title>app/controllers/photo.controller.js&#45;&gt;app/models/index.js</title>
<path fill="none" stroke="white" d="M1148.83,-125.93C1139.26,-123.09 1128.2,-120.09 1118,-118 1009.76,-95.8 879.06,-83.37 819.46,-78.47"/>
<polygon fill="white" stroke="white" points="814.26,-78.05 819.43,-76.21 816.75,-78.25 819.24,-78.45 819.24,-78.45 819.24,-78.45 816.75,-78.25 819.06,-80.69 814.26,-78.05 814.26,-78.05"/>
</g>
<!-- app/controllers/preferences.controller.js -->
<g id="node10" class="node">
<title>app/controllers/preferences.controller.js</title>
<g id="a_node10"><a xlink:href="app/controllers/preferences.controller.js" xlink:title="preferences.controller.js">
<path fill="#ffffff" fill-opacity="0.200000" stroke="white" d="M1106.5,-144C1106.5,-144 993.5,-144 993.5,-144 990.5,-144 987.5,-141 987.5,-138 987.5,-138 987.5,-132 987.5,-132 987.5,-129 990.5,-126 993.5,-126 993.5,-126 1106.5,-126 1106.5,-126 1109.5,-126 1112.5,-129 1112.5,-132 1112.5,-132 1112.5,-138 1112.5,-138 1112.5,-141 1109.5,-144 1106.5,-144"/>
<text text-anchor="start" x="995.5" y="-132.8" font-family="Helvetica,sans-Serif" font-size="9.00" fill="white">preferences.controller.js</text>
</a>
</g>
</g>
<!-- app/controllers/preferences.controller.js&#45;&gt;app/models/index.js -->
<g id="edge6" class="edge">
<title>app/controllers/preferences.controller.js&#45;&gt;app/models/index.js</title>
<path fill="none" stroke="white" d="M1015.63,-125.93C1004.58,-123.36 992.28,-120.53 981,-118 924.04,-105.23 857.52,-90.97 819.03,-82.78"/>
<polygon fill="white" stroke="white" points="814.02,-81.72 819.38,-80.56 816.46,-82.24 818.91,-82.76 818.91,-82.76 818.91,-82.76 816.46,-82.24 818.44,-84.96 814.02,-81.72 814.02,-81.72"/>
</g>
<!-- app/controllers/procedures.controller.js -->
<g id="node11" class="node">
<title>app/controllers/procedures.controller.js</title>
<g id="a_node11"><a xlink:href="app/controllers/procedures.controller.js" xlink:title="procedures.controller.js">
<path fill="#ffffff" fill-opacity="0.200000" stroke="white" d="M969,-144C969,-144 859,-144 859,-144 856,-144 853,-141 853,-138 853,-138 853,-132 853,-132 853,-129 856,-126 859,-126 859,-126 969,-126 969,-126 972,-126 975,-129 975,-132 975,-132 975,-138 975,-138 975,-141 972,-144 969,-144"/>
<text text-anchor="start" x="861" y="-132.8" font-family="Helvetica,sans-Serif" font-size="9.00" fill="white">procedures.controller.js</text>
</a>
</g>
</g>
<!-- app/controllers/projects.controller.js -->
<g id="node12" class="node">
<title>app/controllers/projects.controller.js</title>
<g id="a_node12"><a xlink:href="app/controllers/projects.controller.js" xlink:title="projects.controller.js">
<path fill="#ffffff" fill-opacity="0.200000" stroke="white" d="M834.5,-144C834.5,-144 739.5,-144 739.5,-144 736.5,-144 733.5,-141 733.5,-138 733.5,-138 733.5,-132 733.5,-132 733.5,-129 736.5,-126 739.5,-126 739.5,-126 834.5,-126 834.5,-126 837.5,-126 840.5,-129 840.5,-132 840.5,-132 840.5,-138 840.5,-138 840.5,-141 837.5,-144 834.5,-144"/>
<text text-anchor="start" x="741.5" y="-132.8" font-family="Helvetica,sans-Serif" font-size="9.00" fill="white">projects.controller.js</text>
</a>
</g>
</g>
<!-- app/controllers/projects.controller.js&#45;&gt;app/models/index.js -->
<g id="edge7" class="edge">
<title>app/controllers/projects.controller.js&#45;&gt;app/models/index.js</title>
<path fill="none" stroke="white" d="M787,-125.94C787,-116.52 787,-100.8 787,-89.51"/>
<polygon fill="white" stroke="white" points="787,-84.37 789.25,-89.37 787,-86.87 787,-89.37 787,-89.37 787,-89.37 787,-86.87 784.75,-89.37 787,-84.37 787,-84.37"/>
</g>
<!-- app/controllers/reports.controller.js -->
<g id="node13" class="node">
<title>app/controllers/reports.controller.js</title>
<g id="a_node13"><a xlink:href="app/controllers/reports.controller.js" xlink:title="reports.controller.js">
<path fill="#ffffff" fill-opacity="0.200000" stroke="white" d="M715,-144C715,-144 623,-144 623,-144 620,-144 617,-141 617,-138 617,-138 617,-132 617,-132 617,-129 620,-126 623,-126 623,-126 715,-126 715,-126 718,-126 721,-129 721,-132 721,-132 721,-138 721,-138 721,-141 718,-144 715,-144"/>
<text text-anchor="start" x="625" y="-132.8" font-family="Helvetica,sans-Serif" font-size="9.00" fill="white">reports.controller.js</text>
</a>
</g>
</g>
<!-- app/controllers/reports.controller.js&#45;&gt;app/models/index.js -->
<g id="edge8" class="edge">
<title>app/controllers/reports.controller.js&#45;&gt;app/models/index.js</title>
<path fill="none" stroke="white" d="M685.41,-125.94C706.34,-115.65 742.58,-97.84 765.64,-86.5"/>
<polygon fill="white" stroke="white" points="770.35,-84.18 766.86,-88.41 768.11,-85.29 765.86,-86.39 765.86,-86.39 765.86,-86.39 768.11,-85.29 764.87,-84.37 770.35,-84.18 770.35,-84.18"/>
</g>
<!-- app/controllers/salary.controller.js -->
<g id="node14" class="node">
<title>app/controllers/salary.controller.js</title>
<g id="a_node14"><a xlink:href="app/controllers/salary.controller.js" xlink:title="salary.controller.js">
<path fill="#ffffff" fill-opacity="0.200000" stroke="white" d="M599,-144C599,-144 515,-144 515,-144 512,-144 509,-141 509,-138 509,-138 509,-132 509,-132 509,-129 512,-126 515,-126 515,-126 599,-126 599,-126 602,-126 605,-129 605,-132 605,-132 605,-138 605,-138 605,-141 602,-144 599,-144"/>
<text text-anchor="start" x="517" y="-132.8" font-family="Helvetica,sans-Serif" font-size="9.00" fill="white">salary.controller.js</text>
</a>
</g>
</g>
<!-- app/controllers/salary.controller.js&#45;&gt;app/models/index.js -->
<g id="edge9" class="edge">
<title>app/controllers/salary.controller.js&#45;&gt;app/models/index.js</title>
<path fill="none" stroke="white" d="M580.98,-125.97C590.27,-123.1 601.04,-120.07 611,-118 639.5,-112.07 647.53,-116.06 676,-110 705.14,-103.79 737.64,-93.42 759.9,-85.76"/>
<polygon fill="white" stroke="white" points="764.77,-84.07 760.78,-87.83 762.41,-84.89 760.04,-85.71 760.04,-85.71 760.04,-85.71 762.41,-84.89 759.31,-83.58 764.77,-84.07 764.77,-84.07"/>
</g>
<!-- app/controllers/schedule.controller.js -->
<g id="node15" class="node">
<title>app/controllers/schedule.controller.js</title>
<g id="a_node15"><a xlink:href="app/controllers/schedule.controller.js" xlink:title="schedule.controller.js">
<path fill="#ffffff" fill-opacity="0.200000" stroke="white" d="M491,-144C491,-144 391,-144 391,-144 388,-144 385,-141 385,-138 385,-138 385,-132 385,-132 385,-129 388,-126 391,-126 391,-126 491,-126 491,-126 494,-126 497,-129 497,-132 497,-132 497,-138 497,-138 497,-141 494,-144 491,-144"/>
<text text-anchor="start" x="393" y="-132.8" font-family="Helvetica,sans-Serif" font-size="9.00" fill="white">schedule.controller.js</text>
</a>
</g>
</g>
<!-- app/controllers/schedule.controller.js&#45;&gt;app/models/index.js -->
<g id="edge10" class="edge">
<title>app/controllers/schedule.controller.js&#45;&gt;app/models/index.js</title>
<path fill="none" stroke="white" d="M467.3,-125.93C478.24,-122.91 491.13,-119.79 503,-118 579.11,-106.54 600.16,-123.15 676,-110 705.91,-104.81 739.04,-93.96 761.26,-85.91"/>
<polygon fill="white" stroke="white" points="766.11,-84.13 762.18,-87.96 763.76,-84.99 761.41,-85.85 761.41,-85.85 761.41,-85.85 763.76,-84.99 760.64,-83.74 766.11,-84.13 766.11,-84.13"/>
</g>
<!-- app/controllers/supplements.controller.js -->
<g id="node16" class="node">
<title>app/controllers/supplements.controller.js</title>
<g id="a_node16"><a xlink:href="app/controllers/supplements.controller.js" xlink:title="supplements.controller.js">
<path fill="#ffffff" fill-opacity="0.200000" stroke="white" d="M367,-144C367,-144 249,-144 249,-144 246,-144 243,-141 243,-138 243,-138 243,-132 243,-132 243,-129 246,-126 249,-126 249,-126 367,-126 367,-126 370,-126 373,-129 373,-132 373,-132 373,-138 373,-138 373,-141 370,-144 367,-144"/>
<text text-anchor="start" x="251" y="-132.8" font-family="Helvetica,sans-Serif" font-size="9.00" fill="white">supplements.controller.js</text>
</a>
</g>
</g>
<!-- app/controllers/supplements.controller.js&#45;&gt;app/models/index.js -->
<g id="edge11" class="edge">
<title>app/controllers/supplements.controller.js&#45;&gt;app/models/index.js</title>
<path fill="none" stroke="white" d="M337.83,-125.92C350.43,-122.86 365.33,-119.71 379,-118 444.51,-109.82 610.84,-120.65 676,-110 706.14,-105.07 739.49,-94.06 761.69,-85.9"/>
<polygon fill="white" stroke="white" points="766.53,-84.1 762.63,-87.95 764.19,-84.97 761.85,-85.84 761.85,-85.84 761.85,-85.84 764.19,-84.97 761.06,-83.74 766.53,-84.1 766.53,-84.1"/>
</g>
<!-- app/controllers/tasks.controller.js -->
<g id="node17" class="node">
<title>app/controllers/tasks.controller.js</title>
<g id="a_node17"><a xlink:href="app/controllers/tasks.controller.js" xlink:title="tasks.controller.js">
<path fill="#ffffff" fill-opacity="0.200000" stroke="white" d="M224.5,-144C224.5,-144 141.5,-144 141.5,-144 138.5,-144 135.5,-141 135.5,-138 135.5,-138 135.5,-132 135.5,-132 135.5,-129 138.5,-126 141.5,-126 141.5,-126 224.5,-126 224.5,-126 227.5,-126 230.5,-129 230.5,-132 230.5,-132 230.5,-138 230.5,-138 230.5,-141 227.5,-144 224.5,-144"/>
<text text-anchor="start" x="143.5" y="-132.8" font-family="Helvetica,sans-Serif" font-size="9.00" fill="white">tasks.controller.js</text>
</a>
</g>
</g>
<!-- app/controllers/tasks.controller.js&#45;&gt;app/models/index.js -->
<g id="edge12" class="edge">
<title>app/controllers/tasks.controller.js&#45;&gt;app/models/index.js</title>
<path fill="none" stroke="white" d="M205.29,-125.92C214.91,-122.83 226.37,-119.64 237,-118 333.43,-103.12 579.64,-125.33 676,-110 706.35,-105.17 739.92,-94.04 762.11,-85.82"/>
<polygon fill="white" stroke="white" points="766.94,-84.01 763.05,-87.87 764.6,-84.88 762.26,-85.76 762.26,-85.76 762.26,-85.76 764.6,-84.88 761.47,-83.65 766.94,-84.01 766.94,-84.01"/>
</g>
<!-- app/controllers/teams.controller.js -->
<g id="node18" class="node">
<title>app/controllers/teams.controller.js</title>
<g id="a_node18"><a xlink:href="app/controllers/teams.controller.js" xlink:title="teams.controller.js">
<path fill="#ffffff" fill-opacity="0.200000" stroke="white" d="M117.5,-144C117.5,-144 30.5,-144 30.5,-144 27.5,-144 24.5,-141 24.5,-138 24.5,-138 24.5,-132 24.5,-132 24.5,-129 27.5,-126 30.5,-126 30.5,-126 117.5,-126 117.5,-126 120.5,-126 123.5,-129 123.5,-132 123.5,-132 123.5,-138 123.5,-138 123.5,-141 120.5,-144 117.5,-144"/>
<text text-anchor="start" x="32.5" y="-132.8" font-family="Helvetica,sans-Serif" font-size="9.00" fill="white">teams.controller.js</text>
</a>
</g>
</g>
<!-- app/controllers/teams.controller.js&#45;&gt;app/models/index.js -->
<g id="edge13" class="edge">
<title>app/controllers/teams.controller.js&#45;&gt;app/models/index.js</title>
<path fill="none" stroke="white" d="M96.44,-125.99C106.29,-122.86 118.08,-119.64 129,-118 249.22,-99.97 555.91,-128.88 676,-110 706.36,-105.23 739.93,-94.08 762.12,-85.84"/>
<polygon fill="white" stroke="white" points="766.95,-84.03 763.06,-87.89 764.61,-84.91 762.27,-85.79 762.27,-85.79 762.27,-85.79 764.61,-84.91 761.48,-83.68 766.95,-84.03 766.95,-84.03"/>
</g>
<!-- app/models/Forecast.model.js -->
<g id="node19" class="node">
<title>app/models/Forecast.model.js</title>
<g id="a_node19"><a xlink:href="app/models/Forecast.model.js" xlink:title="no&#45;orphans">
<path fill="#ccffcc" stroke="orange" d="M664.5,-84C664.5,-84 581.5,-84 581.5,-84 578.5,-84 575.5,-81 575.5,-78 575.5,-78 575.5,-72 575.5,-72 575.5,-69 578.5,-66 581.5,-66 581.5,-66 664.5,-66 664.5,-66 667.5,-66 670.5,-69 670.5,-72 670.5,-72 670.5,-78 670.5,-78 670.5,-81 667.5,-84 664.5,-84"/>
<text text-anchor="start" x="583.5" y="-72.8" font-family="Helvetica,sans-Serif" font-size="9.00" fill="orange">Forecast.model.js</text>
</a>
</g>
</g>
<!-- app/models/Preferences.model.js -->
<g id="node24" class="node">
<title>app/models/Preferences.model.js</title>
<g id="a_node24"><a xlink:href="app/models/Preferences.model.js" xlink:title="no&#45;orphans">
<path fill="#ccffcc" stroke="orange" d="M404,-84C404,-84 306,-84 306,-84 303,-84 300,-81 300,-78 300,-78 300,-72 300,-72 300,-69 303,-66 306,-66 306,-66 404,-66 404,-66 407,-66 410,-69 410,-72 410,-72 410,-78 410,-78 410,-81 407,-84 404,-84"/>
<text text-anchor="start" x="308" y="-72.8" font-family="Helvetica,sans-Serif" font-size="9.00" fill="orange">Preferences.model.js</text>
</a>
</g>
</g>
<!-- app/routes/Emply.routes.js -->
<g id="node32" class="node">
<title>app/routes/Emply.routes.js</title>
<g id="a_node32"><a xlink:href="app/routes/Emply.routes.js" xlink:title="Emply.routes.js">
<path fill="#ffffff" fill-opacity="0.200000" stroke="white" d="M1846.5,-204C1846.5,-204 1773.5,-204 1773.5,-204 1770.5,-204 1767.5,-201 1767.5,-198 1767.5,-198 1767.5,-192 1767.5,-192 1767.5,-189 1770.5,-186 1773.5,-186 1773.5,-186 1846.5,-186 1846.5,-186 1849.5,-186 1852.5,-189 1852.5,-192 1852.5,-192 1852.5,-198 1852.5,-198 1852.5,-201 1849.5,-204 1846.5,-204"/>
<text text-anchor="start" x="1775.5" y="-192.8" font-family="Helvetica,sans-Serif" font-size="9.00" fill="white">Emply.routes.js</text>
</a>
</g>
</g>
<!-- app/routes/Emply.routes.js&#45;&gt;app/controllers/Emply.controller.js -->
<g id="edge25" class="edge">
<title>app/routes/Emply.routes.js&#45;&gt;app/controllers/Emply.controller.js</title>
<path fill="none" stroke="white" d="M1820.01,-185.94C1832.34,-176.01 1853.37,-159.07 1867.47,-147.7"/>
<polygon fill="white" stroke="white" points="1871.61,-144.37 1869.13,-149.26 1869.66,-145.94 1867.71,-147.51 1867.71,-147.51 1867.71,-147.51 1869.66,-145.94 1866.3,-145.76 1871.61,-144.37 1871.61,-144.37"/>
</g>
<!-- app/routes/GraphToken.routes.js -->
<g id="node33" class="node">
<title>app/routes/GraphToken.routes.js</title>
<g id="a_node33"><a xlink:href="app/routes/GraphToken.routes.js" xlink:title="GraphToken.routes.js">
<path fill="#ffffff" fill-opacity="0.200000" stroke="white" d="M1642.5,-204C1642.5,-204 1543.5,-204 1543.5,-204 1540.5,-204 1537.5,-201 1537.5,-198 1537.5,-198 1537.5,-192 1537.5,-192 1537.5,-189 1540.5,-186 1543.5,-186 1543.5,-186 1642.5,-186 1642.5,-186 1645.5,-186 1648.5,-189 1648.5,-192 1648.5,-192 1648.5,-198 1648.5,-198 1648.5,-201 1645.5,-204 1642.5,-204"/>
<text text-anchor="start" x="1545.5" y="-192.8" font-family="Helvetica,sans-Serif" font-size="9.00" fill="white">GraphToken.routes.js</text>
</a>
</g>
</g>
<!-- app/routes/GraphToken.routes.js&#45;&gt;app/controllers/graphToken.controller.js -->
<g id="edge26" class="edge">
<title>app/routes/GraphToken.routes.js&#45;&gt;app/controllers/graphToken.controller.js</title>
<path fill="none" stroke="white" d="M1599.4,-185.94C1607.14,-176.18 1620.25,-159.65 1629.25,-148.3"/>
<polygon fill="white" stroke="white" points="1632.36,-144.37 1631.02,-149.69 1630.81,-146.33 1629.25,-148.29 1629.25,-148.29 1629.25,-148.29 1630.81,-146.33 1627.49,-146.89 1632.36,-144.37 1632.36,-144.37"/>
</g>
<!-- app/routes/forecast.routes.js -->
<g id="node34" class="node">
<title>app/routes/forecast.routes.js</title>
<g id="a_node34"><a xlink:href="app/routes/forecast.routes.js" xlink:title="forecast.routes.js">
<path fill="#ffffff" fill-opacity="0.200000" stroke="white" d="M1749,-204C1749,-204 1667,-204 1667,-204 1664,-204 1661,-201 1661,-198 1661,-198 1661,-192 1661,-192 1661,-189 1664,-186 1667,-186 1667,-186 1749,-186 1749,-186 1752,-186 1755,-189 1755,-192 1755,-192 1755,-198 1755,-198 1755,-201 1752,-204 1749,-204"/>
<text text-anchor="start" x="1669" y="-192.8" font-family="Helvetica,sans-Serif" font-size="9.00" fill="white">forecast.routes.js</text>
</a>
</g>
</g>
<!-- app/routes/forecast.routes.js&#45;&gt;app/controllers/forecast.controller.js -->
<g id="edge27" class="edge">
<title>app/routes/forecast.routes.js&#45;&gt;app/controllers/forecast.controller.js</title>
<path fill="none" stroke="white" d="M1716.2,-185.94C1726.22,-176.09 1743.24,-159.36 1754.79,-148"/>
<polygon fill="white" stroke="white" points="1758.48,-144.37 1756.5,-149.48 1756.7,-146.12 1754.92,-147.88 1754.92,-147.88 1754.92,-147.88 1756.7,-146.12 1753.34,-146.27 1758.48,-144.37 1758.48,-144.37"/>
</g>
<!-- app/routes/hours.routes.js -->
<g id="node35" class="node">
<title>app/routes/hours.routes.js</title>
<g id="a_node35"><a xlink:href="app/routes/hours.routes.js" xlink:title="hours.routes.js">
<path fill="#ffffff" fill-opacity="0.200000" stroke="white" d="M1519.5,-204C1519.5,-204 1448.5,-204 1448.5,-204 1445.5,-204 1442.5,-201 1442.5,-198 1442.5,-198 1442.5,-192 1442.5,-192 1442.5,-189 1445.5,-186 1448.5,-186 1448.5,-186 1519.5,-186 1519.5,-186 1522.5,-186 1525.5,-189 1525.5,-192 1525.5,-192 1525.5,-198 1525.5,-198 1525.5,-201 1522.5,-204 1519.5,-204"/>
<text text-anchor="start" x="1450.5" y="-192.8" font-family="Helvetica,sans-Serif" font-size="9.00" fill="white">hours.routes.js</text>
</a>
</g>
</g>
<!-- app/routes/hours.routes.js&#45;&gt;app/controllers/hours.controller.js -->
<g id="edge28" class="edge">
<title>app/routes/hours.routes.js&#45;&gt;app/controllers/hours.controller.js</title>
<path fill="none" stroke="white" d="M1488.59,-185.94C1494.04,-176.35 1503.22,-160.23 1509.66,-148.9"/>
<polygon fill="white" stroke="white" points="1512.24,-144.37 1511.72,-149.83 1511,-146.54 1509.76,-148.72 1509.76,-148.72 1509.76,-148.72 1511,-146.54 1507.81,-147.6 1512.24,-144.37 1512.24,-144.37"/>
</g>
<!-- app/routes/ledger.routes.js -->
<g id="node36" class="node">
<title>app/routes/ledger.routes.js</title>
<g id="a_node36"><a xlink:href="app/routes/ledger.routes.js" xlink:title="ledger.routes.js">
<path fill="#ffffff" fill-opacity="0.200000" stroke="white" d="M1424,-204C1424,-204 1350,-204 1350,-204 1347,-204 1344,-201 1344,-198 1344,-198 1344,-192 1344,-192 1344,-189 1347,-186 1350,-186 1350,-186 1424,-186 1424,-186 1427,-186 1430,-189 1430,-192 1430,-192 1430,-198 1430,-198 1430,-201 1427,-204 1424,-204"/>
<text text-anchor="start" x="1352" y="-192.8" font-family="Helvetica,sans-Serif" font-size="9.00" fill="white">ledger.routes.js</text>
</a>
</g>
</g>
<!-- app/routes/ledger.routes.js&#45;&gt;app/controllers/ledger.controller.js -->
<g id="edge29" class="edge">
<title>app/routes/ledger.routes.js&#45;&gt;app/controllers/ledger.controller.js</title>
<path fill="none" stroke="white" d="M1389.78,-185.94C1393.06,-176.43 1398.55,-160.51 1402.45,-149.2"/>
<polygon fill="white" stroke="white" points="1404.11,-144.37 1404.61,-149.83 1403.3,-146.74 1402.48,-149.1 1402.48,-149.1 1402.48,-149.1 1403.3,-146.74 1400.36,-148.37 1404.11,-144.37 1404.11,-144.37"/>
</g>
<!-- app/routes/locations.routes.js -->
<g id="node37" class="node">
<title>app/routes/locations.routes.js</title>
<g id="a_node37"><a xlink:href="app/routes/locations.routes.js" xlink:title="locations.routes.js">
<path fill="#ffffff" fill-opacity="0.200000" stroke="white" d="M1326,-204C1326,-204 1240,-204 1240,-204 1237,-204 1234,-201 1234,-198 1234,-198 1234,-192 1234,-192 1234,-189 1237,-186 1240,-186 1240,-186 1326,-186 1326,-186 1329,-186 1332,-189 1332,-192 1332,-192 1332,-198 1332,-198 1332,-201 1329,-204 1326,-204"/>
<text text-anchor="start" x="1242" y="-192.8" font-family="Helvetica,sans-Serif" font-size="9.00" fill="white">locations.routes.js</text>
</a>
</g>
</g>
<!-- app/routes/locations.routes.js&#45;&gt;app/controllers/locations.controller.js -->
<g id="edge30" class="edge">
<title>app/routes/locations.routes.js&#45;&gt;app/controllers/locations.controller.js</title>
<path fill="none" stroke="white" d="M1283.97,-185.94C1285.11,-176.52 1287.01,-160.8 1288.37,-149.51"/>
<polygon fill="white" stroke="white" points="1288.99,-144.37 1290.62,-149.61 1288.69,-146.85 1288.39,-149.34 1288.39,-149.34 1288.39,-149.34 1288.69,-146.85 1286.16,-149.07 1288.99,-144.37 1288.99,-144.37"/>
</g>
<!-- app/routes/photo.routes.js -->
<g id="node38" class="node">
<title>app/routes/photo.routes.js</title>
<g id="a_node38"><a xlink:href="app/routes/photo.routes.js" xlink:title="photo.routes.js">
<path fill="#ffffff" fill-opacity="0.200000" stroke="white" d="M1216,-204C1216,-204 1144,-204 1144,-204 1141,-204 1138,-201 1138,-198 1138,-198 1138,-192 1138,-192 1138,-189 1141,-186 1144,-186 1144,-186 1216,-186 1216,-186 1219,-186 1222,-189 1222,-192 1222,-192 1222,-198 1222,-198 1222,-201 1219,-204 1216,-204"/>
<text text-anchor="start" x="1146" y="-192.8" font-family="Helvetica,sans-Serif" font-size="9.00" fill="white">photo.routes.js</text>
</a>
</g>
</g>
<!-- app/routes/photo.routes.js&#45;&gt;app/controllers/photo.controller.js -->
<g id="edge31" class="edge">
<title>app/routes/photo.routes.js&#45;&gt;app/controllers/photo.controller.js</title>
<path fill="none" stroke="white" d="M1179.17,-185.94C1178.19,-176.52 1176.57,-160.8 1175.4,-149.51"/>
<polygon fill="white" stroke="white" points="1174.87,-144.37 1177.62,-149.11 1175.12,-146.86 1175.38,-149.35 1175.38,-149.35 1175.38,-149.35 1175.12,-146.86 1173.14,-149.58 1174.87,-144.37 1174.87,-144.37"/>
</g>
<!-- app/routes/preferences.routes.js -->
<g id="node39" class="node">
<title>app/routes/preferences.routes.js</title>
<g id="a_node39"><a xlink:href="app/routes/preferences.routes.js" xlink:title="preferences.routes.js">
<path fill="#ffffff" fill-opacity="0.200000" stroke="white" d="M1119.5,-204C1119.5,-204 1020.5,-204 1020.5,-204 1017.5,-204 1014.5,-201 1014.5,-198 1014.5,-198 1014.5,-192 1014.5,-192 1014.5,-189 1017.5,-186 1020.5,-186 1020.5,-186 1119.5,-186 1119.5,-186 1122.5,-186 1125.5,-189 1125.5,-192 1125.5,-192 1125.5,-198 1125.5,-198 1125.5,-201 1122.5,-204 1119.5,-204"/>
<text text-anchor="start" x="1022.5" y="-192.8" font-family="Helvetica,sans-Serif" font-size="9.00" fill="white">preferences.routes.js</text>
</a>
</g>
</g>
<!-- app/routes/preferences.routes.js&#45;&gt;app/controllers/preferences.controller.js -->
<g id="edge32" class="edge">
<title>app/routes/preferences.routes.js&#45;&gt;app/controllers/preferences.controller.js</title>
<path fill="none" stroke="white" d="M1067.22,-185.94C1063.94,-176.43 1058.45,-160.51 1054.55,-149.2"/>
<polygon fill="white" stroke="white" points="1052.89,-144.37 1056.64,-148.37 1053.7,-146.74 1054.52,-149.1 1054.52,-149.1 1054.52,-149.1 1053.7,-146.74 1052.39,-149.83 1052.89,-144.37 1052.89,-144.37"/>
</g>
<!-- app/routes/procedure.routes.js -->
<g id="node40" class="node">
<title>app/routes/procedure.routes.js</title>
<g id="a_node40"><a xlink:href="app/routes/procedure.routes.js" xlink:title="procedure.routes.js">
<path fill="#ffffff" fill-opacity="0.200000" stroke="white" d="M996,-204C996,-204 904,-204 904,-204 901,-204 898,-201 898,-198 898,-198 898,-192 898,-192 898,-189 901,-186 904,-186 904,-186 996,-186 996,-186 999,-186 1002,-189 1002,-192 1002,-192 1002,-198 1002,-198 1002,-201 999,-204 996,-204"/>
<text text-anchor="start" x="906" y="-192.8" font-family="Helvetica,sans-Serif" font-size="9.00" fill="white">procedure.routes.js</text>
</a>
</g>
</g>
<!-- app/routes/procedure.routes.js&#45;&gt;app/controllers/procedures.controller.js -->
<g id="edge33" class="edge">
<title>app/routes/procedure.routes.js&#45;&gt;app/controllers/procedures.controller.js</title>
<path fill="none" stroke="white" d="M944.99,-185.94C939.04,-176.35 929.04,-160.23 922.01,-148.9"/>
<polygon fill="white" stroke="white" points="919.2,-144.37 923.74,-147.43 920.51,-146.5 921.83,-148.62 921.83,-148.62 921.83,-148.62 920.51,-146.5 919.92,-149.81 919.2,-144.37 919.2,-144.37"/>
</g>
<!-- app/routes/projects.routes.js -->
<g id="node41" class="node">
<title>app/routes/projects.routes.js</title>
<g id="a_node41"><a xlink:href="app/routes/projects.routes.js" xlink:title="projects.routes.js">
<path fill="#ffffff" fill-opacity="0.200000" stroke="white" d="M880,-204C880,-204 798,-204 798,-204 795,-204 792,-201 792,-198 792,-198 792,-192 792,-192 792,-189 795,-186 798,-186 798,-186 880,-186 880,-186 883,-186 886,-189 886,-192 886,-192 886,-198 886,-198 886,-201 883,-204 880,-204"/>
<text text-anchor="start" x="800" y="-192.8" font-family="Helvetica,sans-Serif" font-size="9.00" fill="white">projects.routes.js</text>
</a>
</g>
</g>
<!-- app/routes/projects.routes.js&#45;&gt;app/controllers/projects.controller.js -->
<g id="edge34" class="edge">
<title>app/routes/projects.routes.js&#45;&gt;app/controllers/projects.controller.js</title>
<path fill="none" stroke="white" d="M831.77,-185.94C823.02,-176.18 808.2,-159.65 798.02,-148.3"/>
<polygon fill="white" stroke="white" points="794.51,-144.37 799.52,-146.59 796.17,-146.23 797.84,-148.09 797.84,-148.09 797.84,-148.09 796.17,-146.23 796.17,-149.6 794.51,-144.37 794.51,-144.37"/>
</g>
<!-- app/routes/reports.routes.js -->
<g id="node42" class="node">
<title>app/routes/reports.routes.js</title>
<g id="a_node42"><a xlink:href="app/routes/reports.routes.js" xlink:title="reports.routes.js">
<path fill="#ffffff" fill-opacity="0.200000" stroke="white" d="M774,-204C774,-204 696,-204 696,-204 693,-204 690,-201 690,-198 690,-198 690,-192 690,-192 690,-189 693,-186 696,-186 696,-186 774,-186 774,-186 777,-186 780,-189 780,-192 780,-192 780,-198 780,-198 780,-201 777,-204 774,-204"/>
<text text-anchor="start" x="698" y="-192.8" font-family="Helvetica,sans-Serif" font-size="9.00" fill="white">reports.routes.js</text>
</a>
</g>
</g>
<!-- app/routes/reports.routes.js&#45;&gt;app/controllers/reports.controller.js -->
<g id="edge35" class="edge">
<title>app/routes/reports.routes.js&#45;&gt;app/controllers/reports.controller.js</title>
<path fill="none" stroke="white" d="M725.82,-185.94C714.52,-176.01 695.25,-159.07 682.32,-147.7"/>
<polygon fill="white" stroke="white" points="678.53,-144.37 683.77,-145.98 680.4,-146.02 682.28,-147.67 682.28,-147.67 682.28,-147.67 680.4,-146.02 680.8,-149.36 678.53,-144.37 678.53,-144.37"/>
</g>
<!-- app/routes/salary.routes.js -->
<g id="node43" class="node">
<title>app/routes/salary.routes.js</title>
<g id="a_node43"><a xlink:href="app/routes/salary.routes.js" xlink:title="salary.routes.js">
<path fill="#ffffff" fill-opacity="0.200000" stroke="white" d="M671.5,-204C671.5,-204 600.5,-204 600.5,-204 597.5,-204 594.5,-201 594.5,-198 594.5,-198 594.5,-192 594.5,-192 594.5,-189 597.5,-186 600.5,-186 600.5,-186 671.5,-186 671.5,-186 674.5,-186 677.5,-189 677.5,-192 677.5,-192 677.5,-198 677.5,-198 677.5,-201 674.5,-204 671.5,-204"/>
<text text-anchor="start" x="602.5" y="-192.8" font-family="Helvetica,sans-Serif" font-size="9.00" fill="white">salary.routes.js</text>
</a>
</g>
</g>
<!-- app/routes/salary.routes.js&#45;&gt;app/controllers/salary.controller.js -->
<g id="edge36" class="edge">
<title>app/routes/salary.routes.js&#45;&gt;app/controllers/salary.controller.js</title>
<path fill="none" stroke="white" d="M625.02,-185.94C611.3,-175.86 587.75,-158.58 572.28,-147.22"/>
<polygon fill="white" stroke="white" points="568.15,-144.18 573.51,-145.33 570.16,-145.66 572.18,-147.14 572.18,-147.14 572.18,-147.14 570.16,-145.66 570.84,-148.96 568.15,-144.18 568.15,-144.18"/>
</g>
<!-- app/routes/schedule.routes.js -->
<g id="node44" class="node">
<title>app/routes/schedule.routes.js</title>
<g id="a_node44"><a xlink:href="app/routes/schedule.routes.js" xlink:title="schedule.routes.js">
<path fill="#ffffff" fill-opacity="0.200000" stroke="white" d="M576,-204C576,-204 490,-204 490,-204 487,-204 484,-201 484,-198 484,-198 484,-192 484,-192 484,-189 487,-186 490,-186 490,-186 576,-186 576,-186 579,-186 582,-189 582,-192 582,-192 582,-198 582,-198 582,-201 579,-204 576,-204"/>
<text text-anchor="start" x="492" y="-192.8" font-family="Helvetica,sans-Serif" font-size="9.00" fill="white">schedule.routes.js</text>
</a>
</g>
</g>
<!-- app/routes/schedule.routes.js&#45;&gt;app/controllers/schedule.controller.js -->
<g id="edge37" class="edge">
<title>app/routes/schedule.routes.js&#45;&gt;app/controllers/schedule.controller.js</title>
<path fill="none" stroke="white" d="M520.21,-185.94C504.1,-175.78 476.34,-158.28 458.34,-146.93"/>
<polygon fill="white" stroke="white" points="453.98,-144.18 459.41,-144.95 456.09,-145.52 458.21,-146.85 458.21,-146.85 458.21,-146.85 456.09,-145.52 457.01,-148.75 453.98,-144.18 453.98,-144.18"/>
</g>
<!-- app/routes/supplements.routes.js -->
<g id="node45" class="node">
<title>app/routes/supplements.routes.js</title>
<g id="a_node45"><a xlink:href="app/routes/supplements.routes.js" xlink:title="supplements.routes.js">
<path fill="#ffffff" fill-opacity="0.200000" stroke="white" d="M466,-204C466,-204 362,-204 362,-204 359,-204 356,-201 356,-198 356,-198 356,-192 356,-192 356,-189 359,-186 362,-186 362,-186 466,-186 466,-186 469,-186 472,-189 472,-192 472,-192 472,-198 472,-198 472,-201 469,-204 466,-204"/>
<text text-anchor="start" x="364" y="-192.8" font-family="Helvetica,sans-Serif" font-size="9.00" fill="white">supplements.routes.js</text>
</a>
</g>
</g>
<!-- app/routes/supplements.routes.js&#45;&gt;app/controllers/supplements.controller.js -->
<g id="edge38" class="edge">
<title>app/routes/supplements.routes.js&#45;&gt;app/controllers/supplements.controller.js</title>
<path fill="none" stroke="white" d="M399.26,-185.94C380.54,-175.69 348.18,-157.98 327.45,-146.64"/>
<polygon fill="white" stroke="white" points="322.96,-144.18 328.42,-144.61 325.15,-145.38 327.34,-146.58 327.34,-146.58 327.34,-146.58 325.15,-145.38 326.26,-148.56 322.96,-144.18 322.96,-144.18"/>
</g>
<!-- app/routes/tasks.routes.js -->
<g id="node46" class="node">
<title>app/routes/tasks.routes.js</title>
<g id="a_node46"><a xlink:href="app/routes/tasks.routes.js" xlink:title="tasks.routes.js">
<path fill="#ffffff" fill-opacity="0.200000" stroke="white" d="M337.5,-204C337.5,-204 268.5,-204 268.5,-204 265.5,-204 262.5,-201 262.5,-198 262.5,-198 262.5,-192 262.5,-192 262.5,-189 265.5,-186 268.5,-186 268.5,-186 337.5,-186 337.5,-186 340.5,-186 343.5,-189 343.5,-192 343.5,-192 343.5,-198 343.5,-198 343.5,-201 340.5,-204 337.5,-204"/>
<text text-anchor="start" x="270.5" y="-192.8" font-family="Helvetica,sans-Serif" font-size="9.00" fill="white">tasks.routes.js</text>
</a>
</g>
</g>
<!-- app/routes/tasks.routes.js&#45;&gt;app/controllers/tasks.controller.js -->
<g id="edge39" class="edge">
<title>app/routes/tasks.routes.js&#45;&gt;app/controllers/tasks.controller.js</title>
<path fill="none" stroke="white" d="M279.35,-185.99C263.69,-180.58 244.67,-173.75 237,-170 223.42,-163.35 208.97,-154.12 198.44,-146.96"/>
<polygon fill="white" stroke="white" points="194.18,-144.03 199.57,-145.01 196.24,-145.45 198.3,-146.87 198.3,-146.87 198.3,-146.87 196.24,-145.45 197.02,-148.72 194.18,-144.03 194.18,-144.03"/>
</g>
<!-- app/routes/teams.routes.js -->
<g id="node47" class="node">
<title>app/routes/teams.routes.js</title>
<g id="a_node47"><a xlink:href="app/routes/teams.routes.js" xlink:title="teams.routes.js">
<path fill="#ffffff" fill-opacity="0.200000" stroke="white" d="M244,-204C244,-204 170,-204 170,-204 167,-204 164,-201 164,-198 164,-198 164,-192 164,-192 164,-189 167,-186 170,-186 170,-186 244,-186 244,-186 247,-186 250,-189 250,-192 250,-192 250,-198 250,-198 250,-201 247,-204 244,-204"/>
<text text-anchor="start" x="172" y="-192.8" font-family="Helvetica,sans-Serif" font-size="9.00" fill="white">teams.routes.js</text>
</a>
</g>
</g>
<!-- app/routes/teams.routes.js&#45;&gt;app/controllers/teams.controller.js -->
<g id="edge40" class="edge">
<title>app/routes/teams.routes.js&#45;&gt;app/controllers/teams.controller.js</title>
<path fill="none" stroke="white" d="M174.44,-185.99C160.19,-181.97 143.45,-176.56 129,-170 115.05,-163.67 100.34,-154.42 89.64,-147.17"/>
<polygon fill="white" stroke="white" points="85.32,-144.2 90.72,-145.18 87.38,-145.61 89.44,-147.03 89.44,-147.03 89.44,-147.03 87.38,-145.61 88.17,-148.88 85.32,-144.2 85.32,-144.2"/>
</g>
<!-- config.js -->
<g id="node48" class="node">
<title>config.js</title>
<g id="a_node48"><a xlink:href="config.js" xlink:title="no&#45;orphans">
<path fill="#ccffcc" stroke="orange" d="M1371.5,-282C1371.5,-282 1328.5,-282 1328.5,-282 1325.5,-282 1322.5,-279 1322.5,-276 1322.5,-276 1322.5,-270 1322.5,-270 1322.5,-267 1325.5,-264 1328.5,-264 1328.5,-264 1371.5,-264 1371.5,-264 1374.5,-264 1377.5,-267 1377.5,-270 1377.5,-270 1377.5,-276 1377.5,-276 1377.5,-279 1374.5,-282 1371.5,-282"/>
<text text-anchor="middle" x="1350" y="-270.8" font-family="Helvetica,sans-Serif" font-size="9.00" fill="orange">config.js</text>
</a>
</g>
</g>
<!-- fs -->
<g id="node49" class="node">
<title>fs</title>
<g id="a_node49"><a xlink:title="fs">
<path fill="#ffffff" fill-opacity="0.200000" stroke="white" d="M2347,-42C2347,-42 2305,-42 2305,-42 2302,-42 2299,-39 2299,-36 2299,-36 2299,-30 2299,-30 2299,-27 2302,-24 2305,-24 2305,-24 2347,-24 2347,-24 2350,-24 2353,-27 2353,-30 2353,-30 2353,-36 2353,-36 2353,-39 2350,-42 2347,-42"/>
<text text-anchor="middle" x="2326" y="-30.8" font-family="Helvetica,sans-Serif" font-size="9.00" fill="white">fs</text>
</a>
</g>
</g>
<!-- index.js -->
<g id="node50" class="node">
<title>index.js</title>
<g id="a_node50"><a xlink:href="index.js" xlink:title="index.js">
<path fill="#ffffff" fill-opacity="0.200000" stroke="white" d="M1304,-282C1304,-282 1262,-282 1262,-282 1259,-282 1256,-279 1256,-276 1256,-276 1256,-270 1256,-270 1256,-267 1259,-264 1262,-264 1262,-264 1304,-264 1304,-264 1307,-264 1310,-267 1310,-270 1310,-270 1310,-276 1310,-276 1310,-279 1307,-282 1304,-282"/>
<text text-anchor="start" x="1265.5" y="-270.8" font-family="Helvetica,sans-Serif" font-size="9.00" fill="white">index.js</text>
</a>
</g>
</g>
<!-- index.js&#45;&gt;app/routes/Emply.routes.js -->
<g id="edge41" class="edge">
<title>index.js&#45;&gt;app/routes/Emply.routes.js</title>
<path fill="none" stroke="white" d="M1310.28,-264.9C1312.21,-264.55 1314.13,-264.24 1316,-264 1340.52,-260.85 1738.76,-266.8 1761,-256 1781.44,-246.08 1796.24,-223.13 1803.94,-208.66"/>
<polygon fill="white" stroke="white" points="1806.28,-204.11 1805.99,-209.59 1805.14,-206.34 1803.99,-208.56 1803.99,-208.56 1803.99,-208.56 1805.14,-206.34 1801.99,-207.53 1806.28,-204.11 1806.28,-204.11"/>
</g>
<!-- index.js&#45;&gt;app/routes/GraphToken.routes.js -->
<g id="edge43" class="edge">
<title>index.js&#45;&gt;app/routes/GraphToken.routes.js</title>
<path fill="none" stroke="white" d="M1310.29,-264.94C1312.21,-264.58 1314.13,-264.26 1316,-264 1339.68,-260.72 1509.01,-265.38 1531,-256 1554.47,-245.99 1574.16,-222.73 1584.71,-208.29"/>
<polygon fill="white" stroke="white" points="1587.68,-204.11 1586.62,-209.49 1586.23,-206.15 1584.78,-208.19 1584.78,-208.19 1584.78,-208.19 1586.23,-206.15 1582.95,-206.88 1587.68,-204.11 1587.68,-204.11"/>
</g>
<!-- index.js&#45;&gt;app/routes/forecast.routes.js -->
<g id="edge42" class="edge">
<title>index.js&#45;&gt;app/routes/forecast.routes.js</title>
<path fill="none" stroke="white" d="M1310.29,-264.91C1312.21,-264.56 1314.13,-264.25 1316,-264 1334.62,-261.55 1636.93,-263.84 1654,-256 1675.51,-246.11 1692.14,-223.15 1700.97,-208.68"/>
<polygon fill="white" stroke="white" points="1703.66,-204.12 1703.05,-209.57 1702.39,-206.27 1701.12,-208.43 1701.12,-208.43 1701.12,-208.43 1702.39,-206.27 1699.18,-207.28 1703.66,-204.12 1703.66,-204.12"/>
</g>
<!-- index.js&#45;&gt;app/routes/hours.routes.js -->
<g id="edge44" class="edge">
<title>index.js&#45;&gt;app/routes/hours.routes.js</title>
<path fill="none" stroke="white" d="M1310.3,-265C1312.22,-264.63 1314.14,-264.29 1316,-264 1342.42,-259.95 1412.31,-268.37 1436,-256 1455.76,-245.68 1470.18,-223.27 1477.8,-208.95"/>
<polygon fill="white" stroke="white" points="1480.13,-204.43 1479.84,-209.9 1478.99,-206.65 1477.84,-208.87 1477.84,-208.87 1477.84,-208.87 1478.99,-206.65 1475.84,-207.84 1480.13,-204.43 1480.13,-204.43"/>
</g>
<!-- index.js&#45;&gt;app/routes/ledger.routes.js -->
<g id="edge45" class="edge">
<title>index.js&#45;&gt;app/routes/ledger.routes.js</title>
<path fill="none" stroke="white" d="M1310.05,-264.9C1322.65,-261.45 1335.45,-257.69 1338,-256 1356.54,-243.73 1371.57,-222.29 1379.89,-208.64"/>
<polygon fill="white" stroke="white" points="1382.45,-204.33 1381.83,-209.78 1381.17,-206.48 1379.89,-208.63 1379.89,-208.63 1379.89,-208.63 1381.17,-206.48 1377.96,-207.48 1382.45,-204.33 1382.45,-204.33"/>
</g>
<!-- index.js&#45;&gt;app/routes/locations.routes.js -->
<g id="edge46" class="edge">
<title>index.js&#45;&gt;app/routes/locations.routes.js</title>
<path fill="none" stroke="white" d="M1283,-263.87C1283,-250.91 1283,-225.43 1283,-209.64"/>
<polygon fill="white" stroke="white" points="1283,-204.31 1285.25,-209.31 1283,-206.81 1283,-209.31 1283,-209.31 1283,-209.31 1283,-206.81 1280.75,-209.31 1283,-204.31 1283,-204.31"/>
</g>
<!-- index.js&#45;&gt;app/routes/photo.routes.js -->
<g id="edge47" class="edge">
<title>index.js&#45;&gt;app/routes/photo.routes.js</title>
<path fill="none" stroke="white" d="M1255.95,-265.76C1244.54,-262.79 1232.79,-259.21 1228,-256 1209.83,-243.85 1195.25,-222.67 1187.12,-209"/>
<polygon fill="white" stroke="white" points="1184.41,-204.33 1188.87,-207.53 1185.67,-206.49 1186.92,-208.66 1186.92,-208.66 1186.92,-208.66 1185.67,-206.49 1184.97,-209.78 1184.41,-204.33 1184.41,-204.33"/>
</g>
<!-- index.js&#45;&gt;app/routes/preferences.routes.js -->
<g id="edge48" class="edge">
<title>index.js&#45;&gt;app/routes/preferences.routes.js</title>
<path fill="none" stroke="white" d="M1255.98,-265.22C1253.63,-264.76 1251.28,-264.34 1249,-264 1223.23,-260.11 1155.81,-266.59 1132,-256 1108.68,-245.63 1088.94,-222.48 1078.34,-208.16"/>
<polygon fill="white" stroke="white" points="1075.35,-204.03 1080.11,-206.76 1076.82,-206.05 1078.28,-208.08 1078.28,-208.08 1078.28,-208.08 1076.82,-206.05 1076.46,-209.4 1075.35,-204.03 1075.35,-204.03"/>
</g>
<!-- index.js&#45;&gt;app/routes/procedure.routes.js -->
<g id="edge49" class="edge">
<title>index.js&#45;&gt;app/routes/procedure.routes.js</title>
<path fill="none" stroke="white" d="M1255.99,-265.14C1253.64,-264.69 1251.28,-264.3 1249,-264 1222.44,-260.47 1032.49,-266.87 1008,-256 985.63,-246.07 967.53,-223.13 957.81,-208.66"/>
<polygon fill="white" stroke="white" points="954.83,-204.11 959.45,-207.07 956.2,-206.21 957.57,-208.3 957.57,-208.3 957.57,-208.3 956.2,-206.21 955.68,-209.53 954.83,-204.11 954.83,-204.11"/>
</g>
<!-- index.js&#45;&gt;app/routes/projects.routes.js -->
<g id="edge50" class="edge">
<title>index.js&#45;&gt;app/routes/projects.routes.js</title>
<path fill="none" stroke="white" d="M1256,-265.11C1253.64,-264.67 1251.29,-264.29 1249,-264 1229.32,-261.49 909.99,-264.36 892,-256 870.71,-246.11 854.44,-223.15 845.84,-208.67"/>
<polygon fill="white" stroke="white" points="843.22,-204.12 847.66,-207.33 844.46,-206.29 845.71,-208.45 845.71,-208.45 845.71,-208.45 844.46,-206.29 843.76,-209.58 843.22,-204.12 843.22,-204.12"/>
</g>
<!-- index.js&#45;&gt;app/routes/salary.routes.js -->
<g id="edge51" class="edge">
<title>index.js&#45;&gt;app/routes/salary.routes.js</title>
<path fill="none" stroke="white" d="M1255.63,-265.02C1253.4,-264.62 1251.17,-264.27 1249,-264 1217.84,-260.16 712.2,-269.8 684,-256 663.76,-246.1 649.33,-223.14 641.86,-208.67"/>
<polygon fill="white" stroke="white" points="639.59,-204.12 643.84,-207.59 640.71,-206.36 641.82,-208.59 641.82,-208.59 641.82,-208.59 640.71,-206.36 639.81,-209.6 639.59,-204.12 639.59,-204.12"/>
</g>
<!-- index.js&#45;&gt;app/routes/schedule.routes.js -->
<g id="edge52" class="edge">
<title>index.js&#45;&gt;app/routes/schedule.routes.js</title>
<path fill="none" stroke="white" d="M1255.63,-265.02C1253.4,-264.61 1251.17,-264.26 1249,-264 1230.77,-261.77 604.76,-263.5 588,-256 566.21,-246.26 549.23,-223.25 540.2,-208.73"/>
<polygon fill="white" stroke="white" points="537.45,-204.16 541.95,-207.28 538.74,-206.3 540.03,-208.44 540.03,-208.44 540.03,-208.44 538.74,-206.3 538.1,-209.6 537.45,-204.16 537.45,-204.16"/>
</g>
<!-- index.js&#45;&gt;app/routes/supplements.routes.js -->
<g id="edge53" class="edge">
<title>index.js&#45;&gt;app/routes/supplements.routes.js</title>
<path fill="none" stroke="white" d="M1255.63,-265.01C1253.4,-264.61 1251.17,-264.26 1249,-264 1227.74,-261.42 497.88,-263.98 478,-256 453.92,-246.33 433.54,-222.96 422.61,-208.4"/>
<polygon fill="white" stroke="white" points="419.52,-204.19 424.29,-206.9 421,-206.21 422.48,-208.23 422.48,-208.23 422.48,-208.23 421,-206.21 420.66,-209.56 419.52,-204.19 419.52,-204.19"/>
</g>
<!-- index.js&#45;&gt;app/routes/tasks.routes.js -->
<g id="edge54" class="edge">
<title>index.js&#45;&gt;app/routes/tasks.routes.js</title>
<path fill="none" stroke="white" d="M1255.63,-265.01C1253.4,-264.61 1251.17,-264.26 1249,-264 1224.21,-261.01 372.4,-267.03 350,-256 329.95,-246.13 315.9,-223.16 308.66,-208.68"/>
<polygon fill="white" stroke="white" points="306.46,-204.12 310.66,-207.65 307.55,-206.38 308.63,-208.63 308.63,-208.63 308.63,-208.63 307.55,-206.38 306.6,-209.61 306.46,-204.12 306.46,-204.12"/>
</g>
<!-- index.js&#45;&gt;app/routes/teams.routes.js -->
<g id="edge55" class="edge">
<title>index.js&#45;&gt;app/routes/teams.routes.js</title>
<path fill="none" stroke="white" d="M1255.63,-265.01C1253.4,-264.61 1251.17,-264.26 1249,-264 1221.61,-260.71 280.87,-267.92 256,-256 235.52,-246.18 220.73,-223.2 213.04,-208.7"/>
<polygon fill="white" stroke="white" points="210.71,-204.14 214.99,-207.56 211.85,-206.36 212.99,-208.59 212.99,-208.59 212.99,-208.59 211.85,-206.36 210.98,-209.61 210.71,-204.14 210.71,-204.14"/>
</g>
<!-- lib/logger.js -->
<g id="node51" class="node">
<title>lib/logger.js</title>
<g id="a_node51"><a xlink:href="lib/logger.js" xlink:title="logger.js">
<path fill="#ffffff" fill-opacity="0.200000" stroke="white" d="M2495,-42C2495,-42 2453,-42 2453,-42 2450,-42 2447,-39 2447,-36 2447,-36 2447,-30 2447,-30 2447,-27 2450,-24 2453,-24 2453,-24 2495,-24 2495,-24 2498,-24 2501,-27 2501,-30 2501,-30 2501,-36 2501,-36 2501,-39 2498,-42 2495,-42"/>
<text text-anchor="start" x="2455" y="-30.8" font-family="Helvetica,sans-Serif" font-size="9.00" fill="white">logger.js</text>
</a>
</g>
</g>
<!-- index.js&#45;&gt;lib/logger.js -->
<g id="edge56" class="edge">
<title>index.js&#45;&gt;lib/logger.js</title>
<path fill="none" stroke="white" d="M1310.28,-264.87C1312.21,-264.53 1314.13,-264.23 1316,-264 1332.4,-261.98 2494.15,-267.52 2506,-256 2571.65,-192.17 2557.63,-126.94 2508,-50 2506.91,-48.31 2505.59,-46.8 2504.11,-45.44"/>
<polygon fill="white" stroke="white" points="2499.87,-42.2 2505.21,-43.45 2501.86,-43.72 2503.85,-45.24 2503.85,-45.24 2503.85,-45.24 2501.86,-43.72 2502.48,-47.03 2499.87,-42.2 2499.87,-42.2"/>
</g>
<!-- lib/startup.js -->
<g id="node52" class="node">
<title>lib/startup.js</title>
<g id="a_node52"><a xlink:href="lib/startup.js" xlink:title="startup.js">
<path fill="#ffffff" fill-opacity="0.200000" stroke="white" d="M2496.5,-84C2496.5,-84 2449.5,-84 2449.5,-84 2446.5,-84 2443.5,-81 2443.5,-78 2443.5,-78 2443.5,-72 2443.5,-72 2443.5,-69 2446.5,-66 2449.5,-66 2449.5,-66 2496.5,-66 2496.5,-66 2499.5,-66 2502.5,-69 2502.5,-72 2502.5,-72 2502.5,-78 2502.5,-78 2502.5,-81 2499.5,-84 2496.5,-84"/>
<text text-anchor="start" x="2451.5" y="-72.8" font-family="Helvetica,sans-Serif" font-size="9.00" fill="white">startup.js</text>
</a>
</g>
</g>
<!-- index.js&#45;&gt;lib/startup.js -->
<g id="edge57" class="edge">
<title>index.js&#45;&gt;lib/startup.js</title>
<path fill="none" stroke="white" d="M1310.28,-264.87C1312.21,-264.53 1314.13,-264.23 1316,-264 1332.1,-262.02 2472.57,-267.51 2484,-256 2529.23,-210.45 2494.96,-122.4 2479.51,-89.15"/>
<polygon fill="white" stroke="white" points="2477.21,-84.3 2481.39,-87.85 2478.28,-86.55 2479.36,-88.81 2479.36,-88.81 2479.36,-88.81 2478.28,-86.55 2477.32,-89.78 2477.21,-84.3 2477.21,-84.3"/>
</g>
<!-- middleware/index.js -->
<g id="node53" class="node">
<title>middleware/index.js</title>
<g id="a_node53"><a xlink:href="middleware/index.js" xlink:title="index.js">
<path fill="#ffffff" fill-opacity="0.200000" stroke="white" d="M2316,-204C2316,-204 2274,-204 2274,-204 2271,-204 2268,-201 2268,-198 2268,-198 2268,-192 2268,-192 2268,-189 2271,-186 2274,-186 2274,-186 2316,-186 2316,-186 2319,-186 2322,-189 2322,-192 2322,-192 2322,-198 2322,-198 2322,-201 2319,-204 2316,-204"/>
<text text-anchor="start" x="2277.5" y="-192.8" font-family="Helvetica,sans-Serif" font-size="9.00" fill="white">index.js</text>
</a>
</g>
</g>
<!-- index.js&#45;&gt;middleware/index.js -->
<g id="edge58" class="edge">
<title>index.js&#45;&gt;middleware/index.js</title>
<path fill="none" stroke="white" d="M1310.28,-264.88C1312.21,-264.53 1314.13,-264.23 1316,-264 1364.96,-257.93 2156.81,-270.39 2204,-256 2235.37,-246.43 2265.97,-222.32 2282.47,-207.74"/>
<polygon fill="white" stroke="white" points="2286.35,-204.25 2284.14,-209.27 2284.49,-205.93 2282.63,-207.6 2282.63,-207.6 2282.63,-207.6 2284.49,-205.93 2281.13,-205.92 2286.35,-204.25 2286.35,-204.25"/>
</g>
<!-- websockets/index.js -->
<g id="node54" class="node">
<title>websockets/index.js</title>
<g id="a_node54"><a xlink:href="websockets/index.js" xlink:title="index.js">
<path fill="#ffffff" fill-opacity="0.200000" stroke="white" d="M2047,-204C2047,-204 2005,-204 2005,-204 2002,-204 1999,-201 1999,-198 1999,-198 1999,-192 1999,-192 1999,-189 2002,-186 2005,-186 2005,-186 2047,-186 2047,-186 2050,-186 2053,-189 2053,-192 2053,-192 2053,-198 2053,-198 2053,-201 2050,-204 2047,-204"/>
<text text-anchor="start" x="2008.5" y="-192.8" font-family="Helvetica,sans-Serif" font-size="9.00" fill="white">index.js</text>
</a>
</g>
</g>
<!-- index.js&#45;&gt;websockets/index.js -->
<g id="edge59" class="edge">
<title>index.js&#45;&gt;websockets/index.js</title>
<path fill="none" stroke="white" d="M1310.28,-264.89C1312.21,-264.54 1314.13,-264.24 1316,-264 1376.41,-256.33 1804.14,-267.18 1864,-256 1916.89,-246.12 1975.21,-220.62 2005.37,-206.25"/>
<polygon fill="white" stroke="white" points="2009.97,-204.04 2006.44,-208.23 2007.72,-205.12 2005.46,-206.2 2005.46,-206.2 2005.46,-206.2 2007.72,-205.12 2004.49,-204.18 2009.97,-204.04 2009.97,-204.04"/>
</g>
<!-- lib/startup.js&#45;&gt;lib/logger.js -->
<g id="edge61" class="edge">
<title>lib/startup.js&#45;&gt;lib/logger.js</title>
<path fill="none" stroke="white" d="M2473.2,-65.91C2473.34,-60.59 2473.51,-53.52 2473.67,-47.38"/>
<polygon fill="white" stroke="white" points="2473.8,-42.08 2475.92,-47.14 2473.74,-44.58 2473.67,-47.08 2473.67,-47.08 2473.67,-47.08 2473.74,-44.58 2471.42,-47.02 2473.8,-42.08 2473.8,-42.08"/>
</g>
<!-- middleware/bodyparser.js -->
<g id="node56" class="node">
<title>middleware/bodyparser.js</title>
<g id="a_node56"><a xlink:href="middleware/bodyparser.js" xlink:title="bodyparser.js">
<path fill="#ffffff" fill-opacity="0.200000" stroke="white" d="M2288.5,-144C2288.5,-144 2223.5,-144 2223.5,-144 2220.5,-144 2217.5,-141 2217.5,-138 2217.5,-138 2217.5,-132 2217.5,-132 2217.5,-129 2220.5,-126 2223.5,-126 2223.5,-126 2288.5,-126 2288.5,-126 2291.5,-126 2294.5,-129 2294.5,-132 2294.5,-132 2294.5,-138 2294.5,-138 2294.5,-141 2291.5,-144 2288.5,-144"/>
<text text-anchor="start" x="2225.5" y="-132.8" font-family="Helvetica,sans-Serif" font-size="9.00" fill="white">bodyparser.js</text>
</a>
</g>
</g>
<!-- middleware/index.js&#45;&gt;middleware/bodyparser.js -->
<g id="edge63" class="edge">
<title>middleware/index.js&#45;&gt;middleware/bodyparser.js</title>
<path fill="none" stroke="white" d="M2289.58,-185.94C2283.07,-176.26 2272.1,-159.94 2264.47,-148.6"/>
<polygon fill="white" stroke="white" points="2261.63,-144.37 2266.29,-147.27 2263.02,-146.45 2264.42,-148.52 2264.42,-148.52 2264.42,-148.52 2263.02,-146.45 2262.55,-149.78 2261.63,-144.37 2261.63,-144.37"/>
</g>
<!-- middleware/cors.js -->
<g id="node57" class="node">
<title>middleware/cors.js</title>
<g id="a_node57"><a xlink:href="middleware/cors.js" xlink:title="cors.js">
<path fill="#ffffff" fill-opacity="0.200000" stroke="white" d="M2355,-144C2355,-144 2313,-144 2313,-144 2310,-144 2307,-141 2307,-138 2307,-138 2307,-132 2307,-132 2307,-129 2310,-126 2313,-126 2313,-126 2355,-126 2355,-126 2358,-126 2361,-129 2361,-132 2361,-132 2361,-138 2361,-138 2361,-141 2358,-144 2355,-144"/>
<text text-anchor="start" x="2319.5" y="-132.8" font-family="Helvetica,sans-Serif" font-size="9.00" fill="white">cors.js</text>
</a>
</g>
</g>
<!-- middleware/index.js&#45;&gt;middleware/cors.js -->
<g id="edge64" class="edge">
<title>middleware/index.js&#45;&gt;middleware/cors.js</title>
<path fill="none" stroke="white" d="M2300.42,-185.94C2306.93,-176.26 2317.9,-159.94 2325.53,-148.6"/>
<polygon fill="white" stroke="white" points="2328.37,-144.37 2327.45,-149.78 2326.98,-146.45 2325.58,-148.52 2325.58,-148.52 2325.58,-148.52 2326.98,-146.45 2323.71,-147.27 2328.37,-144.37 2328.37,-144.37"/>
</g>
<!-- middleware/requestMethods.js -->
<g id="node58" class="node">
<title>middleware/requestMethods.js</title>
<g id="a_node58"><a xlink:href="middleware/requestMethods.js" xlink:title="requestMethods.js">
<path fill="#ffffff" fill-opacity="0.200000" stroke="white" d="M2466.5,-144C2466.5,-144 2379.5,-144 2379.5,-144 2376.5,-144 2373.5,-141 2373.5,-138 2373.5,-138 2373.5,-132 2373.5,-132 2373.5,-129 2376.5,-126 2379.5,-126 2379.5,-126 2466.5,-126 2466.5,-126 2469.5,-126 2472.5,-129 2472.5,-132 2472.5,-132 2472.5,-138 2472.5,-138 2472.5,-141 2469.5,-144 2466.5,-144"/>
<text text-anchor="start" x="2381.5" y="-132.8" font-family="Helvetica,sans-Serif" font-size="9.00" fill="white">requestMethods.js</text>
</a>
</g>
</g>
<!-- middleware/index.js&#45;&gt;middleware/requestMethods.js -->
<g id="edge65" class="edge">
<title>middleware/index.js&#45;&gt;middleware/requestMethods.js</title>
<path fill="none" stroke="white" d="M2322.22,-186.5C2335.94,-182.33 2352.65,-176.64 2367,-170 2381.09,-163.48 2396.07,-154.24 2406.99,-147.04"/>
<polygon fill="white" stroke="white" points="2411.41,-144.1 2408.5,-148.74 2409.33,-145.49 2407.25,-146.87 2407.25,-146.87 2407.25,-146.87 2409.33,-145.49 2406,-145 2411.41,-144.1 2411.41,-144.1"/>
</g>
<!-- websockets/controllers/hr_notification.js -->
<g id="node59" class="node">
<title>websockets/controllers/hr_notification.js</title>
<g id="a_node59"><a xlink:href="websockets/controllers/hr_notification.js" xlink:title="hr_notification.js">
<path fill="#ffffff" fill-opacity="0.200000" stroke="white" d="M2179,-144C2179,-144 2099,-144 2099,-144 2096,-144 2093,-141 2093,-138 2093,-138 2093,-132 2093,-132 2093,-129 2096,-126 2099,-126 2099,-126 2179,-126 2179,-126 2182,-126 2185,-129 2185,-132 2185,-132 2185,-138 2185,-138 2185,-141 2182,-144 2179,-144"/>
<text text-anchor="start" x="2101" y="-132.8" font-family="Helvetica,sans-Serif" font-size="9.00" fill="white">hr_notification.js</text>
</a>
</g>
</g>
<!-- websockets/index.js&#45;&gt;websockets/controllers/hr_notification.js -->
<g id="edge69" class="edge">
<title>websockets/index.js&#45;&gt;websockets/controllers/hr_notification.js</title>
<path fill="none" stroke="white" d="M2049.67,-185.97C2061.18,-181.75 2075.07,-176.16 2087,-170 2099.91,-163.33 2113.64,-154.26 2123.74,-147.17"/>
<polygon fill="white" stroke="white" points="2127.84,-144.26 2125.07,-148.99 2125.8,-145.71 2123.76,-147.15 2123.76,-147.15 2123.76,-147.15 2125.8,-145.71 2122.46,-145.32 2127.84,-144.26 2127.84,-144.26"/>
</g>
<!-- websockets/controllers/public_notification.js -->
<g id="node61" class="node">
<title>websockets/controllers/public_notification.js</title>
<g id="a_node61"><a xlink:href="websockets/controllers/public_notification.js" xlink:title="public_notification.js">
<path fill="#ffffff" fill-opacity="0.200000" stroke="white" d="M2075,-144C2075,-144 1977,-144 1977,-144 1974,-144 1971,-141 1971,-138 1971,-138 1971,-132 1971,-132 1971,-129 1974,-126 1977,-126 1977,-126 2075,-126 2075,-126 2078,-126 2081,-129 2081,-132 2081,-132 2081,-138 2081,-138 2081,-141 2078,-144 2075,-144"/>
<text text-anchor="start" x="1979" y="-132.8" font-family="Helvetica,sans-Serif" font-size="9.00" fill="white">public_notification.js</text>
</a>
</g>
</g>
<!-- websockets/index.js&#45;&gt;websockets/controllers/public_notification.js -->
<g id="edge70" class="edge">
<title>websockets/index.js&#45;&gt;websockets/controllers/public_notification.js</title>
<path fill="none" stroke="white" d="M2026,-185.94C2026,-176.52 2026,-160.8 2026,-149.51"/>
<polygon fill="white" stroke="white" points="2026,-144.37 2028.25,-149.37 2026,-146.87 2026,-149.37 2026,-149.37 2026,-149.37 2026,-146.87 2023.75,-149.37 2026,-144.37 2026,-144.37"/>
</g>
<!-- lib/settings.js -->
<g id="node55" class="node">
<title>lib/settings.js</title>
<g id="a_node55"><a xlink:href="lib/settings.js" xlink:title="settings.js">
<path fill="#ffffff" fill-opacity="0.200000" stroke="white" d="M2425,-84C2425,-84 2375,-84 2375,-84 2372,-84 2369,-81 2369,-78 2369,-78 2369,-72 2369,-72 2369,-69 2372,-66 2375,-66 2375,-66 2425,-66 2425,-66 2428,-66 2431,-69 2431,-72 2431,-72 2431,-78 2431,-78 2431,-81 2428,-84 2425,-84"/>
<text text-anchor="start" x="2377" y="-72.8" font-family="Helvetica,sans-Serif" font-size="9.00" fill="white">settings.js</text>
</a>
</g>
</g>
<!-- lib/settings.js&#45;&gt;fs -->
<g id="edge60" class="edge">
<title>lib/settings.js&#45;&gt;fs</title>
<path fill="none" stroke="white" stroke-dasharray="5,2" d="M2385.02,-65.91C2373.69,-59.78 2358.02,-51.31 2345.68,-44.64"/>
<polygon fill="white" stroke="white" points="2340.95,-42.08 2346.42,-42.48 2343.15,-43.27 2345.35,-44.46 2345.35,-44.46 2345.35,-44.46 2343.15,-43.27 2344.28,-46.44 2340.95,-42.08 2340.95,-42.08"/>
</g>
<!-- middleware/cors.js&#45;&gt;lib/settings.js -->
<g id="edge62" class="edge">
<title>middleware/cors.js&#45;&gt;lib/settings.js</title>
<path fill="none" stroke="white" d="M2343.18,-125.94C2354.48,-116.01 2373.75,-99.07 2386.68,-87.7"/>
<polygon fill="white" stroke="white" points="2390.47,-84.37 2388.2,-89.36 2388.6,-86.02 2386.72,-87.67 2386.72,-87.67 2386.72,-87.67 2388.6,-86.02 2385.23,-85.98 2390.47,-84.37 2390.47,-84.37"/>
</g>
<!-- websockets/models/hr.js -->
<g id="node60" class="node">
<title>websockets/models/hr.js</title>
<g id="a_node60"><a xlink:href="websockets/models/hr.js" xlink:title="hr.js">
<path fill="#ffffff" fill-opacity="0.200000" stroke="white" d="M2136,-84C2136,-84 2094,-84 2094,-84 2091,-84 2088,-81 2088,-78 2088,-78 2088,-72 2088,-72 2088,-69 2091,-66 2094,-66 2094,-66 2136,-66 2136,-66 2139,-66 2142,-69 2142,-72 2142,-72 2142,-78 2142,-78 2142,-81 2139,-84 2136,-84"/>
<text text-anchor="start" x="2105.5" y="-72.8" font-family="Helvetica,sans-Serif" font-size="9.00" fill="white">hr.js</text>
</a>
</g>
</g>
<!-- websockets/controllers/hr_notification.js&#45;&gt;websockets/models/hr.js -->
<g id="edge66" class="edge">
<title>websockets/controllers/hr_notification.js&#45;&gt;websockets/models/hr.js</title>
<path fill="none" stroke="white" d="M2135.66,-125.94C2131.73,-116.43 2125.14,-100.51 2120.46,-89.2"/>
<polygon fill="white" stroke="white" points="2118.46,-84.37 2122.46,-88.13 2119.42,-86.68 2120.38,-88.99 2120.38,-88.99 2120.38,-88.99 2119.42,-86.68 2118.3,-89.85 2118.46,-84.37 2118.46,-84.37"/>
</g>
<!-- websockets/controllers/public_notification.js&#45;&gt;app/controllers/salary.controller.js -->
<g id="edge67" class="edge">
<title>websockets/controllers/public_notification.js&#45;&gt;app/controllers/salary.controller.js</title>
<path fill="none" stroke="white" d="M2010.4,-144.12C1992.95,-153.74 1963.51,-168.3 1936,-174 1918.06,-177.72 634.56,-179.21 617,-174 599.6,-168.84 582.52,-156.87 571.07,-147.55"/>
<polygon fill="white" stroke="white" points="567.11,-144.25 572.39,-145.72 569.03,-145.85 570.95,-147.45 570.95,-147.45 570.95,-147.45 569.03,-145.85 569.51,-149.18 567.11,-144.25 567.11,-144.25"/>
</g>
<!-- websockets/models/public.js -->
<g id="node62" class="node">
<title>websockets/models/public.js</title>
<g id="a_node62"><a xlink:href="websockets/models/public.js" xlink:title="public.js">
<path fill="#ffffff" fill-opacity="0.200000" stroke="white" d="M2070,-84C2070,-84 2028,-84 2028,-84 2025,-84 2022,-81 2022,-78 2022,-78 2022,-72 2022,-72 2022,-69 2025,-66 2028,-66 2028,-66 2070,-66 2070,-66 2073,-66 2076,-69 2076,-72 2076,-72 2076,-78 2076,-78 2076,-81 2073,-84 2070,-84"/>
<text text-anchor="start" x="2030" y="-72.8" font-family="Helvetica,sans-Serif" font-size="9.00" fill="white">public.js</text>
</a>
</g>
</g>
<!-- websockets/controllers/public_notification.js&#45;&gt;websockets/models/public.js -->
<g id="edge68" class="edge">
<title>websockets/controllers/public_notification.js&#45;&gt;websockets/models/public.js</title>
<path fill="none" stroke="white" d="M2029.2,-125.94C2032.97,-116.43 2039.28,-100.51 2043.76,-89.2"/>
<polygon fill="white" stroke="white" points="2045.68,-84.37 2045.93,-89.85 2044.76,-86.7 2043.84,-89.02 2043.84,-89.02 2043.84,-89.02 2044.76,-86.7 2041.75,-88.19 2045.68,-84.37 2045.68,-84.37"/>
</g>
</g>
</svg>
