<svg width="331" height="198" viewBox="0 0 331 198" fill="none" xmlns="http://www.w3.org/2000/svg">
<g id="Layer 2">
<g id="Tables">
<g id="tb2">
<path id="Vector" d="M312.24 180.66H281.71C280.605 180.66 279.71 181.555 279.71 182.66V194.18C279.71 195.285 280.605 196.18 281.71 196.18H312.24C313.345 196.18 314.24 195.285 314.24 194.18V182.66C314.24 181.555 313.345 180.66 312.24 180.66Z" fill="#3D73B8"/>
<path id="2" d="M289.489 190.265V191.53H284.714C284.765 191.052 284.92 190.599 285.179 190.172C285.438 189.742 285.948 189.174 286.711 188.466C287.325 187.894 287.702 187.506 287.841 187.302C288.028 187.021 288.122 186.743 288.122 186.468C288.122 186.164 288.04 185.931 287.875 185.77C287.713 185.605 287.489 185.523 287.201 185.523C286.916 185.523 286.69 185.608 286.522 185.78C286.354 185.951 286.257 186.235 286.231 186.633L284.874 186.497C284.954 185.747 285.208 185.209 285.635 184.883C286.061 184.556 286.595 184.393 287.235 184.393C287.936 184.393 288.487 184.582 288.888 184.96C289.289 185.338 289.489 185.809 289.489 186.371C289.489 186.691 289.431 186.997 289.315 187.287C289.202 187.575 289.021 187.877 288.772 188.194C288.607 188.404 288.31 188.706 287.88 189.101C287.45 189.495 287.177 189.757 287.06 189.886C286.947 190.016 286.855 190.142 286.784 190.265H289.489Z" fill="white"/>
</g>
<g id="tb3">
<path id="Vector_2" d="M312.34 162.85H281.81C280.705 162.85 279.81 163.745 279.81 164.85V176.37C279.81 177.475 280.705 178.37 281.81 178.37H312.34C313.445 178.37 314.34 177.475 314.34 176.37V164.85C314.34 163.745 313.445 162.85 312.34 162.85Z" fill="#3D73B8"/>
<path id="3" d="M305.69 171.494L307.008 171.334C307.05 171.67 307.164 171.927 307.348 172.105C307.532 172.283 307.755 172.371 308.017 172.371C308.298 172.371 308.534 172.265 308.725 172.051C308.919 171.838 309.016 171.55 309.016 171.188C309.016 170.846 308.924 170.574 308.739 170.374C308.555 170.173 308.33 170.073 308.065 170.073C307.891 170.073 307.682 170.107 307.44 170.175L307.59 169.065C307.959 169.074 308.24 168.995 308.434 168.827C308.628 168.656 308.725 168.43 308.725 168.148C308.725 167.909 308.654 167.718 308.511 167.576C308.369 167.434 308.18 167.363 307.944 167.363C307.711 167.363 307.513 167.444 307.348 167.605C307.183 167.767 307.083 168.003 307.047 168.313L305.791 168.1C305.879 167.67 306.01 167.327 306.184 167.072C306.362 166.813 306.608 166.611 306.921 166.466C307.238 166.317 307.592 166.243 307.983 166.243C308.652 166.243 309.189 166.456 309.593 166.883C309.926 167.232 310.092 167.626 310.092 168.066C310.092 168.69 309.751 169.188 309.069 169.559C309.476 169.647 309.801 169.842 310.044 170.146C310.289 170.45 310.412 170.817 310.412 171.247C310.412 171.87 310.184 172.402 309.728 172.842C309.273 173.281 308.705 173.501 308.027 173.501C307.383 173.501 306.85 173.317 306.427 172.948C306.003 172.577 305.757 172.092 305.69 171.494Z" fill="white"/>
</g>
<g id="tb4">
<path id="Vector_3" d="M328.94 162.8H317.42C316.315 162.8 315.42 163.695 315.42 164.8V195.33C315.42 196.435 316.315 197.33 317.42 197.33H328.94C330.044 197.33 330.94 196.435 330.94 195.33V164.8C330.94 163.695 330.044 162.8 328.94 162.8Z" fill="#3D73B8"/>
<path id="4" d="M324.58 192.9V191.47H321.67V190.277L324.754 185.763H325.898V190.272H326.781V191.47H325.898V192.9H324.58ZM324.58 190.272V187.843L322.946 190.272H324.58Z" fill="white"/>
</g>
<g id="tb5">
<path id="Vector_4" d="M276.23 162.46H264.71C263.605 162.46 262.71 163.355 262.71 164.46V194.99C262.71 196.095 263.605 196.99 264.71 196.99H276.23C277.335 196.99 278.23 196.095 278.23 194.99V164.46C278.23 163.355 277.335 162.46 276.23 162.46Z" fill="#3D73B8"/>
<path id="5" d="M268.168 171.552L269.525 171.411C269.564 171.719 269.679 171.963 269.869 172.144C270.06 172.321 270.28 172.41 270.529 172.41C270.813 172.41 271.054 172.296 271.251 172.066C271.448 171.833 271.547 171.484 271.547 171.019C271.547 170.582 271.448 170.256 271.251 170.039C271.057 169.819 270.804 169.71 270.49 169.71C270.099 169.71 269.748 169.883 269.438 170.228L268.332 170.068L269.031 166.369H272.633V167.644H270.063L269.85 168.851C270.154 168.699 270.464 168.623 270.781 168.623C271.385 168.623 271.898 168.843 272.318 169.283C272.738 169.723 272.948 170.293 272.948 170.994C272.948 171.58 272.779 172.102 272.439 172.561C271.977 173.188 271.335 173.501 270.514 173.501C269.858 173.501 269.323 173.325 268.909 172.973C268.496 172.62 268.248 172.147 268.168 171.552Z" fill="white"/>
</g>
<g id="tb6">
<path id="Vector_5" d="M297.01 114.68H266.48C265.375 114.68 264.48 115.575 264.48 116.68V128.2C264.48 129.305 265.375 130.2 266.48 130.2H297.01C298.115 130.2 299.01 129.305 299.01 128.2V116.68C299.01 115.575 298.115 114.68 297.01 114.68Z" fill="#3D73B8"/>
<path id="6" d="M273.254 119.843L271.935 119.988C271.903 119.716 271.819 119.516 271.683 119.387C271.547 119.257 271.371 119.193 271.155 119.193C270.867 119.193 270.623 119.322 270.422 119.581C270.225 119.839 270.101 120.378 270.049 121.195C270.388 120.795 270.81 120.594 271.315 120.594C271.883 120.594 272.37 120.811 272.774 121.244C273.181 121.677 273.385 122.236 273.385 122.921C273.385 123.649 273.172 124.232 272.745 124.672C272.318 125.111 271.77 125.331 271.101 125.331C270.384 125.331 269.794 125.053 269.331 124.497C268.869 123.938 268.638 123.023 268.638 121.753C268.638 120.45 268.879 119.511 269.361 118.936C269.842 118.36 270.468 118.073 271.237 118.073C271.777 118.073 272.223 118.225 272.575 118.529C272.931 118.829 273.157 119.267 273.254 119.843ZM270.165 122.815C270.165 123.258 270.267 123.6 270.471 123.843C270.675 124.082 270.907 124.201 271.169 124.201C271.421 124.201 271.631 124.103 271.799 123.906C271.968 123.709 272.052 123.385 272.052 122.936C272.052 122.474 271.961 122.136 271.78 121.923C271.599 121.706 271.373 121.598 271.101 121.598C270.839 121.598 270.618 121.701 270.437 121.908C270.256 122.112 270.165 122.414 270.165 122.815Z" fill="white"/>
</g>
<g id="tb7">
<path id="Vector_6" d="M296.21 77.88H284.69C283.585 77.88 282.69 78.7754 282.69 79.88V110.41C282.69 111.515 283.585 112.41 284.69 112.41H296.21C297.315 112.41 298.21 111.515 298.21 110.41V79.88C298.21 78.7754 297.315 77.88 296.21 77.88Z" fill="#3D73B8"/>
<path id="7" d="M289.218 102.574V101.309H293.878V102.298C293.493 102.676 293.102 103.219 292.704 103.927C292.307 104.635 292.003 105.388 291.793 106.187C291.586 106.982 291.484 107.693 291.487 108.32H290.173C290.196 107.337 290.398 106.335 290.779 105.314C291.164 104.292 291.676 103.379 292.316 102.574H289.218Z" fill="white"/>
</g>
<g id="tb8">
<path id="Vector_7" d="M278.4 77.79H266.88C265.775 77.79 264.88 78.6854 264.88 79.79V110.32C264.88 111.425 265.775 112.32 266.88 112.32H278.4C279.505 112.32 280.4 111.425 280.4 110.32V79.79C280.4 78.6854 279.505 77.79 278.4 77.79Z" fill="#3D73B8"/>
<path id="8" d="M271.057 83.5747C270.704 83.426 270.447 83.2224 270.286 82.9638C270.127 82.702 270.048 82.4159 270.048 82.1056C270.048 81.5755 270.232 81.1375 270.601 80.7916C270.973 80.4458 271.499 80.2728 272.181 80.2728C272.857 80.2728 273.381 80.4458 273.752 80.7916C274.127 81.1375 274.315 81.5755 274.315 82.1056C274.315 82.4353 274.229 82.7295 274.058 82.9881C273.887 83.2434 273.646 83.439 273.335 83.5747C273.73 83.7331 274.029 83.9642 274.232 84.2681C274.439 84.5719 274.543 84.9227 274.543 85.3202C274.543 85.9764 274.333 86.5098 273.912 86.9203C273.495 87.3308 272.939 87.5361 272.244 87.5361C271.598 87.5361 271.06 87.3664 270.63 87.027C270.122 86.6261 269.869 86.0766 269.869 85.3784C269.869 84.9938 269.964 84.6414 270.155 84.3214C270.345 83.9982 270.646 83.7493 271.057 83.5747ZM271.338 82.2026C271.338 82.4741 271.414 82.6858 271.566 82.8377C271.721 82.9897 271.926 83.0656 272.181 83.0656C272.44 83.0656 272.647 82.9897 272.802 82.8377C272.957 82.6826 273.035 82.4692 273.035 82.1977C273.035 81.9424 272.957 81.7387 272.802 81.5868C272.65 81.4316 272.448 81.3541 272.196 81.3541C271.934 81.3541 271.726 81.4316 271.571 81.5868C271.415 81.742 271.338 81.9472 271.338 82.2026ZM271.212 85.2475C271.212 85.6225 271.307 85.915 271.498 86.1251C271.692 86.3352 271.933 86.4403 272.22 86.4403C272.501 86.4403 272.734 86.3401 272.918 86.1397C273.103 85.936 273.195 85.6435 273.195 85.2621C273.195 84.9291 273.101 84.6624 272.914 84.462C272.726 84.2584 272.489 84.1566 272.201 84.1566C271.868 84.1566 271.619 84.2713 271.454 84.5008C271.293 84.7303 271.212 84.9792 271.212 85.2475Z" fill="white"/>
</g>
<g id="tb9">
<path id="Vector_8" d="M228.3 114.68H197.77C196.665 114.68 195.77 115.575 195.77 116.68V128.2C195.77 129.305 196.665 130.2 197.77 130.2H228.3C229.405 130.2 230.3 129.305 230.3 128.2V116.68C230.3 115.575 229.405 114.68 228.3 114.68Z" fill="#3D73B8"/>
<path id="9" d="M200.587 122.936L201.649 122.819C201.675 123.035 201.743 123.195 201.852 123.299C201.962 123.403 202.106 123.455 202.286 123.455C202.512 123.455 202.705 123.351 202.864 123.143C203.023 122.934 203.124 122.502 203.169 121.846C202.893 122.166 202.548 122.326 202.134 122.326C201.683 122.326 201.294 122.153 200.966 121.807C200.64 121.458 200.477 121.005 200.477 120.447C200.477 119.867 200.649 119.399 200.993 119.045C201.339 118.688 201.779 118.51 202.313 118.51C202.894 118.51 203.371 118.735 203.743 119.186C204.115 119.634 204.302 120.372 204.302 121.401C204.302 122.447 204.108 123.203 203.72 123.666C203.331 124.13 202.826 124.362 202.204 124.362C201.756 124.362 201.394 124.243 201.118 124.006C200.842 123.767 200.665 123.41 200.587 122.936ZM203.071 120.537C203.071 120.183 202.989 119.908 202.825 119.713C202.664 119.518 202.476 119.42 202.262 119.42C202.059 119.42 201.89 119.501 201.755 119.662C201.622 119.821 201.555 120.083 201.555 120.447C201.555 120.817 201.628 121.089 201.774 121.264C201.92 121.436 202.102 121.522 202.321 121.522C202.532 121.522 202.709 121.438 202.852 121.272C202.998 121.105 203.071 120.86 203.071 120.537Z" fill="white"/>
</g>
<g id="tb10">
<path id="Vector_9" d="M227.5 78.68H215.98C214.875 78.68 213.98 79.5754 213.98 80.68V111.21C213.98 112.315 214.875 113.21 215.98 113.21H227.5C228.605 113.21 229.5 112.315 229.5 111.21V80.68C229.5 79.5754 228.605 78.68 227.5 78.68Z" fill="#3D73B8"/>
<path id="10" d="M220.355 108.25H219.258V104.113C218.857 104.488 218.384 104.766 217.84 104.945V103.949C218.126 103.855 218.437 103.678 218.773 103.418C219.109 103.155 219.34 102.849 219.465 102.5H220.355V108.25ZM223.855 102.5C224.41 102.5 224.844 102.698 225.156 103.094C225.528 103.562 225.715 104.34 225.715 105.426C225.715 106.509 225.527 107.288 225.152 107.762C224.842 108.152 224.41 108.348 223.855 108.348C223.298 108.348 222.849 108.134 222.508 107.707C222.167 107.277 221.996 106.513 221.996 105.414C221.996 104.336 222.183 103.56 222.558 103.086C222.868 102.695 223.301 102.5 223.855 102.5ZM223.855 103.41C223.723 103.41 223.604 103.453 223.5 103.539C223.396 103.622 223.315 103.773 223.258 103.992C223.182 104.276 223.144 104.754 223.144 105.426C223.144 106.098 223.178 106.56 223.246 106.812C223.314 107.062 223.398 107.229 223.5 107.312C223.604 107.396 223.723 107.438 223.855 107.438C223.988 107.438 224.107 107.396 224.211 107.312C224.315 107.227 224.396 107.074 224.453 106.855C224.528 106.574 224.566 106.098 224.566 105.426C224.566 104.754 224.532 104.293 224.465 104.043C224.397 103.79 224.311 103.622 224.207 103.539C224.105 103.453 223.988 103.41 223.855 103.41Z" fill="white"/>
</g>
<g id="tb11">
<path id="Vector_10" d="M209.68 78.58H198.16C197.055 78.58 196.16 79.4754 196.16 80.58V111.11C196.16 112.215 197.055 113.11 198.16 113.11H209.68C210.785 113.11 211.68 112.215 211.68 111.11V80.58C211.68 79.4754 210.785 78.58 209.68 78.58Z" fill="#3D73B8"/>
<path id="11" d="M203.138 87.34H202.04V83.2033C201.639 83.5783 201.167 83.8556 200.622 84.0353V83.0392C200.909 82.9455 201.22 82.7684 201.556 82.508C201.892 82.2449 202.122 81.939 202.247 81.59H203.138V87.34ZM207.146 87.34H206.048V83.2033C205.647 83.5783 205.174 83.8556 204.63 84.0353V83.0392C204.917 82.9455 205.228 82.7684 205.564 82.508C205.9 82.2449 206.13 81.939 206.255 81.59H207.146V87.34Z" fill="white"/>
</g>
<g id="tb12">
<path id="Vector_11" d="M160.77 77.75H149.25C148.145 77.75 147.25 78.6454 147.25 79.75V110.28C147.25 111.385 148.145 112.28 149.25 112.28H160.77C161.875 112.28 162.77 111.385 162.77 110.28V79.75C162.77 78.6454 161.875 77.75 160.77 77.75Z" fill="#3D73B8"/>
<path id="12" d="M153.575 108.62H152.478V104.483C152.077 104.858 151.604 105.136 151.06 105.315V104.319C151.346 104.225 151.657 104.048 151.993 103.788C152.329 103.525 152.56 103.219 152.685 102.87H153.575V108.62ZM158.927 107.6V108.62H155.079C155.121 108.235 155.246 107.87 155.454 107.526C155.662 107.18 156.074 106.722 156.689 106.151C157.183 105.69 157.487 105.378 157.599 105.214C157.75 104.987 157.825 104.763 157.825 104.542C157.825 104.297 157.759 104.11 157.626 103.979C157.496 103.847 157.315 103.78 157.083 103.78C156.854 103.78 156.672 103.849 156.536 103.987C156.401 104.125 156.323 104.354 156.302 104.675L155.208 104.565C155.273 103.961 155.478 103.528 155.821 103.265C156.165 103.002 156.595 102.87 157.11 102.87C157.676 102.87 158.12 103.022 158.442 103.327C158.765 103.632 158.927 104.011 158.927 104.464C158.927 104.722 158.88 104.968 158.786 105.202C158.695 105.434 158.549 105.677 158.349 105.932C158.216 106.102 157.976 106.345 157.63 106.663C157.284 106.981 157.064 107.192 156.97 107.296C156.879 107.4 156.804 107.502 156.747 107.6H158.927Z" fill="white"/>
</g>
<g id="tb13">
<path id="Vector_12" d="M161.57 113.76H131.04C129.935 113.76 129.04 114.655 129.04 115.76V127.28C129.04 128.385 129.935 129.28 131.04 129.28H161.57C162.675 129.28 163.57 128.385 163.57 127.28V115.76C163.57 114.655 162.675 113.76 161.57 113.76Z" fill="#3D73B8"/>
<path id="13" d="M133.995 123.47H132.898V119.333C132.497 119.708 132.024 119.986 131.48 120.165V119.169C131.766 119.075 132.077 118.898 132.413 118.638C132.749 118.375 132.98 118.069 133.105 117.72H133.995V123.47ZM135.601 121.95L136.663 121.822C136.697 122.092 136.788 122.299 136.937 122.443C137.085 122.586 137.265 122.658 137.476 122.658C137.702 122.658 137.892 122.572 138.046 122.4C138.202 122.228 138.28 121.996 138.28 121.704C138.28 121.428 138.206 121.21 138.058 121.048C137.909 120.887 137.728 120.806 137.515 120.806C137.374 120.806 137.206 120.833 137.011 120.888L137.132 119.993C137.429 120.001 137.655 119.937 137.812 119.802C137.968 119.664 138.046 119.482 138.046 119.255C138.046 119.062 137.989 118.909 137.874 118.794C137.76 118.68 137.607 118.622 137.417 118.622C137.23 118.622 137.07 118.687 136.937 118.818C136.804 118.948 136.723 119.138 136.695 119.388L135.683 119.216C135.753 118.87 135.859 118.594 135.999 118.388C136.142 118.18 136.34 118.017 136.593 117.9C136.848 117.78 137.133 117.72 137.448 117.72C137.987 117.72 138.42 117.892 138.745 118.236C139.014 118.517 139.148 118.835 139.148 119.189C139.148 119.691 138.873 120.092 138.323 120.392C138.652 120.462 138.913 120.62 139.109 120.865C139.306 121.109 139.405 121.405 139.405 121.751C139.405 122.254 139.222 122.682 138.855 123.036C138.487 123.391 138.03 123.568 137.484 123.568C136.965 123.568 136.536 123.419 136.195 123.122C135.853 122.823 135.655 122.432 135.601 121.95Z" fill="white"/>
</g>
<g id="tb14">
<path id="Vector_13" d="M142.96 77.66H131.44C130.335 77.66 129.44 78.5554 129.44 79.66V110.19C129.44 111.295 130.335 112.19 131.44 112.19H142.96C144.065 112.19 144.96 111.295 144.96 110.19V79.66C144.96 78.5554 144.065 77.66 142.96 77.66Z" fill="#3D73B8"/>
<path id="14" d="M135.945 86.4H134.848V82.2633C134.447 82.6383 133.974 82.9156 133.43 83.0953V82.0992C133.716 82.0055 134.027 81.8284 134.363 81.568C134.699 81.305 134.93 80.999 135.055 80.65H135.945V86.4ZM139.742 86.4V85.2477H137.398V84.2867L139.883 80.65H140.805V84.2828H141.516V85.2477H140.805V86.4H139.742ZM139.742 84.2828V82.3258L138.426 84.2828H139.742Z" fill="white"/>
</g>
<g id="tb15">
<path id="Vector_14" d="M93.36 113.76H62.83C61.7254 113.76 60.83 114.655 60.83 115.76V127.28C60.83 128.385 61.7254 129.28 62.83 129.28H93.36C94.4646 129.28 95.36 128.385 95.36 127.28V115.76C95.36 114.655 94.4646 113.76 93.36 113.76Z" fill="#3D73B8"/>
<path id="15" d="M65.5853 123.51H64.4876V119.373C64.0866 119.748 63.6139 120.026 63.0697 120.205V119.209C63.3561 119.115 63.6673 118.938 64.0033 118.678C64.3392 118.415 64.5697 118.109 64.6947 117.76H65.5853V123.51ZM67.2455 122.037L68.3392 121.924C68.3705 122.171 68.4629 122.368 68.6165 122.514C68.7702 122.657 68.9473 122.729 69.1478 122.729C69.377 122.729 69.571 122.636 69.7298 122.451C69.8887 122.264 69.9681 121.983 69.9681 121.608C69.9681 121.256 69.8887 120.993 69.7298 120.819C69.5736 120.642 69.3692 120.553 69.1165 120.553C68.8014 120.553 68.5189 120.692 68.2689 120.971L67.3783 120.842L67.9408 117.862H70.8431V118.889H68.7728L68.6009 119.862C68.8457 119.739 69.0957 119.678 69.3509 119.678C69.8379 119.678 70.2507 119.855 70.5892 120.209C70.9277 120.563 71.097 121.023 71.097 121.588C71.097 122.059 70.9603 122.48 70.6869 122.85C70.3145 123.355 69.7975 123.608 69.1361 123.608C68.6074 123.608 68.1764 123.466 67.8431 123.182C67.5098 122.898 67.3106 122.517 67.2455 122.037Z" fill="white"/>
</g>
<g id="tb16">
<path id="Vector_15" d="M92.76 77.7H81.24C80.1354 77.7 79.24 78.5954 79.24 79.7V110.23C79.24 111.335 80.1354 112.23 81.24 112.23H92.76C93.8645 112.23 94.76 111.335 94.76 110.23V79.7C94.76 78.5954 93.8645 77.7 92.76 77.7Z" fill="#3D73B8"/>
<path id="16" d="M85.4853 108.17H84.3876V104.033C83.9866 104.408 83.5139 104.686 82.9697 104.865V103.869C83.2561 103.775 83.5673 103.598 83.9033 103.338C84.2392 103.075 84.4697 102.769 84.5947 102.42H85.4853V108.17ZM90.8486 103.846L89.7861 103.963C89.76 103.744 89.6923 103.583 89.5829 103.479C89.4736 103.374 89.3316 103.322 89.1572 103.322C88.9254 103.322 88.7288 103.427 88.5673 103.635C88.4085 103.843 88.3082 104.277 88.2665 104.936C88.54 104.613 88.8798 104.451 89.2861 104.451C89.7444 104.451 90.1363 104.626 90.4619 104.975C90.79 105.324 90.954 105.774 90.954 106.326C90.954 106.912 90.7822 107.382 90.4384 107.736C90.0947 108.091 89.6533 108.268 89.1142 108.268C88.5361 108.268 88.0608 108.044 87.6884 107.596C87.316 107.145 87.1298 106.408 87.1298 105.385C87.1298 104.335 87.3238 103.579 87.7119 103.115C88.0999 102.652 88.6038 102.42 89.2236 102.42C89.6585 102.42 90.0178 102.542 90.3017 102.787C90.5882 103.029 90.7704 103.382 90.8486 103.846ZM88.3603 106.24C88.3603 106.597 88.4423 106.873 88.6064 107.068C88.7704 107.261 88.9579 107.357 89.1689 107.357C89.372 107.357 89.5413 107.278 89.6767 107.119C89.8121 106.96 89.8798 106.7 89.8798 106.338C89.8798 105.966 89.8069 105.693 89.6611 105.522C89.5152 105.347 89.3329 105.26 89.1142 105.26C88.9033 105.26 88.7249 105.343 88.579 105.51C88.4332 105.674 88.3603 105.917 88.3603 106.24Z" fill="white"/>
</g>
<g id="tb17">
<path id="Vector_16" d="M74.95 77.61H63.43C62.3254 77.61 61.43 78.5054 61.43 79.61V110.14C61.43 111.245 62.3254 112.14 63.43 112.14H74.95C76.0546 112.14 76.95 111.245 76.95 110.14V79.61C76.95 78.5054 76.0546 77.61 74.95 77.61Z" fill="#3D73B8"/>
<path id="17" d="M68.3153 86.4H67.2176V82.2633C66.8166 82.6383 66.3439 82.9156 65.7997 83.0953V82.0992C66.0861 82.0055 66.3973 81.8284 66.7332 81.568C67.0692 81.3049 67.2997 80.999 67.4247 80.65H68.3153V86.4ZM69.9598 81.7711V80.7516H73.7137V81.5484C73.4038 81.8531 73.0887 82.2906 72.7684 82.8609C72.4481 83.4312 72.2033 84.038 72.034 84.6812C71.8674 85.3219 71.7853 85.8948 71.7879 86.4H70.7293C70.7476 85.6083 70.9103 84.801 71.2176 83.9781C71.5275 83.1552 71.9403 82.4195 72.4559 81.7711H69.9598Z" fill="white"/>
</g>
<g id="tb18">
<path id="Vector_17" d="M295.78 0.809998H284.26C283.155 0.809998 282.26 1.70543 282.26 2.80999V33.34C282.26 34.4446 283.155 35.34 284.26 35.34H295.78C296.885 35.34 297.78 34.4446 297.78 33.34V2.81C297.78 1.70543 296.885 0.809998 295.78 0.809998Z" fill="#3D73B8"/>
<path id="18" d="M288.585 30.63H287.488V26.4933C287.087 26.8683 286.614 27.1456 286.07 27.3253V26.3292C286.356 26.2355 286.667 26.0584 287.003 25.798C287.339 25.535 287.57 25.229 287.695 24.88H288.585V30.63ZM291.171 27.5402C290.887 27.4204 290.68 27.2563 290.55 27.048C290.422 26.837 290.359 26.6066 290.359 26.3566C290.359 25.9295 290.507 25.5766 290.804 25.298C291.103 25.0193 291.528 24.88 292.077 24.88C292.622 24.88 293.044 25.0193 293.343 25.298C293.645 25.5766 293.796 25.9295 293.796 26.3566C293.796 26.6222 293.727 26.8592 293.589 27.0675C293.451 27.2732 293.257 27.4308 293.007 27.5402C293.325 27.6678 293.566 27.854 293.73 28.0988C293.896 28.3435 293.98 28.6261 293.98 28.9464C293.98 29.4751 293.81 29.9047 293.472 30.2355C293.136 30.5662 292.688 30.7316 292.128 30.7316C291.607 30.7316 291.174 30.5948 290.827 30.3214C290.419 29.9985 290.214 29.5558 290.214 28.9933C290.214 28.6834 290.291 28.3995 290.445 28.1417C290.598 27.8813 290.84 27.6808 291.171 27.5402ZM291.398 26.4347C291.398 26.6534 291.459 26.824 291.581 26.9464C291.706 27.0688 291.872 27.13 292.077 27.13C292.286 27.13 292.452 27.0688 292.577 26.9464C292.702 26.8214 292.765 26.6495 292.765 26.4308C292.765 26.2251 292.702 26.061 292.577 25.9386C292.455 25.8136 292.292 25.7511 292.089 25.7511C291.878 25.7511 291.71 25.8136 291.585 25.9386C291.46 26.0636 291.398 26.229 291.398 26.4347ZM291.296 28.8878C291.296 29.1899 291.373 29.4256 291.527 29.5948C291.683 29.7641 291.877 29.8488 292.109 29.8488C292.335 29.8488 292.523 29.768 292.671 29.6066C292.82 29.4425 292.894 29.2068 292.894 28.8995C292.894 28.6313 292.818 28.4165 292.667 28.255C292.516 28.0909 292.325 28.0089 292.093 28.0089C291.825 28.0089 291.624 28.1014 291.491 28.2863C291.361 28.4712 291.296 28.6717 291.296 28.8878Z" fill="white"/>
</g>
<g id="tb19">
<path id="Vector_18" d="M277.97 0.710007H266.45C265.345 0.710007 264.45 1.60543 264.45 2.71V33.24C264.45 34.3446 265.345 35.24 266.45 35.24H277.97C279.075 35.24 279.97 34.3446 279.97 33.24V2.71001C279.97 1.60544 279.075 0.710007 277.97 0.710007Z" fill="#3D73B8"/>
<path id="19" d="M269.985 30.34H268.888V26.2033C268.487 26.5783 268.014 26.8556 267.47 27.0353V26.0392C267.756 25.9455 268.067 25.7684 268.403 25.508C268.739 25.245 268.97 24.939 269.095 24.59H269.985V30.34ZM271.653 29.0158L272.716 28.8986C272.742 29.1148 272.81 29.2749 272.919 29.3791C273.028 29.4832 273.173 29.5353 273.353 29.5353C273.579 29.5353 273.772 29.4312 273.931 29.2228C274.089 29.0145 274.191 28.5822 274.235 27.9259C273.959 28.2463 273.614 28.4064 273.2 28.4064C272.75 28.4064 272.36 28.2332 272.032 27.8869C271.707 27.5379 271.544 27.0848 271.544 26.5275C271.544 25.9468 271.716 25.4793 272.06 25.1252C272.406 24.7684 272.846 24.59 273.38 24.59C273.961 24.59 274.437 24.8153 274.81 25.2658C275.182 25.7137 275.368 26.452 275.368 27.4806C275.368 28.5275 275.174 29.2827 274.786 29.7463C274.398 30.2098 273.893 30.4416 273.27 30.4416C272.823 30.4416 272.461 30.3231 272.185 30.0861C271.908 29.8465 271.731 29.4898 271.653 29.0158ZM274.138 26.6174C274.138 26.2632 274.056 25.9884 273.892 25.7931C273.73 25.5978 273.543 25.5002 273.329 25.5002C273.126 25.5002 272.957 25.5809 272.821 25.7424C272.688 25.9012 272.622 26.1629 272.622 26.5275C272.622 26.8973 272.695 27.1694 272.841 27.3439C272.987 27.5158 273.169 27.6017 273.388 27.6017C273.599 27.6017 273.776 27.5184 273.919 27.3517C274.065 27.1851 274.138 26.9403 274.138 26.6174Z" fill="white"/>
</g>
<g id="tb20">
<path id="tb1-3" d="M227.53 37H197C195.895 37 195 37.8954 195 39V50.52C195 51.6246 195.895 52.52 197 52.52H227.53C228.635 52.52 229.53 51.6246 229.53 50.52V39C229.53 37.8954 228.635 37 227.53 37Z" fill="#3D73B8"/>
<path id="20" d="M202.144 45.3505V46.37H198.296C198.338 45.9846 198.463 45.62 198.671 45.2762C198.879 44.9299 199.291 44.4716 199.905 43.9012C200.4 43.4403 200.704 43.1278 200.816 42.9637C200.967 42.7372 201.042 42.5132 201.042 42.2919C201.042 42.0471 200.976 41.8596 200.843 41.7294C200.713 41.5966 200.532 41.5302 200.3 41.5302C200.071 41.5302 199.889 41.5992 199.753 41.7372C199.618 41.8752 199.54 42.1044 199.519 42.4247L198.425 42.3153C198.49 41.7111 198.695 41.2775 199.038 41.0145C199.382 40.7515 199.812 40.62 200.327 40.62C200.892 40.62 201.336 40.7723 201.659 41.077C201.982 41.3817 202.144 41.7606 202.144 42.2137C202.144 42.4716 202.097 42.7177 202.003 42.952C201.912 43.1838 201.766 43.4273 201.566 43.6825C201.433 43.8518 201.193 44.0953 200.847 44.413C200.501 44.7307 200.28 44.9416 200.187 45.0458C200.096 45.1499 200.021 45.2515 199.964 45.3505H202.144ZM204.745 40.62C205.3 40.62 205.734 40.8179 206.046 41.2137C206.419 41.6825 206.605 42.4598 206.605 43.5458C206.605 44.6291 206.417 45.4078 206.042 45.8817C205.732 46.2723 205.3 46.4677 204.745 46.4677C204.188 46.4677 203.739 46.2541 203.398 45.827C203.057 45.3973 202.886 44.633 202.886 43.5341C202.886 42.4559 203.073 41.6799 203.448 41.2059C203.758 40.8153 204.191 40.62 204.745 40.62ZM204.745 41.5302C204.613 41.5302 204.494 41.5731 204.39 41.6591C204.286 41.7424 204.205 41.8934 204.148 42.1122C204.072 42.396 204.034 42.8739 204.034 43.5458C204.034 44.2177 204.068 44.6799 204.136 44.9325C204.204 45.1825 204.288 45.3492 204.39 45.4325C204.494 45.5158 204.613 45.5575 204.745 45.5575C204.878 45.5575 204.997 45.5158 205.101 45.4325C205.205 45.3466 205.286 45.1942 205.343 44.9755C205.419 44.6942 205.456 44.2177 205.456 43.5458C205.456 42.8739 205.422 42.413 205.355 42.163C205.287 41.9104 205.201 41.7424 205.097 41.6591C204.995 41.5731 204.878 41.5302 204.745 41.5302Z" fill="white"/>
</g>
<g id="tb21">
<path id="Vector_19" d="M226.68 0.76001H215.16C214.055 0.76001 213.16 1.65544 213.16 2.76001V33.29C213.16 34.3946 214.055 35.29 215.16 35.29H226.68C227.785 35.29 228.68 34.3946 228.68 33.29V2.76001C228.68 1.65544 227.785 0.76001 226.68 0.76001Z" fill="#3D73B8"/>
<path id="21" d="M220.774 29.6105V30.63H216.926C216.968 30.2446 217.093 29.88 217.301 29.5363C217.509 29.1899 217.921 28.7316 218.535 28.1613C219.03 27.7003 219.334 27.3878 219.446 27.2238C219.597 26.9972 219.672 26.7732 219.672 26.5519C219.672 26.3071 219.606 26.1196 219.473 25.9894C219.343 25.8566 219.162 25.7902 218.93 25.7902C218.701 25.7902 218.519 25.8592 218.383 25.9972C218.248 26.1352 218.17 26.3644 218.149 26.6847L217.055 26.5753C217.12 25.9712 217.325 25.5376 217.668 25.2745C218.012 25.0115 218.442 24.88 218.957 24.88C219.522 24.88 219.966 25.0323 220.289 25.337C220.612 25.6417 220.774 26.0206 220.774 26.4738C220.774 26.7316 220.727 26.9777 220.633 27.212C220.542 27.4438 220.396 27.6873 220.196 27.9425C220.063 28.1118 219.823 28.3553 219.477 28.673C219.131 28.9907 218.91 29.2016 218.817 29.3058C218.726 29.41 218.651 29.5115 218.594 29.6105H220.774ZM224.328 30.63H223.231V26.4933C222.83 26.8683 222.357 27.1456 221.813 27.3253V26.3292C222.099 26.2355 222.41 26.0584 222.746 25.798C223.082 25.535 223.313 25.229 223.438 24.88H224.328V30.63Z" fill="white"/>
</g>
<g id="tb22">
<path id="Vector_20" d="M208.87 0.660004H197.35C196.245 0.660004 195.35 1.55543 195.35 2.66V33.19C195.35 34.2946 196.245 35.19 197.35 35.19H208.87C209.975 35.19 210.87 34.2946 210.87 33.19V2.66C210.87 1.55543 209.975 0.660004 208.87 0.660004Z" fill="#3D73B8"/>
<path id="22" d="M202.774 7.10046V8.12H198.926C198.968 7.73458 199.093 7.37 199.301 7.02625C199.509 6.67989 199.921 6.22156 200.535 5.65125C201.03 5.19031 201.334 4.87781 201.446 4.71375C201.597 4.48718 201.672 4.26322 201.672 4.04187C201.672 3.79708 201.606 3.60958 201.473 3.47937C201.343 3.34656 201.162 3.28015 200.93 3.28015C200.701 3.28015 200.519 3.34916 200.383 3.48718C200.248 3.6252 200.17 3.85437 200.149 4.17468L199.055 4.06531C199.12 3.46114 199.325 3.02755 199.668 2.76453C200.012 2.50151 200.442 2.37 200.957 2.37C201.522 2.37 201.966 2.52234 202.289 2.82703C202.612 3.13171 202.774 3.51062 202.774 3.96375C202.774 4.22156 202.727 4.46765 202.633 4.70203C202.542 4.9338 202.396 5.17729 202.196 5.4325C202.063 5.60177 201.823 5.84526 201.477 6.16296C201.131 6.48067 200.91 6.69161 200.817 6.79578C200.726 6.89994 200.651 7.00151 200.594 7.10046H202.774ZM207.227 7.10046V8.12H203.379C203.421 7.73458 203.546 7.37 203.754 7.02625C203.963 6.67989 204.374 6.22156 204.989 5.65125C205.483 5.19031 205.787 4.87781 205.899 4.71375C206.05 4.48718 206.125 4.26322 206.125 4.04187C206.125 3.79708 206.059 3.60958 205.926 3.47937C205.796 3.34656 205.615 3.28015 205.383 3.28015C205.154 3.28015 204.972 3.34916 204.836 3.48718C204.701 3.6252 204.623 3.85437 204.602 4.17468L203.508 4.06531C203.573 3.46114 203.778 3.02755 204.121 2.76453C204.465 2.50151 204.895 2.37 205.41 2.37C205.976 2.37 206.42 2.52234 206.743 2.82703C207.065 3.13171 207.227 3.51062 207.227 3.96375C207.227 4.22156 207.18 4.46765 207.086 4.70203C206.995 4.9338 206.849 5.17729 206.649 5.4325C206.516 5.60177 206.276 5.84526 205.93 6.16296C205.584 6.48067 205.364 6.69161 205.27 6.79578C205.179 6.89994 205.105 7.00151 205.047 7.10046H207.227Z" fill="white"/>
</g>
<g id="tb23">
<path id="Vector_21" d="M162.52 36.77H131.99C130.885 36.77 129.99 37.6654 129.99 38.77V50.29C129.99 51.3946 130.885 52.29 131.99 52.29H162.52C163.625 52.29 164.52 51.3946 164.52 50.29V38.77C164.52 37.6654 163.625 36.77 162.52 36.77Z" fill="#3D73B8"/>
<path id="23" d="M136.394 45.3505V46.37H132.546C132.588 45.9846 132.713 45.62 132.921 45.2762C133.129 44.9299 133.541 44.4716 134.155 43.9012C134.65 43.4403 134.954 43.1278 135.066 42.9637C135.217 42.7372 135.292 42.5132 135.292 42.2919C135.292 42.0471 135.226 41.8596 135.093 41.7294C134.963 41.5966 134.782 41.5302 134.55 41.5302C134.321 41.5302 134.138 41.5992 134.003 41.7372C133.868 41.8752 133.79 42.1044 133.769 42.4247L132.675 42.3153C132.74 41.7111 132.944 41.2775 133.288 41.0145C133.632 40.7515 134.062 40.62 134.577 40.62C135.142 40.62 135.586 40.7723 135.909 41.077C136.232 41.3817 136.394 41.7606 136.394 42.2137C136.394 42.4716 136.347 42.7177 136.253 42.952C136.162 43.1838 136.016 43.4273 135.816 43.6825C135.683 43.8518 135.443 44.0953 135.097 44.413C134.75 44.7307 134.53 44.9416 134.437 45.0458C134.346 45.1499 134.271 45.2515 134.214 45.3505H136.394ZM137.101 44.8505L138.163 44.7216C138.197 44.9924 138.288 45.1994 138.437 45.3427C138.585 45.4859 138.765 45.5575 138.976 45.5575C139.202 45.5575 139.392 45.4716 139.546 45.2997C139.702 45.1278 139.78 44.896 139.78 44.6044C139.78 44.3283 139.706 44.1096 139.558 43.9481C139.409 43.7867 139.228 43.7059 139.015 43.7059C138.874 43.7059 138.706 43.7333 138.511 43.788L138.632 42.8934C138.929 42.9012 139.155 42.8374 139.312 42.702C139.468 42.564 139.546 42.3817 139.546 42.1552C139.546 41.9624 139.489 41.8088 139.374 41.6942C139.26 41.5796 139.107 41.5223 138.917 41.5223C138.73 41.5223 138.569 41.5874 138.437 41.7177C138.304 41.8479 138.223 42.038 138.194 42.288L137.183 42.1161C137.253 41.7697 137.359 41.4937 137.499 41.288C137.642 41.0796 137.84 40.9169 138.093 40.7997C138.348 40.6799 138.633 40.62 138.948 40.62C139.487 40.62 139.92 40.7919 140.245 41.1356C140.513 41.4169 140.648 41.7346 140.648 42.0887C140.648 42.5913 140.373 42.9924 139.823 43.2919C140.152 43.3622 140.413 43.5197 140.609 43.7645C140.806 44.0093 140.905 44.3049 140.905 44.6512C140.905 45.1538 140.722 45.5822 140.355 45.9364C139.987 46.2906 139.53 46.4677 138.984 46.4677C138.465 46.4677 138.036 46.3192 137.694 46.0223C137.353 45.7229 137.155 45.3322 137.101 44.8505Z" fill="white"/>
</g>
<g id="tb24">
<path id="Vector_22" d="M161.72 0.76001H150.2C149.095 0.76001 148.2 1.65544 148.2 2.76001V33.29C148.2 34.3946 149.095 35.29 150.2 35.29H161.72C162.825 35.29 163.72 34.3946 163.72 33.29V2.76001C163.72 1.65544 162.825 0.76001 161.72 0.76001Z" fill="#3D73B8"/>
<path id="24" d="M156.284 29.3205V30.34H152.436C152.478 29.9546 152.603 29.59 152.811 29.2463C153.019 28.8999 153.431 28.4416 154.045 27.8713C154.54 27.4103 154.844 27.0978 154.956 26.9338C155.107 26.7072 155.182 26.4832 155.182 26.2619C155.182 26.0171 155.116 25.8296 154.983 25.6994C154.853 25.5666 154.672 25.5002 154.44 25.5002C154.211 25.5002 154.028 25.5692 153.893 25.7072C153.758 25.8452 153.68 26.0744 153.659 26.3947L152.565 26.2853C152.63 25.6812 152.834 25.2476 153.178 24.9845C153.522 24.7215 153.952 24.59 154.467 24.59C155.032 24.59 155.476 24.7424 155.799 25.047C156.122 25.3517 156.284 25.7306 156.284 26.1838C156.284 26.4416 156.237 26.6877 156.143 26.922C156.052 27.1538 155.906 27.3973 155.706 27.6525C155.573 27.8218 155.333 28.0653 154.987 28.383C154.64 28.7007 154.42 28.9116 154.327 29.0158C154.236 29.12 154.161 29.2215 154.104 29.3205H156.284ZM159.182 30.34V29.1877H156.838V28.2267L159.323 24.59H160.245V28.2228H160.956V29.1877H160.245V30.34H159.182ZM159.182 28.2228V26.2658L157.866 28.2228H159.182Z" fill="white"/>
</g>
<g id="tb25">
<path id="Vector_23" d="M143.9 0.660004H132.38C131.275 0.660004 130.38 1.55543 130.38 2.66V33.19C130.38 34.2946 131.275 35.19 132.38 35.19H143.9C145.005 35.19 145.9 34.2946 145.9 33.19V2.66C145.9 1.55543 145.005 0.660004 143.9 0.660004Z" fill="#3D73B8"/>
<path id="25" d="M137.394 7.10046V8.12H133.546C133.588 7.73458 133.713 7.37 133.921 7.02625C134.129 6.67989 134.541 6.22156 135.155 5.65125C135.65 5.19031 135.954 4.87781 136.066 4.71375C136.217 4.48718 136.292 4.26322 136.292 4.04187C136.292 3.79708 136.226 3.60958 136.093 3.47937C135.963 3.34656 135.782 3.28015 135.55 3.28015C135.321 3.28015 135.138 3.34916 135.003 3.48718C134.868 3.6252 134.79 3.85437 134.769 4.17468L133.675 4.06531C133.74 3.46114 133.944 3.02755 134.288 2.76453C134.632 2.50151 135.062 2.37 135.577 2.37C136.142 2.37 136.586 2.52234 136.909 2.82703C137.232 3.13171 137.394 3.51062 137.394 3.96375C137.394 4.22156 137.347 4.46765 137.253 4.70203C137.162 4.9338 137.016 5.17729 136.816 5.4325C136.683 5.60177 136.443 5.84526 136.097 6.16296C135.75 6.48067 135.53 6.69161 135.437 6.79578C135.346 6.89994 135.271 7.00151 135.214 7.10046H137.394ZM138.155 6.64734L139.249 6.53406C139.28 6.78145 139.373 6.97807 139.527 7.1239C139.68 7.26713 139.857 7.33875 140.058 7.33875C140.287 7.33875 140.481 7.2463 140.64 7.0614C140.799 6.8739 140.878 6.59265 140.878 6.21765C140.878 5.86609 140.799 5.60307 140.64 5.42859C140.484 5.25151 140.279 5.16296 140.027 5.16296C139.711 5.16296 139.429 5.30229 139.179 5.58093L138.288 5.45203L138.851 2.47156H141.753V3.4989H139.683L139.511 4.47156C139.756 4.34916 140.006 4.28796 140.261 4.28796C140.748 4.28796 141.161 4.46505 141.499 4.81921C141.838 5.17338 142.007 5.63302 142.007 6.19812C142.007 6.66947 141.87 7.09005 141.597 7.45984C141.224 7.96505 140.708 8.21765 140.046 8.21765C139.517 8.21765 139.086 8.07572 138.753 7.79187C138.42 7.50802 138.221 7.12651 138.155 6.64734Z" fill="white"/>
</g>
<g id="tb26">
<path id="Vector_24" d="M93.5 0.76001H81.98C80.8754 0.76001 79.98 1.65544 79.98 2.76001V33.29C79.98 34.3946 80.8754 35.29 81.98 35.29H93.5C94.6046 35.29 95.5 34.3946 95.5 33.29V2.76001C95.5 1.65544 94.6046 0.76001 93.5 0.76001Z" fill="#3D73B8"/>
<path id="27" d="M87.5537 29.6105V30.63H83.7061C83.7478 30.2446 83.8728 29.88 84.0811 29.5363C84.2894 29.1899 84.7009 28.7316 85.3155 28.1613C85.8103 27.7003 86.1136 27.3878 86.2256 27.2238C86.3767 26.9972 86.4522 26.7732 86.4522 26.5519C86.4522 26.3071 86.3858 26.1196 86.253 25.9894C86.1228 25.8566 85.9418 25.7902 85.71 25.7902C85.4808 25.7902 85.2985 25.8592 85.1631 25.9972C85.0277 26.1352 84.9496 26.3644 84.9287 26.6847L83.835 26.5753C83.9001 25.9712 84.1045 25.5376 84.4483 25.2745C84.792 25.0115 85.2217 24.88 85.7373 24.88C86.3024 24.88 86.7464 25.0323 87.0694 25.337C87.3923 25.6417 87.5537 26.0206 87.5537 26.4738C87.5537 26.7316 87.5069 26.9777 87.4131 27.212C87.322 27.4438 87.1761 27.6873 86.9756 27.9425C86.8428 28.1118 86.6032 28.3553 86.2569 28.673C85.9105 28.9907 85.6905 29.2016 85.5967 29.3058C85.5056 29.41 85.4313 29.5115 85.3741 29.6105H87.5537ZM88.2998 26.0011V24.9816H92.0537V25.7784C91.7438 26.0831 91.4287 26.5206 91.1084 27.0909C90.7881 27.6613 90.5433 28.268 90.3741 28.9113C90.2074 29.5519 90.1254 30.1248 90.128 30.63H89.0694C89.0876 29.8383 89.2504 29.031 89.5576 28.2081C89.8675 27.3852 90.2803 26.6495 90.7959 26.0011H88.2998Z" fill="white"/>
</g>
<g id="tb27">
<path id="Vector_25" d="M94.31 36.76H63.78C62.6754 36.76 61.78 37.6554 61.78 38.76V50.28C61.78 51.3846 62.6754 52.28 63.78 52.28H94.31C95.4146 52.28 96.31 51.3846 96.31 50.28V38.76C96.31 37.6554 95.4146 36.76 94.31 36.76Z" fill="#3D73B8"/>
<path id="26" d="M68.7838 45.3205V46.34H64.9361C64.9778 45.9546 65.1028 45.59 65.3111 45.2462C65.5194 44.8999 65.9309 44.4416 66.5455 43.8712C67.0403 43.4103 67.3436 43.0978 67.4556 42.9337C67.6067 42.7072 67.6822 42.4832 67.6822 42.2619C67.6822 42.0171 67.6158 41.8296 67.483 41.6994C67.3528 41.5666 67.1718 41.5002 66.94 41.5002C66.7108 41.5002 66.5285 41.5692 66.3931 41.7072C66.2577 41.8452 66.1796 42.0744 66.1588 42.3947L65.065 42.2853C65.1301 41.6811 65.3345 41.2475 65.6783 40.9845C66.022 40.7215 66.4517 40.59 66.9673 40.59C67.5325 40.59 67.9765 40.7423 68.2994 41.047C68.6223 41.3517 68.7838 41.7306 68.7838 42.1837C68.7838 42.4416 68.7369 42.6877 68.6431 42.922C68.552 43.1538 68.4061 43.3973 68.2056 43.6525C68.0728 43.8218 67.8332 44.0653 67.4869 44.383C67.1405 44.7007 66.9205 44.9116 66.8267 45.0158C66.7356 45.1199 66.6614 45.2215 66.6041 45.3205H68.7838ZM73.2486 42.0158L72.1861 42.133C72.1601 41.9142 72.0923 41.7528 71.983 41.6486C71.8736 41.5444 71.7317 41.4923 71.5572 41.4923C71.3254 41.4923 71.1288 41.5965 70.9673 41.8048C70.8085 42.0132 70.7082 42.4468 70.6666 43.1056C70.94 42.7827 71.2798 42.6212 71.6861 42.6212C72.1444 42.6212 72.5364 42.7957 72.8619 43.1447C73.19 43.4936 73.3541 43.9442 73.3541 44.4962C73.3541 45.0822 73.1822 45.5522 72.8384 45.9064C72.4947 46.2606 72.0533 46.4377 71.5142 46.4377C70.9361 46.4377 70.4608 46.2137 70.0884 45.7658C69.716 45.3153 69.5298 44.5783 69.5298 43.5548C69.5298 42.5054 69.7239 41.7489 70.1119 41.2853C70.4999 40.8218 71.0038 40.59 71.6236 40.59C72.0585 40.59 72.4179 40.7124 72.7017 40.9572C72.9882 41.1994 73.1705 41.5522 73.2486 42.0158ZM70.7603 44.4103C70.7603 44.7671 70.8423 45.0431 71.0064 45.2384C71.1705 45.4311 71.358 45.5275 71.5689 45.5275C71.772 45.5275 71.9413 45.4481 72.0767 45.2892C72.2121 45.1304 72.2798 44.8699 72.2798 44.508C72.2798 44.1356 72.2069 43.8634 72.0611 43.6916C71.9153 43.5171 71.733 43.4298 71.5142 43.4298C71.3033 43.4298 71.1249 43.5132 70.9791 43.6798C70.8332 43.8439 70.7603 44.0874 70.7603 44.4103Z" fill="white"/>
</g>
<g id="tb28">
<path id="Vector_26" d="M75.69 0.660004H64.17C63.0654 0.660004 62.17 1.55543 62.17 2.66V33.19C62.17 34.2946 63.0654 35.19 64.17 35.19H75.69C76.7946 35.19 77.69 34.2946 77.69 33.19V2.66C77.69 1.55543 76.7946 0.660004 75.69 0.660004Z" fill="#3D73B8"/>
<path id="28" d="M69.5837 6.82047V7.84H65.7361C65.7778 7.45458 65.9028 7.09 66.1111 6.74625C66.3194 6.39989 66.7309 5.94156 67.3455 5.37125C67.8403 4.91031 68.1436 4.59781 68.2556 4.43375C68.4067 4.20718 68.4822 3.98323 68.4822 3.76187C68.4822 3.51708 68.4158 3.32958 68.283 3.19937C68.1528 3.06656 67.9718 3.00015 67.74 3.00015C67.5108 3.00015 67.3285 3.06916 67.1931 3.20718C67.0577 3.3452 66.9796 3.57437 66.9587 3.89468L65.865 3.78531C65.9301 3.18114 66.1345 2.74755 66.4783 2.48453C66.822 2.22151 67.2517 2.09 67.7673 2.09C68.3324 2.09 68.7764 2.24234 69.0994 2.54703C69.4223 2.85172 69.5837 3.23062 69.5837 3.68375C69.5837 3.94156 69.5369 4.18765 69.4431 4.42203C69.352 4.6538 69.2061 4.89729 69.0056 5.1525C68.8728 5.32177 68.6332 5.56526 68.2869 5.88297C67.9405 6.20067 67.7205 6.41161 67.6267 6.51578C67.5356 6.61994 67.4613 6.72151 67.4041 6.82047H69.5837ZM71.2712 4.75015C70.9874 4.63036 70.7804 4.4663 70.6501 4.25797C70.5225 4.04703 70.4587 3.81656 70.4587 3.56656C70.4587 3.13948 70.6072 2.78661 70.9041 2.50797C71.2035 2.22932 71.628 2.09 72.1775 2.09C72.7218 2.09 73.1436 2.22932 73.4431 2.50797C73.7452 2.78661 73.8962 3.13948 73.8962 3.56656C73.8962 3.83218 73.8272 4.06916 73.6892 4.2775C73.5512 4.48323 73.3572 4.64078 73.1072 4.75015C73.4249 4.87776 73.6658 5.06395 73.8298 5.30875C73.9965 5.55354 74.0798 5.83609 74.0798 6.1564C74.0798 6.68505 73.9106 7.11474 73.572 7.44547C73.2361 7.77619 72.7882 7.94156 72.2283 7.94156C71.7074 7.94156 71.2738 7.80484 70.9275 7.5314C70.5186 7.20849 70.3142 6.76578 70.3142 6.20328C70.3142 5.89338 70.391 5.60953 70.5447 5.35172C70.6983 5.0913 70.9405 4.89078 71.2712 4.75015ZM71.4978 3.64468C71.4978 3.86343 71.559 4.03401 71.6814 4.1564C71.8064 4.2788 71.9718 4.34 72.1775 4.34C72.3858 4.34 72.5525 4.2788 72.6775 4.1564C72.8025 4.0314 72.865 3.85953 72.865 3.64078C72.865 3.43505 72.8025 3.27099 72.6775 3.14859C72.5551 3.02359 72.3923 2.96109 72.1892 2.96109C71.9783 2.96109 71.8103 3.02359 71.6853 3.14859C71.5603 3.27359 71.4978 3.43895 71.4978 3.64468ZM71.3962 6.09781C71.3962 6.39989 71.4731 6.63557 71.6267 6.80484C71.783 6.97411 71.977 7.05875 72.2087 7.05875C72.4353 7.05875 72.6228 6.97802 72.7712 6.81656C72.9197 6.6525 72.9939 6.41682 72.9939 6.10953C72.9939 5.8413 72.9184 5.62645 72.7673 5.465C72.6163 5.30093 72.4249 5.2189 72.1931 5.2189C71.9249 5.2189 71.7244 5.31135 71.5916 5.49625C71.4613 5.68114 71.3962 5.88166 71.3962 6.09781Z" fill="white"/>
</g>
<g id="tb29">
<path id="Vector_27" d="M32.98 36.76H2.44998C1.34541 36.76 0.449982 37.6554 0.449982 38.76V50.28C0.449982 51.3846 1.34541 52.28 2.44998 52.28H32.98C34.0845 52.28 34.98 51.3846 34.98 50.28V38.76C34.98 37.6554 34.0846 36.76 32.98 36.76Z" fill="#3D73B8"/>
<path id="29" d="M7.44373 45.1605V46.18H3.59607C3.63774 45.7946 3.76274 45.43 3.97107 45.0863C4.1794 44.7399 4.59086 44.2816 5.20544 43.7113C5.70024 43.2503 6.00362 42.9378 6.1156 42.7738C6.26664 42.5472 6.34216 42.3232 6.34216 42.1019C6.34216 41.8571 6.27576 41.6696 6.14294 41.5394C6.01274 41.4066 5.83175 41.3402 5.59998 41.3402C5.37081 41.3402 5.18852 41.4092 5.0531 41.5472C4.91768 41.6852 4.83956 41.9144 4.81873 42.2347L3.72498 42.1253C3.79008 41.5212 3.99451 41.0876 4.33826 40.8245C4.68201 40.5615 5.11169 40.43 5.62732 40.43C6.19242 40.43 6.63643 40.5824 6.95935 40.887C7.28227 41.1917 7.44373 41.5706 7.44373 42.0238C7.44373 42.2816 7.39685 42.5277 7.3031 42.762C7.21195 42.9938 7.06612 43.2373 6.8656 43.4925C6.73279 43.6618 6.4932 43.9053 6.14685 44.223C5.8005 44.5407 5.58044 44.7516 5.48669 44.8558C5.39555 44.96 5.32133 45.0615 5.26404 45.1605H7.44373ZM8.21326 44.8558L9.27576 44.7386C9.3018 44.9547 9.36951 45.1149 9.47888 45.2191C9.58826 45.3232 9.73279 45.3753 9.91248 45.3753C10.139 45.3753 10.3317 45.2712 10.4906 45.0628C10.6495 44.8545 10.751 44.4222 10.7953 43.7659C10.5192 44.0863 10.1742 44.2464 9.76013 44.2464C9.30961 44.2464 8.92029 44.0732 8.59216 43.7269C8.26664 43.3779 8.10388 42.9248 8.10388 42.3675C8.10388 41.7868 8.27576 41.3193 8.61951 40.9652C8.96586 40.6084 9.40597 40.43 9.93982 40.43C10.5205 40.43 10.9971 40.6553 11.3695 41.1058C11.7419 41.5537 11.9281 42.292 11.9281 43.3206C11.9281 44.3675 11.7341 45.1227 11.3461 45.5863C10.958 46.0498 10.4528 46.2816 9.83044 46.2816C9.38253 46.2816 9.02055 46.1631 8.74451 45.9261C8.46847 45.6865 8.29138 45.3297 8.21326 44.8558ZM10.6976 42.4574C10.6976 42.1032 10.6156 41.8284 10.4515 41.6331C10.2901 41.4378 10.1026 41.3402 9.88904 41.3402C9.68591 41.3402 9.51664 41.4209 9.38123 41.5824C9.24841 41.7412 9.18201 42.0029 9.18201 42.3675C9.18201 42.7373 9.25492 43.0094 9.40076 43.1839C9.54659 43.3558 9.72888 43.4417 9.94763 43.4417C10.1586 43.4417 10.3357 43.3584 10.4789 43.1917C10.6247 43.0251 10.6976 42.7803 10.6976 42.4574Z" fill="white"/>
</g>
<g id="tb30">
<path id="Vector_28" d="M32.52 0.76001H21C19.8954 0.76001 19 1.65544 19 2.76001V33.29C19 34.3946 19.8954 35.29 21 35.29H32.52C33.6246 35.29 34.52 34.3946 34.52 33.29V2.76001C34.52 1.65544 33.6246 0.76001 32.52 0.76001Z" fill="#3D73B8"/>
<path id="30" d="M22.3477 29.7305L23.4102 29.6016C23.444 29.8724 23.5352 30.0794 23.6836 30.2227C23.832 30.3659 24.0117 30.4375 24.2227 30.4375C24.4492 30.4375 24.6393 30.3516 24.793 30.1797C24.9492 30.0078 25.0273 29.7761 25.0273 29.4844C25.0273 29.2083 24.9531 28.9896 24.8047 28.8281C24.6562 28.6667 24.4753 28.586 24.2617 28.586C24.1211 28.586 23.9531 28.6133 23.7578 28.668L23.8789 27.7735C24.1758 27.7813 24.4023 27.7175 24.5586 27.582C24.7148 27.444 24.793 27.2617 24.793 27.0352C24.793 26.8425 24.7357 26.6888 24.6211 26.5742C24.5065 26.4597 24.3542 26.4024 24.1641 26.4024C23.9766 26.4024 23.8164 26.4675 23.6836 26.5977C23.5508 26.7279 23.4701 26.918 23.4414 27.168L22.4297 26.9961C22.5 26.6498 22.6055 26.3737 22.7461 26.168C22.8893 25.9597 23.0872 25.7969 23.3398 25.6797C23.5951 25.5599 23.8802 25.5 24.1953 25.5C24.7344 25.5 25.1667 25.6719 25.4922 26.0156C25.7604 26.2969 25.8945 26.6146 25.8945 26.9688C25.8945 27.4714 25.6198 27.8724 25.0703 28.1719C25.3984 28.2422 25.6602 28.3998 25.8555 28.6445C26.0534 28.8893 26.1523 29.1849 26.1523 29.5313C26.1523 30.0339 25.9688 30.4623 25.6016 30.8164C25.2344 31.1706 24.7773 31.3477 24.2305 31.3477C23.7122 31.3477 23.2826 31.1992 22.9414 30.9024C22.6003 30.6029 22.4023 30.2123 22.3477 29.7305ZM28.6953 25.5C29.25 25.5 29.6836 25.6979 29.9961 26.0938C30.3685 26.5625 30.5547 27.3399 30.5547 28.4258C30.5547 29.5091 30.3672 30.2878 29.9922 30.7617C29.6823 31.1524 29.25 31.3477 28.6953 31.3477C28.138 31.3477 27.6888 31.1341 27.3477 30.707C27.0065 30.2774 26.8359 29.513 26.8359 28.4141C26.8359 27.336 27.0234 26.5599 27.3984 26.086C27.7083 25.6953 28.1406 25.5 28.6953 25.5ZM28.6953 26.4102C28.5625 26.4102 28.444 26.4531 28.3398 26.5391C28.2357 26.6224 28.1549 26.7735 28.0977 26.9922C28.0221 27.2761 27.9844 27.7539 27.9844 28.4258C27.9844 29.0977 28.0182 29.5599 28.0859 29.8125C28.1536 30.0625 28.2383 30.2292 28.3398 30.3125C28.444 30.3958 28.5625 30.4375 28.6953 30.4375C28.8281 30.4375 28.9466 30.3958 29.0508 30.3125C29.1549 30.2266 29.2357 30.0742 29.293 29.8555C29.3685 29.5742 29.4062 29.0977 29.4062 28.4258C29.4062 27.7539 29.3724 27.293 29.3047 27.043C29.237 26.7904 29.151 26.6224 29.0469 26.5391C28.9453 26.4531 28.8281 26.4102 28.6953 26.4102Z" fill="white"/>
</g>
</g>
</g>
</svg>
