<svg width="331" height="198" viewBox="0 0 331 198" fill="none" xmlns="http://www.w3.org/2000/svg">
<g id="Layer 2">
<g id="Tables">
<g id="tb2">
<path id="Vector" d="M312.24 180.66H281.71C280.605 180.66 279.71 181.555 279.71 182.66V194.18C279.71 195.285 280.605 196.18 281.71 196.18H312.24C313.345 196.18 314.24 195.285 314.24 194.18V182.66C314.24 181.555 313.345 180.66 312.24 180.66Z" fill="#3D73B8"/>
<text id="2" fill="white" xml:space="preserve" style="white-space: pre" font-family="Arial" font-size="9.93" font-weight="bold" letter-spacing="0em"><tspan x="284.466" y="191.473">2</tspan></text>
</g>
<g id="tb3">
<path id="Vector_2" d="M312.34 162.85H281.81C280.705 162.85 279.81 163.745 279.81 164.85V176.37C279.81 177.475 280.705 178.37 281.81 178.37H312.34C313.445 178.37 314.34 177.475 314.34 176.37V164.85C314.34 163.745 313.445 162.85 312.34 162.85Z" fill="#3D73B8"/>
<text id="3" fill="white" xml:space="preserve" style="white-space: pre" font-family="Arial" font-size="9.93" font-weight="bold" letter-spacing="0em"><tspan x="305.316" y="173.323">3</tspan></text>
</g>
<g id="tb4">
<path id="Vector_3" d="M328.94 162.8H317.42C316.315 162.8 315.42 163.695 315.42 164.8V195.33C315.42 196.435 316.315 197.33 317.42 197.33H328.94C330.044 197.33 330.94 196.435 330.94 195.33V164.8C330.94 163.695 330.044 162.8 328.94 162.8Z" fill="#3D73B8"/>
<text id="4" fill="white" xml:space="preserve" style="white-space: pre" font-family="Arial" font-size="9.93" font-weight="bold" letter-spacing="0em"><tspan x="321.486" y="192.843">4</tspan></text>
</g>
<g id="tb5">
<path id="Vector_4" d="M276.23 162.46H264.71C263.605 162.46 262.71 163.355 262.71 164.46V194.99C262.71 196.095 263.605 196.99 264.71 196.99H276.23C277.335 196.99 278.23 196.095 278.23 194.99V164.46C278.23 163.355 277.335 162.46 276.23 162.46Z" fill="#3D73B8"/>
<text id="5" fill="white" xml:space="preserve" style="white-space: pre" font-family="Arial" font-size="9.93" font-weight="bold" letter-spacing="0em"><tspan x="267.726" y="173.323">5</tspan></text>
</g>
<g id="tb6">
<path id="Vector_5" d="M297.01 114.68H266.48C265.375 114.68 264.48 115.575 264.48 116.68V128.2C264.48 129.305 265.375 130.2 266.48 130.2H297.01C298.115 130.2 299.01 129.305 299.01 128.2V116.68C299.01 115.575 298.115 114.68 297.01 114.68Z" fill="#3D73B8"/>
<text id="6" fill="white" xml:space="preserve" style="white-space: pre" font-family="Arial" font-size="9.93" font-weight="bold" letter-spacing="0em"><tspan x="268.216" y="125.153">6</tspan></text>
</g>
<g id="tb7">
<path id="Vector_6" d="M296.21 77.88H284.69C283.585 77.88 282.69 78.7754 282.69 79.88V110.41C282.69 111.515 283.585 112.41 284.69 112.41H296.21C297.315 112.41 298.21 111.515 298.21 110.41V79.88C298.21 78.7754 297.315 77.88 296.21 77.88Z" fill="#3D73B8"/>
<text id="7" fill="white" xml:space="preserve" style="white-space: pre" font-family="Arial" font-size="9.93" font-weight="bold" letter-spacing="0em"><tspan x="288.796" y="108.263">7</tspan></text>
</g>
<g id="tb8">
<path id="Vector_7" d="M278.4 77.79H266.88C265.775 77.79 264.88 78.6854 264.88 79.79V110.32C264.88 111.425 265.775 112.32 266.88 112.32H278.4C279.505 112.32 280.4 111.425 280.4 110.32V79.79C280.4 78.6854 279.505 77.79 278.4 77.79Z" fill="#3D73B8"/>
<text id="8" fill="white" xml:space="preserve" style="white-space: pre" font-family="Arial" font-size="9.93" font-weight="bold" letter-spacing="0em"><tspan x="269.466" y="87.3525">8</tspan></text>
</g>
<g id="tb9">
<path id="Vector_8" d="M228.3 114.68H197.77C196.665 114.68 195.77 115.575 195.77 116.68V128.2C195.77 129.305 196.665 130.2 197.77 130.2H228.3C229.405 130.2 230.3 129.305 230.3 128.2V116.68C230.3 115.575 229.405 114.68 228.3 114.68Z" fill="#3D73B8"/>
<text id="9" fill="white" xml:space="preserve" style="white-space: pre" font-family="Arial" font-size="8" font-weight="bold" letter-spacing="0em"><tspan x="200.223" y="124.533">9</tspan></text>
</g>
<g id="tb10">
<path id="Vector_9" d="M227.5 78.68H215.98C214.875 78.68 213.98 79.5754 213.98 80.68V111.21C213.98 112.315 214.875 113.21 215.98 113.21H227.5C228.605 113.21 229.5 112.315 229.5 111.21V80.68C229.5 79.5754 228.605 78.68 227.5 78.68Z" fill="#3D73B8"/>
<text id="10" fill="white" xml:space="preserve" style="white-space: pre" font-family="Arial" font-size="8" font-weight="bold" letter-spacing="0em"><tspan x="217.207" y="108.523">10</tspan></text>
</g>
<g id="tb11">
<path id="Vector_10" d="M209.68 78.58H198.16C197.055 78.58 196.16 79.4754 196.16 80.58V111.11C196.16 112.215 197.055 113.11 198.16 113.11H209.68C210.785 113.11 211.68 112.215 211.68 111.11V80.58C211.68 79.4754 210.785 78.58 209.68 78.58Z" fill="#3D73B8"/>
<text id="11" fill="white" xml:space="preserve" style="white-space: pre" font-family="Arial" font-size="8" font-weight="bold" letter-spacing="0em"><tspan x="199.99" y="87.6134">11</tspan></text>
</g>
<g id="tb12">
<path id="Vector_11" d="M160.77 77.75H149.25C148.145 77.75 147.25 78.6454 147.25 79.75V110.28C147.25 111.385 148.145 112.28 149.25 112.28H160.77C161.875 112.28 162.77 111.385 162.77 110.28V79.75C162.77 78.6454 161.875 77.75 160.77 77.75Z" fill="#3D73B8"/>
<text id="12" fill="white" xml:space="preserve" style="white-space: pre" font-family="Arial" font-size="8" font-weight="bold" letter-spacing="0em"><tspan x="150.427" y="108.893">12</tspan></text>
</g>
<g id="tb13">
<path id="Vector_12" d="M161.57 113.76H131.04C129.935 113.76 129.04 114.655 129.04 115.76V127.28C129.04 128.385 129.935 129.28 131.04 129.28H161.57C162.675 129.28 163.57 128.385 163.57 127.28V115.76C163.57 114.655 162.675 113.76 161.57 113.76Z" fill="#3D73B8"/>
<text id="13" fill="white" xml:space="preserve" style="white-space: pre" font-family="Arial" font-size="8" font-weight="bold" letter-spacing="0em"><tspan x="130.847" y="123.743">13</tspan></text>
</g>
<g id="tb14">
<path id="Vector_13" d="M142.96 77.66H131.44C130.335 77.66 129.44 78.5554 129.44 79.66V110.19C129.44 111.295 130.335 112.19 131.44 112.19H142.96C144.065 112.19 144.96 111.295 144.96 110.19V79.66C144.96 78.5554 144.065 77.66 142.96 77.66Z" fill="#3D73B8"/>
<text id="14" fill="white" xml:space="preserve" style="white-space: pre" font-family="Arial" font-size="8" font-weight="bold" letter-spacing="0em"><tspan x="132.797" y="86.6734">14</tspan></text>
</g>
<g id="tb15">
<path id="Vector_14" d="M93.36 113.76H62.83C61.7254 113.76 60.83 114.655 60.83 115.76V127.28C60.83 128.385 61.7254 129.28 62.83 129.28H93.36C94.4646 129.28 95.36 128.385 95.36 127.28V115.76C95.36 114.655 94.4646 113.76 93.36 113.76Z" fill="#3D73B8"/>
<text id="15" fill="white" xml:space="preserve" style="white-space: pre" font-family="Arial" font-size="8" font-weight="bold" letter-spacing="0em"><tspan x="62.4369" y="123.783">15</tspan></text>
</g>
<g id="tb16">
<path id="Vector_15" d="M92.76 77.7H81.24C80.1354 77.7 79.24 78.5954 79.24 79.7V110.23C79.24 111.335 80.1354 112.23 81.24 112.23H92.76C93.8645 112.23 94.76 111.335 94.76 110.23V79.7C94.76 78.5954 93.8645 77.7 92.76 77.7Z" fill="#3D73B8"/>
<text id="16" fill="white" xml:space="preserve" style="white-space: pre" font-family="Arial" font-size="8" font-weight="bold" letter-spacing="0em"><tspan x="82.3369" y="108.443">16</tspan></text>
</g>
<g id="tb17">
<path id="Vector_16" d="M74.95 77.61H63.43C62.3254 77.61 61.43 78.5054 61.43 79.61V110.14C61.43 111.245 62.3254 112.14 63.43 112.14H74.95C76.0546 112.14 76.95 111.245 76.95 110.14V79.61C76.95 78.5054 76.0546 77.61 74.95 77.61Z" fill="#3D73B8"/>
<text id="17" fill="white" xml:space="preserve" style="white-space: pre" font-family="Arial" font-size="8" font-weight="bold" letter-spacing="0em"><tspan x="65.1668" y="86.6734">17</tspan></text>
</g>
<g id="tb18">
<path id="Vector_17" d="M295.78 0.809998H284.26C283.155 0.809998 282.26 1.70543 282.26 2.80999V33.34C282.26 34.4446 283.155 35.34 284.26 35.34H295.78C296.885 35.34 297.78 34.4446 297.78 33.34V2.81C297.78 1.70543 296.885 0.809998 295.78 0.809998Z" fill="#3D73B8"/>
<text id="18" fill="white" xml:space="preserve" style="white-space: pre" font-family="Arial" font-size="8" font-weight="bold" letter-spacing="0em"><tspan x="285.437" y="30.9034">18</tspan></text>
</g>
<g id="tb19">
<path id="Vector_18" d="M277.97 0.710007H266.45C265.345 0.710007 264.45 1.60543 264.45 2.71V33.24C264.45 34.3446 265.345 35.24 266.45 35.24H277.97C279.075 35.24 279.97 34.3446 279.97 33.24V2.71001C279.97 1.60544 279.075 0.710007 277.97 0.710007Z" fill="#3D73B8"/>
<text id="19" fill="white" xml:space="preserve" style="white-space: pre" font-family="Arial" font-size="8" font-weight="bold" letter-spacing="0em"><tspan x="266.837" y="30.6134">19</tspan></text>
</g>
<g id="tb20">
<path id="tb1-3" d="M227.53 37H197C195.895 37 195 37.8954 195 39V50.52C195 51.6246 195.895 52.52 197 52.52H227.53C228.635 52.52 229.53 51.6246 229.53 50.52V39C229.53 37.8954 228.635 37 227.53 37Z" fill="#3D73B8"/>
<text id="20" fill="white" xml:space="preserve" style="white-space: pre" font-family="Arial" font-size="8" font-weight="bold" letter-spacing="0em"><tspan x="198.097" y="46.6434">20</tspan></text>
</g>
<g id="tb21">
<path id="Vector_19" d="M226.68 0.76001H215.16C214.055 0.76001 213.16 1.65544 213.16 2.76001V33.29C213.16 34.3946 214.055 35.29 215.16 35.29H226.68C227.785 35.29 228.68 34.3946 228.68 33.29V2.76001C228.68 1.65544 227.785 0.76001 226.68 0.76001Z" fill="#3D73B8"/>
<text id="21" fill="white" xml:space="preserve" style="white-space: pre" font-family="Arial" font-size="8" font-weight="bold" letter-spacing="0em"><tspan x="216.727" y="30.9034">21</tspan></text>
</g>
<g id="tb22">
<path id="Vector_20" d="M208.87 0.660004H197.35C196.245 0.660004 195.35 1.55543 195.35 2.66V33.19C195.35 34.2946 196.245 35.19 197.35 35.19H208.87C209.975 35.19 210.87 34.2946 210.87 33.19V2.66C210.87 1.55543 209.975 0.660004 208.87 0.660004Z" fill="#3D73B8"/>
<text id="22" fill="white" xml:space="preserve" style="white-space: pre" font-family="Arial" font-size="8" font-weight="bold" letter-spacing="0em"><tspan x="198.727" y="8.39343">22</tspan></text>
</g>
<g id="tb23">
<path id="Vector_21" d="M162.52 36.77H131.99C130.885 36.77 129.99 37.6654 129.99 38.77V50.29C129.99 51.3946 130.885 52.29 131.99 52.29H162.52C163.625 52.29 164.52 51.3946 164.52 50.29V38.77C164.52 37.6654 163.625 36.77 162.52 36.77Z" fill="#3D73B8"/>
<text id="23" fill="white" xml:space="preserve" style="white-space: pre" font-family="Arial" font-size="8" font-weight="bold" letter-spacing="0em"><tspan x="132.347" y="46.6434">23</tspan></text>
</g>
<g id="tb24">
<path id="Vector_22" d="M161.72 0.76001H150.2C149.095 0.76001 148.2 1.65544 148.2 2.76001V33.29C148.2 34.3946 149.095 35.29 150.2 35.29H161.72C162.825 35.29 163.72 34.3946 163.72 33.29V2.76001C163.72 1.65544 162.825 0.76001 161.72 0.76001Z" fill="#3D73B8"/>
<text id="24" fill="white" xml:space="preserve" style="white-space: pre" font-family="Arial" font-size="8" font-weight="bold" letter-spacing="0em"><tspan x="152.237" y="30.6134">24</tspan></text>
</g>
<g id="tb25">
<path id="Vector_23" d="M143.9 0.660004H132.38C131.275 0.660004 130.38 1.55543 130.38 2.66V33.19C130.38 34.2946 131.275 35.19 132.38 35.19H143.9C145.005 35.19 145.9 34.2946 145.9 33.19V2.66C145.9 1.55543 145.005 0.660004 143.9 0.660004Z" fill="#3D73B8"/>
<text id="25" fill="white" xml:space="preserve" style="white-space: pre" font-family="Arial" font-size="8" font-weight="bold" letter-spacing="0em"><tspan x="133.347" y="8.39343">25</tspan></text>
</g>
<g id="tb26">
<path id="Vector_24" d="M93.5 0.76001H81.98C80.8754 0.76001 79.98 1.65544 79.98 2.76001V33.29C79.98 34.3946 80.8754 35.29 81.98 35.29H93.5C94.6046 35.29 95.5 34.3946 95.5 33.29V2.76001C95.5 1.65544 94.6046 0.76001 93.5 0.76001Z" fill="#3D73B8"/>
<text id="27" fill="white" xml:space="preserve" style="white-space: pre" font-family="Arial" font-size="8" font-weight="bold" letter-spacing="0em"><tspan x="83.5069" y="30.9034">27</tspan></text>
</g>
<g id="tb27">
<path id="Vector_25" d="M94.31 36.76H63.78C62.6754 36.76 61.78 37.6554 61.78 38.76V50.28C61.78 51.3846 62.6754 52.28 63.78 52.28H94.31C95.4146 52.28 96.31 51.3846 96.31 50.28V38.76C96.31 37.6554 95.4146 36.76 94.31 36.76Z" fill="#3D73B8"/>
<text id="26" fill="white" xml:space="preserve" style="white-space: pre" font-family="Arial" font-size="8" font-weight="bold" letter-spacing="0em"><tspan x="64.7369" y="46.6134">26</tspan></text>
</g>
<g id="tb28">
<path id="Vector_26" d="M75.69 0.660004H64.17C63.0654 0.660004 62.17 1.55543 62.17 2.66V33.19C62.17 34.2946 63.0654 35.19 64.17 35.19H75.69C76.7946 35.19 77.69 34.2946 77.69 33.19V2.66C77.69 1.55543 76.7946 0.660004 75.69 0.660004Z" fill="#3D73B8"/>
<text id="28" fill="white" xml:space="preserve" style="white-space: pre" font-family="Arial" font-size="8" font-weight="bold" letter-spacing="0em"><tspan x="65.5369" y="8.11343">28</tspan></text>
</g>
<g id="tb29">
<path id="Vector_27" d="M32.98 36.76H2.44998C1.34541 36.76 0.449982 37.6554 0.449982 38.76V50.28C0.449982 51.3846 1.34541 52.28 2.44998 52.28H32.98C34.0845 52.28 34.98 51.3846 34.98 50.28V38.76C34.98 37.6554 34.0846 36.76 32.98 36.76Z" fill="#3D73B8"/>
<text id="29" fill="white" xml:space="preserve" style="white-space: pre" font-family="Arial" font-size="8" font-weight="bold" letter-spacing="0em"><tspan x="3.39685" y="46.4534">29</tspan></text>
</g>
<g id="tb30">
<path id="Vector_28" d="M32.52 0.76001H21C19.8954 0.76001 19 1.65544 19 2.76001V33.29C19 34.3946 19.8954 35.29 21 35.29H32.52C33.6246 35.29 34.52 34.3946 34.52 33.29V2.76001C34.52 1.65544 33.6246 0.76001 32.52 0.76001Z" fill="#3D73B8"/>
<text id="30" fill="white" xml:space="preserve" style="white-space: pre" font-family="Arial" font-size="8" font-weight="bold" letter-spacing="0em"><tspan x="22.0469" y="31.5235">30</tspan></text>
</g>
</g>
</g>
</svg>
