<?xml version="1.0" encoding="UTF-8" standalone="no"?>
<!DOCTYPE svg PUBLIC "-//W3C//DTD SVG 1.1//EN"
 "http://www.w3.org/Graphics/SVG/1.1/DTD/svg11.dtd">
<!-- Generated by graphviz version 2.38.0 (20140413.2041)
 -->
<!-- Title: dependency&#45;cruiser output Pages: 1 -->
<svg width="567pt" height="350pt"
 viewBox="0.00 0.00 567.00 350.00" xmlns="http://www.w3.org/2000/svg" xmlns:xlink="http://www.w3.org/1999/xlink">
<g id="graph0" class="graph" transform="scale(1 1) rotate(0) translate(4 346)">
<title>dependency&#45;cruiser output</title>
<polygon fill="white" stroke="none" points="-4,4 -4,-346 563,-346 563,4 -4,4"/>
<g id="clust1" class="cluster"><title>cluster_app</title>
<path fill="#ffffff" stroke="black" stroke-width="2" d="M74,-8C74,-8 539,-8 539,-8 545,-8 551,-14 551,-20 551,-20 551,-322 551,-322 551,-328 545,-334 539,-334 539,-334 74,-334 74,-334 68,-334 62,-328 62,-322 62,-322 62,-20 62,-20 62,-14 68,-8 74,-8"/>
<text text-anchor="middle" x="306.5" y="-322.8" font-family="Helvetica,sans-Serif" font-weight="bold" font-size="9.00">app</text>
</g>
<g id="clust2" class="cluster"><title>cluster_app/controllers</title>
<path fill="#ffffff" stroke="black" stroke-width="2" d="M216,-16C216,-16 330,-16 330,-16 336,-16 342,-22 342,-28 342,-28 342,-296 342,-296 342,-302 336,-308 330,-308 330,-308 216,-308 216,-308 210,-308 204,-302 204,-296 204,-296 204,-28 204,-28 204,-22 210,-16 216,-16"/>
<text text-anchor="middle" x="273" y="-296.8" font-family="Helvetica,sans-Serif" font-weight="bold" font-size="9.00">controllers</text>
</g>
<g id="clust3" class="cluster"><title>cluster_app/models</title>
<path fill="#ffffff" stroke="black" stroke-width="2" d="M362,-31C362,-31 531,-31 531,-31 537,-31 543,-37 543,-43 543,-43 543,-251 543,-251 543,-257 537,-263 531,-263 531,-263 362,-263 362,-263 356,-263 350,-257 350,-251 350,-251 350,-43 350,-43 350,-37 356,-31 362,-31"/>
<text text-anchor="middle" x="446.5" y="-251.8" font-family="Helvetica,sans-Serif" font-weight="bold" font-size="9.00">models</text>
</g>
<g id="clust4" class="cluster"><title>cluster_app/routes</title>
<path fill="#ffffff" stroke="black" stroke-width="2" d="M82,-16C82,-16 184,-16 184,-16 190,-16 196,-22 196,-28 196,-28 196,-296 196,-296 196,-302 190,-308 184,-308 184,-308 82,-308 82,-308 76,-308 70,-302 70,-296 70,-296 70,-28 70,-28 70,-22 76,-16 82,-16"/>
<text text-anchor="middle" x="133" y="-296.8" font-family="Helvetica,sans-Serif" font-weight="bold" font-size="9.00">routes</text>
</g>
<!-- app/controllers/graphToken.controller.js -->
<g id="node1" class="node"><title>app/controllers/graphToken.controller.js</title>
<g id="a_node1"><a xlink:href="app/controllers/graphToken.controller.js" xlink:title="graphToken.controller.js">
<path fill="#ffffcc" stroke="black" d="M325,-282C325,-282 221,-282 221,-282 218,-282 215,-279 215,-276 215,-276 215,-270 215,-270 215,-267 218,-264 221,-264 221,-264 325,-264 325,-264 328,-264 331,-267 331,-270 331,-270 331,-276 331,-276 331,-279 328,-282 325,-282"/>
<text text-anchor="middle" x="273" y="-270.8" font-family="Helvetica,sans-Serif" font-size="9.00">graphToken.controller.js</text>
</a>
</g>
</g>
<!-- app/controllers/hours.controller.js -->
<g id="node2" class="node"><title>app/controllers/hours.controller.js</title>
<g id="a_node2"><a xlink:href="app/controllers/hours.controller.js" xlink:title="hours.controller.js">
<path fill="#ffffcc" stroke="black" d="M312.5,-252C312.5,-252 233.5,-252 233.5,-252 230.5,-252 227.5,-249 227.5,-246 227.5,-246 227.5,-240 227.5,-240 227.5,-237 230.5,-234 233.5,-234 233.5,-234 312.5,-234 312.5,-234 315.5,-234 318.5,-237 318.5,-240 318.5,-240 318.5,-246 318.5,-246 318.5,-249 315.5,-252 312.5,-252"/>
<text text-anchor="middle" x="273" y="-240.8" font-family="Helvetica,sans-Serif" font-size="9.00">hours.controller.js</text>
</a>
</g>
</g>
<!-- app/models/index.js -->
<g id="node3" class="node"><title>app/models/index.js</title>
<g id="a_node3"><a xlink:href="app/models/index.js" xlink:title="index.js">
<path fill="#ffffcc" stroke="black" d="M406,-147C406,-147 364,-147 364,-147 361,-147 358,-144 358,-141 358,-141 358,-135 358,-135 358,-132 361,-129 364,-129 364,-129 406,-129 406,-129 409,-129 412,-132 412,-135 412,-135 412,-141 412,-141 412,-144 409,-147 406,-147"/>
<text text-anchor="middle" x="385" y="-135.8" font-family="Helvetica,sans-Serif" font-size="9.00">index.js</text>
</a>
</g>
</g>
<!-- app/controllers/hours.controller.js&#45;&gt;app/models/index.js -->
<g id="edge1" class="edge"><title>app/controllers/hours.controller.js&#45;&gt;app/models/index.js</title>
<path fill="none" stroke="#000000" stroke-width="2" stroke-opacity="0.200000" d="M318.716,-239.232C327.089,-236.912 335.302,-233.368 342,-228 365.796,-208.928 376.758,-173.253 381.262,-153.018"/>
<polygon fill="#000000" fill-opacity="0.200000" stroke="#000000" stroke-width="2" stroke-opacity="0.200000" points="383.342,-153.333 382.506,-147.031 379.229,-152.479 383.342,-153.333"/>
</g>
<!-- app/models/Hours.model.js -->
<g id="node11" class="node"><title>app/models/Hours.model.js</title>
<g id="a_node11"><a xlink:href="app/models/Hours.model.js" xlink:title="Hours.model.js">
<path fill="#ffffcc" stroke="black" d="M514,-57C514,-57 446,-57 446,-57 443,-57 440,-54 440,-51 440,-51 440,-45 440,-45 440,-42 443,-39 446,-39 446,-39 514,-39 514,-39 517,-39 520,-42 520,-45 520,-45 520,-51 520,-51 520,-54 517,-57 514,-57"/>
<text text-anchor="middle" x="480" y="-45.8" font-family="Helvetica,sans-Serif" font-size="9.00">Hours.model.js</text>
</a>
</g>
</g>
<!-- app/models/index.js&#45;&gt;app/models/Hours.model.js -->
<g id="edge9" class="edge"><title>app/models/index.js&#45;&gt;app/models/Hours.model.js</title>
<path fill="none" stroke="#000000" stroke-width="2" stroke-opacity="0.200000" d="M388.188,-128.866C392.463,-113.021 403.451,-80.4653 425,-63 427.74,-60.7791 430.787,-58.8864 433.999,-57.2735"/>
<polygon fill="#000000" fill-opacity="0.200000" stroke="#000000" stroke-width="2" stroke-opacity="0.200000" points="435.283,-59.0026 439.928,-54.662 433.59,-55.1589 435.283,-59.0026"/>
</g>
<!-- app/models/Locations.model.js -->
<g id="node12" class="node"><title>app/models/Locations.model.js</title>
<g id="a_node12"><a xlink:href="app/models/Locations.model.js" xlink:title="Locations.model.js">
<path fill="#ffffcc" stroke="black" d="M521.5,-87C521.5,-87 438.5,-87 438.5,-87 435.5,-87 432.5,-84 432.5,-81 432.5,-81 432.5,-75 432.5,-75 432.5,-72 435.5,-69 438.5,-69 438.5,-69 521.5,-69 521.5,-69 524.5,-69 527.5,-72 527.5,-75 527.5,-75 527.5,-81 527.5,-81 527.5,-84 524.5,-87 521.5,-87"/>
<text text-anchor="middle" x="480" y="-75.8" font-family="Helvetica,sans-Serif" font-size="9.00">Locations.model.js</text>
</a>
</g>
</g>
<!-- app/models/index.js&#45;&gt;app/models/Locations.model.js -->
<g id="edge10" class="edge"><title>app/models/index.js&#45;&gt;app/models/Locations.model.js</title>
<path fill="none" stroke="#000000" stroke-width="2" stroke-opacity="0.200000" d="M391.453,-128.994C398.112,-118.761 410.32,-102.282 425,-93 426.966,-91.7569 429.036,-90.6151 431.173,-89.5667"/>
<polygon fill="#000000" fill-opacity="0.200000" stroke="#000000" stroke-width="2" stroke-opacity="0.200000" points="432.325,-91.3531 436.961,-87.0036 430.625,-87.5127 432.325,-91.3531"/>
</g>
<!-- app/models/Projects.model.js -->
<g id="node13" class="node"><title>app/models/Projects.model.js</title>
<g id="a_node13"><a xlink:href="app/models/Projects.model.js" xlink:title="Projects.model.js">
<path fill="#ffffcc" stroke="black" d="M518.5,-117C518.5,-117 441.5,-117 441.5,-117 438.5,-117 435.5,-114 435.5,-111 435.5,-111 435.5,-105 435.5,-105 435.5,-102 438.5,-99 441.5,-99 441.5,-99 518.5,-99 518.5,-99 521.5,-99 524.5,-102 524.5,-105 524.5,-105 524.5,-111 524.5,-111 524.5,-114 521.5,-117 518.5,-117"/>
<text text-anchor="middle" x="480" y="-105.8" font-family="Helvetica,sans-Serif" font-size="9.00">Projects.model.js</text>
</a>
</g>
</g>
<!-- app/models/index.js&#45;&gt;app/models/Projects.model.js -->
<g id="edge11" class="edge"><title>app/models/index.js&#45;&gt;app/models/Projects.model.js</title>
<path fill="none" stroke="#000000" stroke-width="2" stroke-opacity="0.200000" d="M408.552,-128.903C413.908,-126.861 419.627,-124.775 425,-123 429.417,-121.541 434.068,-120.103 438.712,-118.731"/>
<polygon fill="#000000" fill-opacity="0.200000" stroke="#000000" stroke-width="2" stroke-opacity="0.200000" points="439.394,-120.719 444.571,-117.029 438.223,-116.686 439.394,-120.719"/>
</g>
<!-- app/models/Schedule.model.js -->
<g id="node14" class="node"><title>app/models/Schedule.model.js</title>
<g id="a_node14"><a xlink:href="app/models/Schedule.model.js" xlink:title="Schedule.model.js">
<path fill="#ffffcc" stroke="black" d="M521,-147C521,-147 439,-147 439,-147 436,-147 433,-144 433,-141 433,-141 433,-135 433,-135 433,-132 436,-129 439,-129 439,-129 521,-129 521,-129 524,-129 527,-132 527,-135 527,-135 527,-141 527,-141 527,-144 524,-147 521,-147"/>
<text text-anchor="middle" x="480" y="-135.8" font-family="Helvetica,sans-Serif" font-size="9.00">Schedule.model.js</text>
</a>
</g>
</g>
<!-- app/models/index.js&#45;&gt;app/models/Schedule.model.js -->
<g id="edge12" class="edge"><title>app/models/index.js&#45;&gt;app/models/Schedule.model.js</title>
<path fill="none" stroke="#000000" stroke-width="2" stroke-opacity="0.200000" d="M412.401,-138C416.932,-138 421.779,-138 426.713,-138"/>
<polygon fill="#000000" fill-opacity="0.200000" stroke="#000000" stroke-width="2" stroke-opacity="0.200000" points="426.994,-140.1 432.994,-138 426.994,-135.9 426.994,-140.1"/>
</g>
<!-- app/models/Supplements.model.js -->
<g id="node15" class="node"><title>app/models/Supplements.model.js</title>
<g id="a_node15"><a xlink:href="app/models/Supplements.model.js" xlink:title="Supplements.model.js">
<path fill="#ffffcc" stroke="black" d="M529,-177C529,-177 431,-177 431,-177 428,-177 425,-174 425,-171 425,-171 425,-165 425,-165 425,-162 428,-159 431,-159 431,-159 529,-159 529,-159 532,-159 535,-162 535,-165 535,-165 535,-171 535,-171 535,-174 532,-177 529,-177"/>
<text text-anchor="middle" x="480" y="-165.8" font-family="Helvetica,sans-Serif" font-size="9.00">Supplements.model.js</text>
</a>
</g>
</g>
<!-- app/models/index.js&#45;&gt;app/models/Supplements.model.js -->
<g id="edge13" class="edge"><title>app/models/index.js&#45;&gt;app/models/Supplements.model.js</title>
<path fill="none" stroke="#000000" stroke-width="2" stroke-opacity="0.200000" d="M408.552,-147.097C413.908,-149.139 419.627,-151.225 425,-153 429.417,-154.459 434.068,-155.897 438.712,-157.269"/>
<polygon fill="#000000" fill-opacity="0.200000" stroke="#000000" stroke-width="2" stroke-opacity="0.200000" points="438.223,-159.314 444.571,-158.971 439.394,-155.281 438.223,-159.314"/>
</g>
<!-- app/models/Tasks.model.js -->
<g id="node16" class="node"><title>app/models/Tasks.model.js</title>
<g id="a_node16"><a xlink:href="app/models/Tasks.model.js" xlink:title="Tasks.model.js">
<path fill="#ffffcc" stroke="black" d="M514,-207C514,-207 446,-207 446,-207 443,-207 440,-204 440,-201 440,-201 440,-195 440,-195 440,-192 443,-189 446,-189 446,-189 514,-189 514,-189 517,-189 520,-192 520,-195 520,-195 520,-201 520,-201 520,-204 517,-207 514,-207"/>
<text text-anchor="middle" x="480" y="-195.8" font-family="Helvetica,sans-Serif" font-size="9.00">Tasks.model.js</text>
</a>
</g>
</g>
<!-- app/models/index.js&#45;&gt;app/models/Tasks.model.js -->
<g id="edge14" class="edge"><title>app/models/index.js&#45;&gt;app/models/Tasks.model.js</title>
<path fill="none" stroke="#000000" stroke-width="2" stroke-opacity="0.200000" d="M391.453,-147.006C398.112,-157.239 410.32,-173.718 425,-183 427.827,-184.787 430.868,-186.365 434.016,-187.758"/>
<polygon fill="#000000" fill-opacity="0.200000" stroke="#000000" stroke-width="2" stroke-opacity="0.200000" points="433.421,-189.782 439.772,-190.069 434.986,-185.884 433.421,-189.782"/>
</g>
<!-- app/models/teams.model.js -->
<g id="node17" class="node"><title>app/models/teams.model.js</title>
<g id="a_node17"><a xlink:href="app/models/teams.model.js" xlink:title="teams.model.js">
<path fill="#ffffcc" stroke="black" d="M514.5,-237C514.5,-237 445.5,-237 445.5,-237 442.5,-237 439.5,-234 439.5,-231 439.5,-231 439.5,-225 439.5,-225 439.5,-222 442.5,-219 445.5,-219 445.5,-219 514.5,-219 514.5,-219 517.5,-219 520.5,-222 520.5,-225 520.5,-225 520.5,-231 520.5,-231 520.5,-234 517.5,-237 514.5,-237"/>
<text text-anchor="middle" x="480" y="-225.8" font-family="Helvetica,sans-Serif" font-size="9.00">teams.model.js</text>
</a>
</g>
</g>
<!-- app/models/index.js&#45;&gt;app/models/teams.model.js -->
<g id="edge15" class="edge"><title>app/models/index.js&#45;&gt;app/models/teams.model.js</title>
<path fill="none" stroke="#000000" stroke-width="2" stroke-opacity="0.200000" d="M388.188,-147.134C392.463,-162.979 403.451,-195.535 425,-213 427.646,-215.144 430.577,-216.983 433.667,-218.559"/>
<polygon fill="#000000" fill-opacity="0.200000" stroke="#000000" stroke-width="2" stroke-opacity="0.200000" points="433.039,-220.578 439.372,-221.121 434.76,-216.747 433.039,-220.578"/>
</g>
<!-- app/controllers/locations.controller.js -->
<g id="node4" class="node"><title>app/controllers/locations.controller.js</title>
<g id="a_node4"><a xlink:href="app/controllers/locations.controller.js" xlink:title="locations.controller.js">
<path fill="#ffffcc" stroke="black" d="M319,-222C319,-222 227,-222 227,-222 224,-222 221,-219 221,-216 221,-216 221,-210 221,-210 221,-207 224,-204 227,-204 227,-204 319,-204 319,-204 322,-204 325,-207 325,-210 325,-210 325,-216 325,-216 325,-219 322,-222 319,-222"/>
<text text-anchor="middle" x="273" y="-210.8" font-family="Helvetica,sans-Serif" font-size="9.00">locations.controller.js</text>
</a>
</g>
</g>
<!-- app/controllers/locations.controller.js&#45;&gt;app/models/index.js -->
<g id="edge2" class="edge"><title>app/controllers/locations.controller.js&#45;&gt;app/models/index.js</title>
<path fill="none" stroke="#000000" stroke-width="2" stroke-opacity="0.200000" d="M325.114,-206.134C331.088,-204.078 336.872,-201.423 342,-198 358.656,-186.882 370.715,-166.733 377.529,-152.874"/>
<polygon fill="#000000" fill-opacity="0.200000" stroke="#000000" stroke-width="2" stroke-opacity="0.200000" points="379.467,-153.687 380.126,-147.365 375.668,-151.897 379.467,-153.687"/>
</g>
<!-- app/controllers/projects.controller.js -->
<g id="node5" class="node"><title>app/controllers/projects.controller.js</title>
<g id="a_node5"><a xlink:href="app/controllers/projects.controller.js" xlink:title="projects.controller.js">
<path fill="#ffffcc" stroke="black" d="M317,-192C317,-192 229,-192 229,-192 226,-192 223,-189 223,-186 223,-186 223,-180 223,-180 223,-177 226,-174 229,-174 229,-174 317,-174 317,-174 320,-174 323,-177 323,-180 323,-180 323,-186 323,-186 323,-189 320,-192 317,-192"/>
<text text-anchor="middle" x="273" y="-180.8" font-family="Helvetica,sans-Serif" font-size="9.00">projects.controller.js</text>
</a>
</g>
</g>
<!-- app/controllers/projects.controller.js&#45;&gt;app/models/index.js -->
<g id="edge3" class="edge"><title>app/controllers/projects.controller.js&#45;&gt;app/models/index.js</title>
<path fill="none" stroke="#000000" stroke-width="2" stroke-opacity="0.200000" d="M323.059,-174.678C329.562,-172.856 336.036,-170.654 342,-168 351.579,-163.738 361.175,-157.105 368.771,-151.159"/>
<polygon fill="#000000" fill-opacity="0.200000" stroke="#000000" stroke-width="2" stroke-opacity="0.200000" points="370.338,-152.593 373.686,-147.19 367.699,-149.326 370.338,-152.593"/>
</g>
<!-- app/controllers/reports.controller.js -->
<g id="node6" class="node"><title>app/controllers/reports.controller.js</title>
<g id="a_node6"><a xlink:href="app/controllers/reports.controller.js" xlink:title="reports.controller.js">
<path fill="#ffffcc" stroke="black" d="M315,-162C315,-162 231,-162 231,-162 228,-162 225,-159 225,-156 225,-156 225,-150 225,-150 225,-147 228,-144 231,-144 231,-144 315,-144 315,-144 318,-144 321,-147 321,-150 321,-150 321,-156 321,-156 321,-159 318,-162 315,-162"/>
<text text-anchor="middle" x="273" y="-150.8" font-family="Helvetica,sans-Serif" font-size="9.00">reports.controller.js</text>
</a>
</g>
</g>
<!-- app/controllers/reports.controller.js&#45;&gt;app/models/index.js -->
<g id="edge4" class="edge"><title>app/controllers/reports.controller.js&#45;&gt;app/models/index.js</title>
<path fill="none" stroke="#000000" stroke-width="2" stroke-opacity="0.200000" d="M321.288,-146.552C331.606,-145.145 342.293,-143.687 351.858,-142.383"/>
<polygon fill="#000000" fill-opacity="0.200000" stroke="#000000" stroke-width="2" stroke-opacity="0.200000" points="352.305,-144.442 357.966,-141.55 351.738,-140.28 352.305,-144.442"/>
</g>
<!-- app/controllers/schedule.controller.js -->
<g id="node7" class="node"><title>app/controllers/schedule.controller.js</title>
<g id="a_node7"><a xlink:href="app/controllers/schedule.controller.js" xlink:title="schedule.controller.js">
<path fill="#ffffcc" stroke="black" d="M319.5,-132C319.5,-132 226.5,-132 226.5,-132 223.5,-132 220.5,-129 220.5,-126 220.5,-126 220.5,-120 220.5,-120 220.5,-117 223.5,-114 226.5,-114 226.5,-114 319.5,-114 319.5,-114 322.5,-114 325.5,-117 325.5,-120 325.5,-120 325.5,-126 325.5,-126 325.5,-129 322.5,-132 319.5,-132"/>
<text text-anchor="middle" x="273" y="-120.8" font-family="Helvetica,sans-Serif" font-size="9.00">schedule.controller.js</text>
</a>
</g>
</g>
<!-- app/controllers/schedule.controller.js&#45;&gt;app/models/index.js -->
<g id="edge5" class="edge"><title>app/controllers/schedule.controller.js&#45;&gt;app/models/index.js</title>
<path fill="none" stroke="#000000" stroke-width="2" stroke-opacity="0.200000" d="M325.779,-130.061C334.66,-131.272 343.653,-132.498 351.829,-133.613"/>
<polygon fill="#000000" fill-opacity="0.200000" stroke="#000000" stroke-width="2" stroke-opacity="0.200000" points="351.677,-135.712 357.905,-134.442 352.244,-131.55 351.677,-135.712"/>
</g>
<!-- app/controllers/supplements.controller.js -->
<g id="node8" class="node"><title>app/controllers/supplements.controller.js</title>
<g id="a_node8"><a xlink:href="app/controllers/supplements.controller.js" xlink:title="supplements.controller.js">
<path fill="#ffffcc" stroke="black" d="M328,-102C328,-102 218,-102 218,-102 215,-102 212,-99 212,-96 212,-96 212,-90 212,-90 212,-87 215,-84 218,-84 218,-84 328,-84 328,-84 331,-84 334,-87 334,-90 334,-90 334,-96 334,-96 334,-99 331,-102 328,-102"/>
<text text-anchor="middle" x="273" y="-90.8" font-family="Helvetica,sans-Serif" font-size="9.00">supplements.controller.js</text>
</a>
</g>
</g>
<!-- app/controllers/supplements.controller.js&#45;&gt;app/models/index.js -->
<g id="edge6" class="edge"><title>app/controllers/supplements.controller.js&#45;&gt;app/models/index.js</title>
<path fill="none" stroke="#000000" stroke-width="2" stroke-opacity="0.200000" d="M325.585,-102.05C331.232,-103.723 336.809,-105.69 342,-108 351.579,-112.262 361.175,-118.895 368.771,-124.841"/>
<polygon fill="#000000" fill-opacity="0.200000" stroke="#000000" stroke-width="2" stroke-opacity="0.200000" points="367.699,-126.674 373.686,-128.81 370.338,-123.407 367.699,-126.674"/>
</g>
<!-- app/controllers/tasks.controller.js -->
<g id="node9" class="node"><title>app/controllers/tasks.controller.js</title>
<g id="a_node9"><a xlink:href="app/controllers/tasks.controller.js" xlink:title="tasks.controller.js">
<path fill="#ffffcc" stroke="black" d="M311.5,-72C311.5,-72 234.5,-72 234.5,-72 231.5,-72 228.5,-69 228.5,-66 228.5,-66 228.5,-60 228.5,-60 228.5,-57 231.5,-54 234.5,-54 234.5,-54 311.5,-54 311.5,-54 314.5,-54 317.5,-57 317.5,-60 317.5,-60 317.5,-66 317.5,-66 317.5,-69 314.5,-72 311.5,-72"/>
<text text-anchor="middle" x="273" y="-60.8" font-family="Helvetica,sans-Serif" font-size="9.00">tasks.controller.js</text>
</a>
</g>
</g>
<!-- app/controllers/tasks.controller.js&#45;&gt;app/models/index.js -->
<g id="edge7" class="edge"><title>app/controllers/tasks.controller.js&#45;&gt;app/models/index.js</title>
<path fill="none" stroke="#000000" stroke-width="2" stroke-opacity="0.200000" d="M317.669,-67.6183C326.214,-69.8667 334.76,-73.1674 342,-78 358.656,-89.1184 370.715,-109.267 377.529,-123.126"/>
<polygon fill="#000000" fill-opacity="0.200000" stroke="#000000" stroke-width="2" stroke-opacity="0.200000" points="375.668,-124.103 380.126,-128.635 379.467,-122.313 375.668,-124.103"/>
</g>
<!-- app/controllers/teams.controller.js -->
<g id="node10" class="node"><title>app/controllers/teams.controller.js</title>
<g id="a_node10"><a xlink:href="app/controllers/teams.controller.js" xlink:title="teams.controller.js">
<path fill="#ffffcc" stroke="black" d="M313.5,-42C313.5,-42 232.5,-42 232.5,-42 229.5,-42 226.5,-39 226.5,-36 226.5,-36 226.5,-30 226.5,-30 226.5,-27 229.5,-24 232.5,-24 232.5,-24 313.5,-24 313.5,-24 316.5,-24 319.5,-27 319.5,-30 319.5,-30 319.5,-36 319.5,-36 319.5,-39 316.5,-42 313.5,-42"/>
<text text-anchor="middle" x="273" y="-30.8" font-family="Helvetica,sans-Serif" font-size="9.00">teams.controller.js</text>
</a>
</g>
</g>
<!-- app/controllers/teams.controller.js&#45;&gt;app/models/index.js -->
<g id="edge8" class="edge"><title>app/controllers/teams.controller.js&#45;&gt;app/models/index.js</title>
<path fill="none" stroke="#000000" stroke-width="2" stroke-opacity="0.200000" d="M319.777,-37.0691C327.781,-39.3904 335.585,-42.8588 342,-48 365.796,-67.0716 376.758,-102.747 381.262,-122.982"/>
<polygon fill="#000000" fill-opacity="0.200000" stroke="#000000" stroke-width="2" stroke-opacity="0.200000" points="379.229,-123.521 382.506,-128.969 383.342,-122.667 379.229,-123.521"/>
</g>
<!-- app/routes/GraphToken.routes.js -->
<g id="node18" class="node"><title>app/routes/GraphToken.routes.js</title>
<g id="a_node18"><a xlink:href="app/routes/GraphToken.routes.js" xlink:title="GraphToken.routes.js">
<path fill="#ffffcc" stroke="black" d="M180,-282C180,-282 86,-282 86,-282 83,-282 80,-279 80,-276 80,-276 80,-270 80,-270 80,-267 83,-264 86,-264 86,-264 180,-264 180,-264 183,-264 186,-267 186,-270 186,-270 186,-276 186,-276 186,-279 183,-282 180,-282"/>
<text text-anchor="middle" x="133" y="-270.8" font-family="Helvetica,sans-Serif" font-size="9.00">GraphToken.routes.js</text>
</a>
</g>
</g>
<!-- app/routes/GraphToken.routes.js&#45;&gt;app/controllers/graphToken.controller.js -->
<g id="edge16" class="edge"><title>app/routes/GraphToken.routes.js&#45;&gt;app/controllers/graphToken.controller.js</title>
<path fill="none" stroke="#000000" stroke-width="2" stroke-opacity="0.200000" d="M186.172,-273C193.447,-273 200.987,-273 208.443,-273"/>
<polygon fill="#000000" fill-opacity="0.200000" stroke="#000000" stroke-width="2" stroke-opacity="0.200000" points="208.678,-275.1 214.678,-273 208.678,-270.9 208.678,-275.1"/>
</g>
<!-- app/routes/hours.routes.js -->
<g id="node19" class="node"><title>app/routes/hours.routes.js</title>
<g id="a_node19"><a xlink:href="app/routes/hours.routes.js" xlink:title="hours.routes.js">
<path fill="#ffffcc" stroke="black" d="M166.5,-252C166.5,-252 99.5,-252 99.5,-252 96.5,-252 93.5,-249 93.5,-246 93.5,-246 93.5,-240 93.5,-240 93.5,-237 96.5,-234 99.5,-234 99.5,-234 166.5,-234 166.5,-234 169.5,-234 172.5,-237 172.5,-240 172.5,-240 172.5,-246 172.5,-246 172.5,-249 169.5,-252 166.5,-252"/>
<text text-anchor="middle" x="133" y="-240.8" font-family="Helvetica,sans-Serif" font-size="9.00">hours.routes.js</text>
</a>
</g>
</g>
<!-- app/routes/hours.routes.js&#45;&gt;app/controllers/hours.controller.js -->
<g id="edge17" class="edge"><title>app/routes/hours.routes.js&#45;&gt;app/controllers/hours.controller.js</title>
<path fill="none" stroke="#000000" stroke-width="2" stroke-opacity="0.200000" d="M172.808,-243C187.728,-243 204.994,-243 220.898,-243"/>
<polygon fill="#000000" fill-opacity="0.200000" stroke="#000000" stroke-width="2" stroke-opacity="0.200000" points="221.151,-245.1 227.151,-243 221.151,-240.9 221.151,-245.1"/>
</g>
<!-- app/routes/locations.routes.js -->
<g id="node20" class="node"><title>app/routes/locations.routes.js</title>
<g id="a_node20"><a xlink:href="app/routes/locations.routes.js" xlink:title="locations.routes.js">
<path fill="#ffffcc" stroke="black" d="M173,-222C173,-222 93,-222 93,-222 90,-222 87,-219 87,-216 87,-216 87,-210 87,-210 87,-207 90,-204 93,-204 93,-204 173,-204 173,-204 176,-204 179,-207 179,-210 179,-210 179,-216 179,-216 179,-219 176,-222 173,-222"/>
<text text-anchor="middle" x="133" y="-210.8" font-family="Helvetica,sans-Serif" font-size="9.00">locations.routes.js</text>
</a>
</g>
</g>
<!-- app/routes/locations.routes.js&#45;&gt;app/controllers/locations.controller.js -->
<g id="edge18" class="edge"><title>app/routes/locations.routes.js&#45;&gt;app/controllers/locations.controller.js</title>
<path fill="none" stroke="#000000" stroke-width="2" stroke-opacity="0.200000" d="M179.186,-213C190.566,-213 202.93,-213 214.813,-213"/>
<polygon fill="#000000" fill-opacity="0.200000" stroke="#000000" stroke-width="2" stroke-opacity="0.200000" points="214.975,-215.1 220.975,-213 214.975,-210.9 214.975,-215.1"/>
</g>
<!-- app/routes/projects.routes.js -->
<g id="node21" class="node"><title>app/routes/projects.routes.js</title>
<g id="a_node21"><a xlink:href="app/routes/projects.routes.js" xlink:title="projects.routes.js">
<path fill="#ffffcc" stroke="black" d="M171,-192C171,-192 95,-192 95,-192 92,-192 89,-189 89,-186 89,-186 89,-180 89,-180 89,-177 92,-174 95,-174 95,-174 171,-174 171,-174 174,-174 177,-177 177,-180 177,-180 177,-186 177,-186 177,-189 174,-192 171,-192"/>
<text text-anchor="middle" x="133" y="-180.8" font-family="Helvetica,sans-Serif" font-size="9.00">projects.routes.js</text>
</a>
</g>
</g>
<!-- app/routes/projects.routes.js&#45;&gt;app/controllers/projects.controller.js -->
<g id="edge19" class="edge"><title>app/routes/projects.routes.js&#45;&gt;app/controllers/projects.controller.js</title>
<path fill="none" stroke="#000000" stroke-width="2" stroke-opacity="0.200000" d="M177.285,-183C189.649,-183 203.297,-183 216.292,-183"/>
<polygon fill="#000000" fill-opacity="0.200000" stroke="#000000" stroke-width="2" stroke-opacity="0.200000" points="216.61,-185.1 222.61,-183 216.61,-180.9 216.61,-185.1"/>
</g>
<!-- app/routes/reports.routes.js -->
<g id="node22" class="node"><title>app/routes/reports.routes.js</title>
<g id="a_node22"><a xlink:href="app/routes/reports.routes.js" xlink:title="reports.routes.js">
<path fill="#ffffcc" stroke="black" d="M169,-162C169,-162 97,-162 97,-162 94,-162 91,-159 91,-156 91,-156 91,-150 91,-150 91,-147 94,-144 97,-144 97,-144 169,-144 169,-144 172,-144 175,-147 175,-150 175,-150 175,-156 175,-156 175,-159 172,-162 169,-162"/>
<text text-anchor="middle" x="133" y="-150.8" font-family="Helvetica,sans-Serif" font-size="9.00">reports.routes.js</text>
</a>
</g>
</g>
<!-- app/routes/reports.routes.js&#45;&gt;app/controllers/reports.controller.js -->
<g id="edge20" class="edge"><title>app/routes/reports.routes.js&#45;&gt;app/controllers/reports.controller.js</title>
<path fill="none" stroke="#000000" stroke-width="2" stroke-opacity="0.200000" d="M175.031,-153C188.657,-153 204.034,-153 218.461,-153"/>
<polygon fill="#000000" fill-opacity="0.200000" stroke="#000000" stroke-width="2" stroke-opacity="0.200000" points="218.578,-155.1 224.578,-153 218.578,-150.9 218.578,-155.1"/>
</g>
<!-- app/routes/schedule.routes.js -->
<g id="node23" class="node"><title>app/routes/schedule.routes.js</title>
<g id="a_node23"><a xlink:href="app/routes/schedule.routes.js" xlink:title="schedule.routes.js">
<path fill="#ffffcc" stroke="black" d="M173.5,-132C173.5,-132 92.5,-132 92.5,-132 89.5,-132 86.5,-129 86.5,-126 86.5,-126 86.5,-120 86.5,-120 86.5,-117 89.5,-114 92.5,-114 92.5,-114 173.5,-114 173.5,-114 176.5,-114 179.5,-117 179.5,-120 179.5,-120 179.5,-126 179.5,-126 179.5,-129 176.5,-132 173.5,-132"/>
<text text-anchor="middle" x="133" y="-120.8" font-family="Helvetica,sans-Serif" font-size="9.00">schedule.routes.js</text>
</a>
</g>
</g>
<!-- app/routes/schedule.routes.js&#45;&gt;app/controllers/schedule.controller.js -->
<g id="edge21" class="edge"><title>app/routes/schedule.routes.js&#45;&gt;app/controllers/schedule.controller.js</title>
<path fill="none" stroke="#000000" stroke-width="2" stroke-opacity="0.200000" d="M179.569,-123C190.667,-123 202.682,-123 214.263,-123"/>
<polygon fill="#000000" fill-opacity="0.200000" stroke="#000000" stroke-width="2" stroke-opacity="0.200000" points="214.272,-125.1 220.272,-123 214.272,-120.9 214.272,-125.1"/>
</g>
<!-- app/routes/supplements.routes.js -->
<g id="node24" class="node"><title>app/routes/supplements.routes.js</title>
<g id="a_node24"><a xlink:href="app/routes/supplements.routes.js" xlink:title="supplements.routes.js">
<path fill="#ffffcc" stroke="black" d="M182,-102C182,-102 84,-102 84,-102 81,-102 78,-99 78,-96 78,-96 78,-90 78,-90 78,-87 81,-84 84,-84 84,-84 182,-84 182,-84 185,-84 188,-87 188,-90 188,-90 188,-96 188,-96 188,-99 185,-102 182,-102"/>
<text text-anchor="middle" x="133" y="-90.8" font-family="Helvetica,sans-Serif" font-size="9.00">supplements.routes.js</text>
</a>
</g>
</g>
<!-- app/routes/supplements.routes.js&#45;&gt;app/controllers/supplements.controller.js -->
<g id="edge22" class="edge"><title>app/routes/supplements.routes.js&#45;&gt;app/controllers/supplements.controller.js</title>
<path fill="none" stroke="#000000" stroke-width="2" stroke-opacity="0.200000" d="M188.145,-93C193.801,-93 199.597,-93 205.371,-93"/>
<polygon fill="#000000" fill-opacity="0.200000" stroke="#000000" stroke-width="2" stroke-opacity="0.200000" points="205.62,-95.1001 211.62,-93 205.62,-90.9001 205.62,-95.1001"/>
</g>
<!-- app/routes/tasks.routes.js -->
<g id="node25" class="node"><title>app/routes/tasks.routes.js</title>
<g id="a_node25"><a xlink:href="app/routes/tasks.routes.js" xlink:title="tasks.routes.js">
<path fill="#ffffcc" stroke="black" d="M165.5,-72C165.5,-72 100.5,-72 100.5,-72 97.5,-72 94.5,-69 94.5,-66 94.5,-66 94.5,-60 94.5,-60 94.5,-57 97.5,-54 100.5,-54 100.5,-54 165.5,-54 165.5,-54 168.5,-54 171.5,-57 171.5,-60 171.5,-60 171.5,-66 171.5,-66 171.5,-69 168.5,-72 165.5,-72"/>
<text text-anchor="middle" x="133" y="-60.8" font-family="Helvetica,sans-Serif" font-size="9.00">tasks.routes.js</text>
</a>
</g>
</g>
<!-- app/routes/tasks.routes.js&#45;&gt;app/controllers/tasks.controller.js -->
<g id="edge23" class="edge"><title>app/routes/tasks.routes.js&#45;&gt;app/controllers/tasks.controller.js</title>
<path fill="none" stroke="#000000" stroke-width="2" stroke-opacity="0.200000" d="M171.709,-63C187.346,-63 205.702,-63 222.407,-63"/>
<polygon fill="#000000" fill-opacity="0.200000" stroke="#000000" stroke-width="2" stroke-opacity="0.200000" points="222.478,-65.1001 228.478,-63 222.478,-60.9001 222.478,-65.1001"/>
</g>
<!-- app/routes/teams.routes.js -->
<g id="node26" class="node"><title>app/routes/teams.routes.js</title>
<g id="a_node26"><a xlink:href="app/routes/teams.routes.js" xlink:title="teams.routes.js">
<path fill="#ffffcc" stroke="black" d="M167.5,-42C167.5,-42 98.5,-42 98.5,-42 95.5,-42 92.5,-39 92.5,-36 92.5,-36 92.5,-30 92.5,-30 92.5,-27 95.5,-24 98.5,-24 98.5,-24 167.5,-24 167.5,-24 170.5,-24 173.5,-27 173.5,-30 173.5,-30 173.5,-36 173.5,-36 173.5,-39 170.5,-42 167.5,-42"/>
<text text-anchor="middle" x="133" y="-30.8" font-family="Helvetica,sans-Serif" font-size="9.00">teams.routes.js</text>
</a>
</g>
</g>
<!-- app/routes/teams.routes.js&#45;&gt;app/controllers/teams.controller.js -->
<g id="edge24" class="edge"><title>app/routes/teams.routes.js&#45;&gt;app/controllers/teams.controller.js</title>
<path fill="none" stroke="#000000" stroke-width="2" stroke-opacity="0.200000" d="M173.545,-33C188.03,-33 204.646,-33 220.052,-33"/>
<polygon fill="#000000" fill-opacity="0.200000" stroke="#000000" stroke-width="2" stroke-opacity="0.200000" points="220.115,-35.1001 226.115,-33 220.115,-30.9001 220.115,-35.1001"/>
</g>
<!-- server.js -->
<g id="node27" class="node"><title>server.js</title>
<g id="a_node27"><a xlink:href="server.js" xlink:title="server.js">
<path fill="#ffffcc" stroke="black" d="M48,-162C48,-162 6,-162 6,-162 3,-162 0,-159 0,-156 0,-156 0,-150 0,-150 0,-147 3,-144 6,-144 6,-144 48,-144 48,-144 51,-144 54,-147 54,-150 54,-150 54,-156 54,-156 54,-159 51,-162 48,-162"/>
<text text-anchor="middle" x="27" y="-150.8" font-family="Helvetica,sans-Serif" font-size="9.00">server.js</text>
</a>
</g>
</g>
<!-- server.js&#45;&gt;app/routes/GraphToken.routes.js -->
<g id="edge25" class="edge"><title>server.js&#45;&gt;app/routes/GraphToken.routes.js</title>
<path fill="none" stroke="#000000" stroke-width="2" stroke-opacity="0.200000" d="M28.0857,-162.189C28.8035,-182.678 33.5553,-232.32 62,-258 65.5676,-261.221 69.6547,-263.811 74.0229,-265.887"/>
<polygon fill="#000000" fill-opacity="0.200000" stroke="#000000" stroke-width="2" stroke-opacity="0.200000" points="73.3425,-267.879 79.6885,-268.251 74.9599,-264.003 73.3425,-267.879"/>
</g>
<!-- server.js&#45;&gt;app/routes/hours.routes.js -->
<g id="edge26" class="edge"><title>server.js&#45;&gt;app/routes/hours.routes.js</title>
<path fill="none" stroke="#000000" stroke-width="2" stroke-opacity="0.200000" d="M29.4438,-162.24C32.454,-178.248 40.9583,-211.049 62,-228 69.225,-233.82 78.1885,-237.522 87.2621,-239.845"/>
<polygon fill="#000000" fill-opacity="0.200000" stroke="#000000" stroke-width="2" stroke-opacity="0.200000" points="86.9095,-241.918 93.2236,-241.181 87.8281,-237.82 86.9095,-241.918"/>
</g>
<!-- server.js&#45;&gt;app/routes/locations.routes.js -->
<g id="edge27" class="edge"><title>server.js&#45;&gt;app/routes/locations.routes.js</title>
<path fill="none" stroke="#000000" stroke-width="2" stroke-opacity="0.200000" d="M32.3731,-162.162C37.8203,-172.542 48.1278,-189.159 62,-198 67.6974,-201.631 74.1314,-204.397 80.7323,-206.5"/>
<polygon fill="#000000" fill-opacity="0.200000" stroke="#000000" stroke-width="2" stroke-opacity="0.200000" points="80.4783,-208.612 86.825,-208.252 81.6389,-204.576 80.4783,-208.612"/>
</g>
<!-- server.js&#45;&gt;app/routes/projects.routes.js -->
<g id="edge28" class="edge"><title>server.js&#45;&gt;app/routes/projects.routes.js</title>
<path fill="none" stroke="#000000" stroke-width="2" stroke-opacity="0.200000" d="M46.7944,-162.109C51.67,-164.245 56.9671,-166.37 62,-168 68.6508,-170.155 75.7585,-172.087 82.8012,-173.79"/>
<polygon fill="#000000" fill-opacity="0.200000" stroke="#000000" stroke-width="2" stroke-opacity="0.200000" points="82.3697,-175.845 88.6903,-175.166 83.3258,-171.756 82.3697,-175.845"/>
</g>
<!-- server.js&#45;&gt;app/routes/schedule.routes.js -->
<g id="edge29" class="edge"><title>server.js&#45;&gt;app/routes/schedule.routes.js</title>
<path fill="none" stroke="#000000" stroke-width="2" stroke-opacity="0.200000" d="M46.7944,-143.891C51.67,-141.755 56.9671,-139.63 62,-138 67.8527,-136.104 74.0592,-134.38 80.2639,-132.833"/>
<polygon fill="#000000" fill-opacity="0.200000" stroke="#000000" stroke-width="2" stroke-opacity="0.200000" points="81.1117,-134.789 86.4548,-131.345 80.1301,-130.706 81.1117,-134.789"/>
</g>
<!-- server.js&#45;&gt;app/routes/supplements.routes.js -->
<g id="edge30" class="edge"><title>server.js&#45;&gt;app/routes/supplements.routes.js</title>
<path fill="none" stroke="#000000" stroke-width="2" stroke-opacity="0.200000" d="M32.3731,-143.838C37.8203,-133.458 48.1278,-116.841 62,-108 65.1639,-105.984 68.5551,-104.234 72.0758,-102.717"/>
<polygon fill="#000000" fill-opacity="0.200000" stroke="#000000" stroke-width="2" stroke-opacity="0.200000" points="72.8771,-104.658 77.701,-100.518 71.3482,-100.746 72.8771,-104.658"/>
</g>
<!-- server.js&#45;&gt;app/routes/tasks.routes.js -->
<g id="edge31" class="edge"><title>server.js&#45;&gt;app/routes/tasks.routes.js</title>
<path fill="none" stroke="#000000" stroke-width="2" stroke-opacity="0.200000" d="M29.4438,-143.76C32.454,-127.752 40.9583,-94.9508 62,-78 69.5343,-71.9305 78.959,-68.1653 88.4278,-65.8641"/>
<polygon fill="#000000" fill-opacity="0.200000" stroke="#000000" stroke-width="2" stroke-opacity="0.200000" points="88.8805,-67.9149 94.3126,-64.613 88.0071,-63.8067 88.8805,-67.9149"/>
</g>
<!-- server.js&#45;&gt;app/routes/teams.routes.js -->
<g id="edge32" class="edge"><title>server.js&#45;&gt;app/routes/teams.routes.js</title>
<path fill="none" stroke="#000000" stroke-width="2" stroke-opacity="0.200000" d="M28.0857,-143.811C28.8035,-123.322 33.5553,-73.6803 62,-48 68.8108,-41.8511 77.5151,-38.0012 86.4544,-35.6358"/>
<polygon fill="#000000" fill-opacity="0.200000" stroke="#000000" stroke-width="2" stroke-opacity="0.200000" points="86.9655,-37.6732 92.3451,-34.2864 86.0277,-33.5792 86.9655,-37.6732"/>
</g>
</g>
</svg>
